<ttFont>
    <TTGlyph name=".notdef" xMin="68" yMin="0" xMax="612" yMax="1365">
      <contour>
        <pt x="68" y="0" on="1"/>
        <pt x="68" y="1365" on="1"/>
        <pt x="612" y="1365" on="1"/>
        <pt x="612" y="0" on="1"/>
      </contour>
      <contour>
        <pt x="136" y="68" on="1"/>
        <pt x="544" y="68" on="1"/>
        <pt x="544" y="1297" on="1"/>
        <pt x="136" y="1297" on="1"/>
      </contour>
    </TTGlyph>
    <TTGlyph name="A" xMin="70" yMin="0" xMax="1442" yMax="1476">
      <contour>
        <pt x="525" y="479" on="1"/>
        <pt x="987" y="479" on="1"/>
        <pt x="760" y="1255" on="1"/>
      </contour>
      <contour>
        <pt x="70" y="0" on="1"/>
        <pt x="556" y="1476" on="1"/>
        <pt x="950" y="1476" on="1"/>
        <pt x="1442" y="0" on="1"/>
        <pt x="1127" y="0" on="1"/>
        <pt x="1044" y="281" on="1"/>
        <pt x="466" y="281" on="1"/>
        <pt x="380" y="0" on="1"/>
      </contour>
    </TTGlyph>
    <TTGlyph name="AE" xMin="83" yMin="0" xMax="1710" yMax="1477">
      <contour>
        <pt x="527" y="477" on="1"/>
        <pt x="893" y="477" on="1"/>
        <pt x="893" y="1249" on="1"/>
        <pt x="757" y="1249" on="1"/>
      </contour>
      <contour>
        <pt x="393" y="0" on="1"/>
        <pt x="83" y="0" on="1"/>
        <pt x="539" y="1477" on="1"/>
        <pt x="1700" y="1477" on="1"/>
        <pt x="1700" y="1249" on="1"/>
        <pt x="1173" y="1249" on="1"/>
        <pt x="1173" y="858" on="1"/>
        <pt x="1630" y="858" on="1"/>
        <pt x="1630" y="645" on="1"/>
        <pt x="1173" y="645" on="1"/>
        <pt x="1173" y="227" on="1"/>
        <pt x="1710" y="227" on="1"/>
        <pt x="1710" y="0" on="1"/>
        <pt x="893" y="0" on="1"/>
        <pt x="893" y="281" on="1"/>
        <pt x="472" y="281" on="1"/>
      </contour>
    </TTGlyph>
    <TTGlyph name="AEacute" xMin="83" yMin="0" xMax="1710" yMax="2050">
      <component glyphName="acute" x="716" y="528" flags="0x1004"/>
      <component glyphName="AE" x="0" y="0" flags="0x1204"/>
    </TTGlyph>
    <TTGlyph name="Aacute" xMin="70" yMin="0" xMax="1442" yMax="2050">
      <component glyphName="acute" x="576" y="528" flags="0x1004"/>
      <component glyphName="A" x="0" y="0" flags="0x1204"/>
    </TTGlyph>
    <TTGlyph name="Abreve" xMin="70" yMin="0" xMax="1442" yMax="1910">
      <component glyphName="breve" x="490" y="394" flags="0x1004"/>
      <component glyphName="A" x="0" y="0" flags="0x1204"/>
    </TTGlyph>
    <TTGlyph name="Acircumflex" xMin="70" yMin="0" xMax="1442" yMax="1985">
      <component glyphName="circumflex" x="476" y="469" flags="0x1004"/>
      <component glyphName="A" x="0" y="0" flags="0x1204"/>
    </TTGlyph>
    <TTGlyph name="Adieresis" xMin="70" yMin="0" xMax="1442" yMax="1918">
      <component glyphName="dieresis" x="254" y="441" flags="0x1004"/>
      <component glyphName="A" x="0" y="0" flags="0x1204"/>
    </TTGlyph>
    <TTGlyph name="Agrave" xMin="70" yMin="0" xMax="1442" yMax="2050">
      <component glyphName="grave" x="364" y="528" flags="0x1004"/>
      <component glyphName="A" x="0" y="0" flags="0x1204"/>
    </TTGlyph>
    <TTGlyph name="Amacron" xMin="70" yMin="0" xMax="1442" yMax="1842">
      <component glyphName="uni02C9" x="553" y="434" flags="0x1004"/>
      <component glyphName="A" x="0" y="0" flags="0x1204"/>
    </TTGlyph>
    <TTGlyph name="Aogonek" xMin="70" yMin="-500" xMax="1442" yMax="1476">
      <component glyphName="ogonek" x="929" y="8" flags="0x1004"/>
      <component glyphName="A" x="0" y="0" flags="0x1004"/>
    </TTGlyph>
    <TTGlyph name="Aring" xMin="70" yMin="0" xMax="1442" yMax="1912">
      <component glyphName="ring" x="460" y="418" flags="0x1004"/>
      <component glyphName="A" x="0" y="0" flags="0x1204"/>
    </TTGlyph>
    <TTGlyph name="Aringacute" xMin="70" yMin="0" xMax="1442" yMax="2461">
      <component glyphName="acute" x="576" y="939" flags="0x1004"/>
      <component glyphName="Aring" x="0" y="0" flags="0x1204"/>
    </TTGlyph>
    <TTGlyph name="Atilde" xMin="70" yMin="0" xMax="1442" yMax="1962">
      <component glyphName="tilde" x="376" y="454" flags="0x1004"/>
      <component glyphName="A" x="0" y="0" flags="0x1204"/>
    </TTGlyph>
    <TTGlyph name="B" xMin="190" yMin="0" xMax="1344" yMax="1476">
      <contour>
        <pt x="487" y="882" on="1"/>
        <pt x="794" y="882" on="1"/>
        <pt x="936" y="882" on="0"/>
        <pt x="963" y="957" on="1"/>
        <pt x="978" y="999" on="0"/>
        <pt x="978" y="1166" on="0"/>
        <pt x="941" y="1242" on="0"/>
        <pt x="843" y="1273" on="0"/>
        <pt x="739" y="1273" on="1"/>
        <pt x="487" y="1273" on="1"/>
      </contour>
      <contour>
        <pt x="487" y="208" on="1"/>
        <pt x="775" y="208" on="1"/>
        <pt x="865" y="208" on="0"/>
        <pt x="966" y="226" on="0"/>
        <pt x="1029" y="284" on="0"/>
        <pt x="1048" y="374" on="0"/>
        <pt x="1048" y="505" on="0"/>
        <pt x="1044" y="538" on="1"/>
        <pt x="1034" y="622" on="0"/>
        <pt x="928" y="703" on="0"/>
        <pt x="805" y="703" on="1"/>
        <pt x="487" y="703" on="1"/>
      </contour>
      <contour>
        <pt x="190" y="0" on="1"/>
        <pt x="190" y="1476" on="1"/>
        <pt x="758" y="1476" on="1"/>
        <pt x="1062" y="1476" on="0"/>
        <pt x="1174" y="1381" on="1"/>
        <pt x="1232" y="1331" on="0"/>
        <pt x="1281" y="1193" on="0"/>
        <pt x="1281" y="967" on="0"/>
        <pt x="1201" y="832" on="0"/>
        <pt x="1092" y="804" on="1"/>
        <pt x="1240" y="784" on="0"/>
        <pt x="1344" y="600" on="0"/>
        <pt x="1344" y="448" on="1"/>
        <pt x="1344" y="439" on="0"/>
        <pt x="1344" y="430" on="1"/>
        <pt x="1344" y="212" on="0"/>
        <pt x="1104" y="0" on="0"/>
        <pt x="830" y="0" on="1"/>
      </contour>
    </TTGlyph>
    <TTGlyph name="C" xMin="160" yMin="-26" xMax="1362" yMax="1501">
      <contour>
        <pt x="626" y="-26" on="0"/>
        <pt x="402" y="26" on="0"/>
        <pt x="267" y="112" on="0"/>
        <pt x="187" y="247" on="0"/>
        <pt x="160" y="389" on="0"/>
        <pt x="160" y="484" on="1"/>
        <pt x="160" y="977" on="1"/>
        <pt x="160" y="1241" on="0"/>
        <pt x="267" y="1347" on="1"/>
        <pt x="374" y="1454" on="0"/>
        <pt x="551" y="1484" on="1"/>
        <pt x="651" y="1502" on="0"/>
        <pt x="777" y="1501" on="1"/>
        <pt x="1234" y="1501" on="0"/>
        <pt x="1322" y="1251" on="1"/>
        <pt x="1362" y="1139" on="0"/>
        <pt x="1362" y="983" on="1"/>
        <pt x="1362" y="965" on="1"/>
        <pt x="1071" y="931" on="1"/>
        <pt x="1071" y="1006" on="1"/>
        <pt x="1071" y="1160" on="0"/>
        <pt x="950" y="1268" on="0"/>
        <pt x="608" y="1268" on="0"/>
        <pt x="457" y="1159" on="0"/>
        <pt x="457" y="1012" on="1"/>
        <pt x="457" y="454" on="1"/>
        <pt x="457" y="306" on="0"/>
        <pt x="612" y="207" on="0"/>
        <pt x="781" y="207" on="1"/>
        <pt x="870" y="207" on="0"/>
        <pt x="974" y="226" on="0"/>
        <pt x="1045" y="284" on="0"/>
        <pt x="1071" y="380" on="0"/>
        <pt x="1071" y="460" on="1"/>
        <pt x="1071" y="507" on="1"/>
        <pt x="1362" y="507" on="1"/>
        <pt x="1362" y="480" on="1"/>
        <pt x="1362" y="261" on="0"/>
        <pt x="1233" y="66" on="0"/>
        <pt x="991" y="-26" on="0"/>
      </contour>
    </TTGlyph>
    <TTGlyph name="Cacute" xMin="160" yMin="-26" xMax="1362" yMax="2051">
      <component glyphName="acute" x="580" y="528" flags="0x1004"/>
      <component glyphName="C" x="0" y="0" flags="0x1204"/>
    </TTGlyph>
    <TTGlyph name="Ccaron" xMin="160" yMin="-26" xMax="1362" yMax="1986">
      <component glyphName="caron" x="482" y="469" flags="0x1004"/>
      <component glyphName="C" x="0" y="0" flags="0x1204"/>
    </TTGlyph>
    <TTGlyph name="Ccedilla" xMin="160" yMin="-504" xMax="1362" yMax="1501">
      <component glyphName="cedilla" x="566" y="-10" flags="0x1004"/>
      <component glyphName="C" x="0" y="0" flags="0x1204"/>
    </TTGlyph>
    <TTGlyph name="Ccircumflex" xMin="160" yMin="-26" xMax="1362" yMax="1986">
      <component glyphName="circumflex" x="482" y="469" flags="0x1004"/>
      <component glyphName="C" x="0" y="0" flags="0x1204"/>
    </TTGlyph>
    <TTGlyph name="Cdotaccent" xMin="160" yMin="-26" xMax="1362" yMax="1933">
      <component glyphName="uni0307" x="520" y="434" flags="0x1004"/>
      <component glyphName="C" x="0" y="0" flags="0x1204"/>
    </TTGlyph>
    <TTGlyph name="D" xMin="190" yMin="0" xMax="1374" yMax="1476">
      <contour>
        <pt x="190" y="0" on="1"/>
        <pt x="190" y="1476" on="1"/>
        <pt x="830" y="1476" on="1"/>
        <pt x="1184" y="1476" on="0"/>
        <pt x="1306" y="1266" on="1"/>
        <pt x="1374" y="1148" on="0"/>
        <pt x="1374" y="961" on="1"/>
        <pt x="1374" y="508" on="1"/>
        <pt x="1374" y="134" on="0"/>
        <pt x="1090" y="37" on="1"/>
        <pt x="982" y="0" on="0"/>
        <pt x="831" y="0" on="1"/>
      </contour>
      <contour>
        <pt x="487" y="231" on="1"/>
        <pt x="805" y="231" on="1"/>
        <pt x="957" y="231" on="0"/>
        <pt x="1077" y="343" on="0"/>
        <pt x="1077" y="470" on="1"/>
        <pt x="1077" y="1000" on="1"/>
        <pt x="1077" y="1125" on="0"/>
        <pt x="954" y="1245" on="0"/>
        <pt x="805" y="1245" on="1"/>
        <pt x="487" y="1245" on="1"/>
      </contour>
    </TTGlyph>
    <TTGlyph name="Dcaron" xMin="190" yMin="0" xMax="1374" yMax="1985">
      <component glyphName="caron" x="502" y="469" flags="0x1004"/>
      <component glyphName="D" x="0" y="0" flags="0x1204"/>
    </TTGlyph>
    <TTGlyph name="Dcroat" xMin="90" yMin="0" xMax="1396" yMax="1477">
      <component glyphName="Eth" x="0" y="0" flags="0x1004"/>
    </TTGlyph>
    <TTGlyph name="E" xMin="190" yMin="0" xMax="1168" yMax="1476">
      <contour>
        <pt x="190" y="0" on="1"/>
        <pt x="190" y="1476" on="1"/>
        <pt x="1157" y="1476" on="1"/>
        <pt x="1157" y="1252" on="1"/>
        <pt x="486" y="1252" on="1"/>
        <pt x="486" y="860" on="1"/>
        <pt x="1081" y="860" on="1"/>
        <pt x="1081" y="646" on="1"/>
        <pt x="486" y="646" on="1"/>
        <pt x="486" y="224" on="1"/>
        <pt x="1168" y="224" on="1"/>
        <pt x="1168" y="0" on="1"/>
      </contour>
    </TTGlyph>
    <TTGlyph name="Eacute" xMin="190" yMin="0" xMax="1168" yMax="2050">
      <component glyphName="acute" x="498" y="528" flags="0x1004"/>
      <component glyphName="E" x="0" y="0" flags="0x1204"/>
    </TTGlyph>
    <TTGlyph name="Ebreve" xMin="190" yMin="0" xMax="1168" yMax="1910">
      <component glyphName="breve" x="413" y="394" flags="0x1004"/>
      <component glyphName="E" x="0" y="0" flags="0x1204"/>
    </TTGlyph>
    <TTGlyph name="Ecaron" xMin="190" yMin="0" xMax="1168" yMax="1985">
      <component glyphName="caron" x="400" y="469" flags="0x1004"/>
      <component glyphName="E" x="0" y="0" flags="0x1204"/>
    </TTGlyph>
    <TTGlyph name="Ecircumflex" xMin="190" yMin="0" xMax="1168" yMax="1985">
      <component glyphName="circumflex" x="400" y="469" flags="0x1004"/>
      <component glyphName="E" x="0" y="0" flags="0x1204"/>
    </TTGlyph>
    <TTGlyph name="Edieresis" xMin="190" yMin="0" xMax="1168" yMax="1918">
      <component glyphName="dieresis" x="177" y="441" flags="0x1004"/>
      <component glyphName="E" x="0" y="0" flags="0x1204"/>
    </TTGlyph>
    <TTGlyph name="Edotaccent" xMin="190" yMin="0" xMax="1168" yMax="1932">
      <component glyphName="uni0307" x="438" y="434" flags="0x1004"/>
      <component glyphName="E" x="0" y="0" flags="0x1204"/>
    </TTGlyph>
    <TTGlyph name="Egrave" xMin="190" yMin="0" xMax="1168" yMax="2050">
      <component glyphName="grave" x="288" y="528" flags="0x1004"/>
      <component glyphName="E" x="0" y="0" flags="0x1204"/>
    </TTGlyph>
    <TTGlyph name="Emacron" xMin="190" yMin="0" xMax="1168" yMax="1842">
      <component glyphName="uni02C9" x="476" y="434" flags="0x1004"/>
      <component glyphName="E" x="0" y="0" flags="0x1204"/>
    </TTGlyph>
    <TTGlyph name="Eng" xMin="190" yMin="-382" xMax="1450" yMax="1477">
      <contour>
        <pt x="901" y="-382" on="1"/>
        <pt x="873" y="-192" on="1"/>
        <pt x="1075" y="-175" on="0"/>
        <pt x="1164" y="-81" on="0"/>
        <pt x="1177" y="47" on="0"/>
        <pt x="1177" y="117" on="1"/>
        <pt x="1177" y="153" on="1"/>
        <pt x="458" y="996" on="1"/>
        <pt x="458" y="0" on="1"/>
        <pt x="190" y="0" on="1"/>
        <pt x="190" y="1477" on="1"/>
        <pt x="415" y="1477" on="1"/>
        <pt x="1183" y="560" on="1"/>
        <pt x="1183" y="1477" on="1"/>
        <pt x="1450" y="1477" on="1"/>
        <pt x="1450" y="162" on="1"/>
        <pt x="1450" y="12" on="0"/>
        <pt x="1403" y="-182" on="0"/>
        <pt x="1280" y="-321" on="0"/>
        <pt x="1066" y="-382" on="0"/>
      </contour>
    </TTGlyph>
    <TTGlyph name="Eogonek" xMin="190" yMin="-500" xMax="1168" yMax="1476">
      <component glyphName="ogonek" x="465" y="8" flags="0x1004"/>
      <component glyphName="E" x="0" y="0" flags="0x1004"/>
    </TTGlyph>
    <TTGlyph name="Eth" xMin="90" yMin="0" xMax="1396" yMax="1477">
      <contour>
        <pt x="509" y="231" on="1"/>
        <pt x="827" y="231" on="1"/>
        <pt x="979" y="231" on="0"/>
        <pt x="1099" y="343" on="0"/>
        <pt x="1099" y="470" on="1"/>
        <pt x="1099" y="1000" on="1"/>
        <pt x="1099" y="1125" on="0"/>
        <pt x="976" y="1245" on="0"/>
        <pt x="827" y="1245" on="1"/>
        <pt x="509" y="1245" on="1"/>
        <pt x="509" y="848" on="1"/>
        <pt x="815" y="848" on="1"/>
        <pt x="815" y="698" on="1"/>
        <pt x="509" y="698" on="1"/>
      </contour>
      <contour>
        <pt x="212" y="848" on="1"/>
        <pt x="212" y="1477" on="1"/>
        <pt x="852" y="1477" on="1"/>
        <pt x="1208" y="1477" on="0"/>
        <pt x="1328" y="1267" on="1"/>
        <pt x="1396" y="1148" on="0"/>
        <pt x="1396" y="961" on="1"/>
        <pt x="1396" y="508" on="1"/>
        <pt x="1396" y="134" on="0"/>
        <pt x="1112" y="37" on="1"/>
        <pt x="1004" y="0" on="0"/>
        <pt x="853" y="0" on="1"/>
        <pt x="212" y="0" on="1"/>
        <pt x="212" y="698" on="1"/>
        <pt x="90" y="698" on="1"/>
        <pt x="90" y="848" on="1"/>
      </contour>
    </TTGlyph>
    <TTGlyph name="Euro" xMin="46" yMin="-26" xMax="1362" yMax="1501">
      <contour>
        <pt x="626" y="-26" on="0"/>
        <pt x="402" y="26" on="0"/>
        <pt x="267" y="112" on="0"/>
        <pt x="187" y="247" on="0"/>
        <pt x="160" y="389" on="0"/>
        <pt x="160" y="484" on="1"/>
        <pt x="160" y="505" on="1"/>
        <pt x="46" y="505" on="1"/>
        <pt x="46" y="639" on="1"/>
        <pt x="160" y="639" on="1"/>
        <pt x="160" y="819" on="1"/>
        <pt x="46" y="819" on="1"/>
        <pt x="46" y="953" on="1"/>
        <pt x="160" y="953" on="1"/>
        <pt x="160" y="977" on="1"/>
        <pt x="160" y="1241" on="0"/>
        <pt x="267" y="1347" on="1"/>
        <pt x="374" y="1454" on="0"/>
        <pt x="551" y="1484" on="1"/>
        <pt x="651" y="1502" on="0"/>
        <pt x="777" y="1501" on="1"/>
        <pt x="1234" y="1501" on="0"/>
        <pt x="1322" y="1251" on="1"/>
        <pt x="1362" y="1139" on="0"/>
        <pt x="1362" y="983" on="1"/>
        <pt x="1362" y="965" on="1"/>
        <pt x="1071" y="931" on="1"/>
        <pt x="1071" y="1006" on="1"/>
        <pt x="1071" y="1160" on="0"/>
        <pt x="950" y="1268" on="0"/>
        <pt x="608" y="1268" on="0"/>
        <pt x="457" y="1159" on="0"/>
        <pt x="457" y="1012" on="1"/>
        <pt x="457" y="953" on="1"/>
        <pt x="788" y="953" on="1"/>
        <pt x="788" y="819" on="1"/>
        <pt x="457" y="819" on="1"/>
        <pt x="457" y="639" on="1"/>
        <pt x="788" y="639" on="1"/>
        <pt x="788" y="505" on="1"/>
        <pt x="457" y="505" on="1"/>
        <pt x="457" y="454" on="1"/>
        <pt x="457" y="306" on="0"/>
        <pt x="612" y="207" on="0"/>
        <pt x="781" y="207" on="1"/>
        <pt x="870" y="207" on="0"/>
        <pt x="974" y="226" on="0"/>
        <pt x="1045" y="284" on="0"/>
        <pt x="1071" y="380" on="0"/>
        <pt x="1071" y="460" on="1"/>
        <pt x="1071" y="507" on="1"/>
        <pt x="1362" y="507" on="1"/>
        <pt x="1362" y="480" on="1"/>
        <pt x="1362" y="261" on="0"/>
        <pt x="1233" y="66" on="0"/>
        <pt x="991" y="-26" on="0"/>
      </contour>
    </TTGlyph>
    <TTGlyph name="F" xMin="190" yMin="0" xMax="1083" yMax="1476">
      <contour>
        <pt x="190" y="0" on="1"/>
        <pt x="190" y="1476" on="1"/>
        <pt x="1083" y="1476" on="1"/>
        <pt x="1083" y="1249" on="1"/>
        <pt x="487" y="1249" on="1"/>
        <pt x="487" y="847" on="1"/>
        <pt x="1042" y="847" on="1"/>
        <pt x="1042" y="634" on="1"/>
        <pt x="487" y="634" on="1"/>
        <pt x="487" y="0" on="1"/>
      </contour>
    </TTGlyph>
    <TTGlyph name="G" xMin="160" yMin="-26" xMax="1419" yMax="1501">
      <contour>
        <pt x="1048" y="7" on="0"/>
        <pt x="903" y="-26" on="0"/>
        <pt x="781" y="-26" on="1"/>
        <pt x="660" y="-26" on="0"/>
        <pt x="544" y="0" on="1"/>
        <pt x="327" y="48" on="0"/>
        <pt x="160" y="297" on="0"/>
        <pt x="160" y="484" on="1"/>
        <pt x="160" y="977" on="1"/>
        <pt x="160" y="1282" on="0"/>
        <pt x="354" y="1403" on="1"/>
        <pt x="511" y="1501" on="0"/>
        <pt x="813" y="1501" on="1"/>
        <pt x="1298" y="1500" on="0"/>
        <pt x="1388" y="1228" on="1"/>
        <pt x="1418" y="1136" on="0"/>
        <pt x="1418" y="1007" on="1"/>
        <pt x="1418" y="984" on="1"/>
        <pt x="1126" y="962" on="1"/>
        <pt x="1126" y="1021" on="1"/>
        <pt x="1126" y="1165" on="0"/>
        <pt x="986" y="1268" on="0"/>
        <pt x="635" y="1268" on="0"/>
        <pt x="458" y="1156" on="0"/>
        <pt x="458" y="1012" on="1"/>
        <pt x="458" y="454" on="1"/>
        <pt x="458" y="307" on="0"/>
        <pt x="640" y="207" on="0"/>
        <pt x="986" y="207" on="0"/>
        <pt x="1151" y="307" on="0"/>
        <pt x="1151" y="454" on="1"/>
        <pt x="1151" y="562" on="1"/>
        <pt x="853" y="562" on="1"/>
        <pt x="853" y="757" on="1"/>
        <pt x="1419" y="757" on="1"/>
        <pt x="1419" y="0" on="1"/>
        <pt x="1262" y="0" on="1"/>
        <pt x="1215" y="170" on="1"/>
        <pt x="1202" y="126" on="0"/>
        <pt x="1129" y="51" on="0"/>
      </contour>
    </TTGlyph>
    <TTGlyph name="Gbreve" xMin="160" yMin="-26" xMax="1419" yMax="1910">
      <component glyphName="breve" x="524" y="394" flags="0x1004"/>
      <component glyphName="G" x="0" y="0" flags="0x1204"/>
    </TTGlyph>
    <TTGlyph name="Gcircumflex" xMin="160" yMin="-26" xMax="1419" yMax="1985">
      <component glyphName="circumflex" x="510" y="469" flags="0x1004"/>
      <component glyphName="G" x="0" y="0" flags="0x1204"/>
    </TTGlyph>
    <TTGlyph name="Gcommaaccent" xMin="160" yMin="-875" xMax="1419" yMax="1501">
      <component glyphName="uni0326" x="427" y="-104" flags="0x1004"/>
      <component glyphName="G" x="0" y="0" flags="0x1204"/>
    </TTGlyph>
    <TTGlyph name="Gdotaccent" xMin="160" yMin="-26" xMax="1419" yMax="1932">
      <component glyphName="uni0307" x="548" y="434" flags="0x1004"/>
      <component glyphName="G" x="0" y="0" flags="0x1204"/>
    </TTGlyph>
    <TTGlyph name="H" xMin="190" yMin="0" xMax="1434" yMax="1476">
      <contour>
        <pt x="190" y="0" on="1"/>
        <pt x="190" y="1476" on="1"/>
        <pt x="488" y="1476" on="1"/>
        <pt x="488" y="848" on="1"/>
        <pt x="1136" y="848" on="1"/>
        <pt x="1136" y="1476" on="1"/>
        <pt x="1434" y="1476" on="1"/>
        <pt x="1434" y="0" on="1"/>
        <pt x="1136" y="0" on="1"/>
        <pt x="1136" y="615" on="1"/>
        <pt x="488" y="615" on="1"/>
        <pt x="488" y="0" on="1"/>
      </contour>
    </TTGlyph>
    <TTGlyph name="Hbar" xMin="104" yMin="0" xMax="1560" yMax="1476">
      <contour>
        <pt x="513" y="1091" on="1"/>
        <pt x="513" y="848" on="1"/>
        <pt x="1159" y="848" on="1"/>
        <pt x="1159" y="1091" on="1"/>
      </contour>
      <contour>
        <pt x="216" y="1195" on="1"/>
        <pt x="216" y="1476" on="1"/>
        <pt x="513" y="1476" on="1"/>
        <pt x="513" y="1195" on="1"/>
        <pt x="1159" y="1195" on="1"/>
        <pt x="1159" y="1476" on="1"/>
        <pt x="1456" y="1476" on="1"/>
        <pt x="1456" y="1195" on="1"/>
        <pt x="1560" y="1195" on="1"/>
        <pt x="1560" y="1091" on="1"/>
        <pt x="1456" y="1091" on="1"/>
        <pt x="1456" y="0" on="1"/>
        <pt x="1159" y="0" on="1"/>
        <pt x="1159" y="615" on="1"/>
        <pt x="513" y="615" on="1"/>
        <pt x="513" y="0" on="1"/>
        <pt x="216" y="0" on="1"/>
        <pt x="216" y="1091" on="1"/>
        <pt x="104" y="1091" on="1"/>
        <pt x="104" y="1195" on="1"/>
      </contour>
    </TTGlyph>
    <TTGlyph name="Hcircumflex" xMin="190" yMin="0" xMax="1434" yMax="1985">
      <component glyphName="circumflex" x="532" y="469" flags="0x1004"/>
      <component glyphName="H" x="0" y="0" flags="0x1204"/>
    </TTGlyph>
    <TTGlyph name="I" xMin="158" yMin="0" xMax="990" yMax="1476">
      <contour>
        <pt x="158" y="0" on="1"/>
        <pt x="158" y="222" on="1"/>
        <pt x="427" y="222" on="1"/>
        <pt x="427" y="1255" on="1"/>
        <pt x="158" y="1255" on="1"/>
        <pt x="158" y="1476" on="1"/>
        <pt x="990" y="1476" on="1"/>
        <pt x="990" y="1255" on="1"/>
        <pt x="723" y="1255" on="1"/>
        <pt x="723" y="222" on="1"/>
        <pt x="990" y="222" on="1"/>
        <pt x="990" y="0" on="1"/>
      </contour>
    </TTGlyph>
    <TTGlyph name="IJ" xMin="158" yMin="-25" xMax="2184" yMax="1476">
      <component glyphName="J" x="1148" y="0" flags="0x1004"/>
      <component glyphName="I" x="0" y="0" flags="0x1004"/>
    </TTGlyph>
    <TTGlyph name="Iacute" xMin="158" yMin="0" xMax="990" yMax="2050">
      <component glyphName="acute" x="394" y="528" flags="0x1004"/>
      <component glyphName="I" x="0" y="0" flags="0x1204"/>
    </TTGlyph>
    <TTGlyph name="Ibreve" xMin="158" yMin="0" xMax="990" yMax="1910">
      <component glyphName="breve" x="308" y="394" flags="0x1004"/>
      <component glyphName="I" x="0" y="0" flags="0x1204"/>
    </TTGlyph>
    <TTGlyph name="Icircumflex" xMin="158" yMin="0" xMax="990" yMax="1985">
      <component glyphName="circumflex" x="294" y="469" flags="0x1004"/>
      <component glyphName="I" x="0" y="0" flags="0x1204"/>
    </TTGlyph>
    <TTGlyph name="Idieresis" xMin="158" yMin="0" xMax="990" yMax="1918">
      <component glyphName="dieresis" x="72" y="441" flags="0x1004"/>
      <component glyphName="I" x="0" y="0" flags="0x1204"/>
    </TTGlyph>
    <TTGlyph name="Idotaccent" xMin="158" yMin="0" xMax="990" yMax="1932">
      <component glyphName="uni0307" x="333" y="434" flags="0x1004"/>
      <component glyphName="I" x="0" y="0" flags="0x1204"/>
    </TTGlyph>
    <TTGlyph name="Igrave" xMin="158" yMin="0" xMax="990" yMax="2050">
      <component glyphName="grave" x="182" y="528" flags="0x1004"/>
      <component glyphName="I" x="0" y="0" flags="0x1204"/>
    </TTGlyph>
    <TTGlyph name="Imacron" xMin="158" yMin="0" xMax="990" yMax="1842">
      <component glyphName="uni02C9" x="371" y="434" flags="0x1004"/>
      <component glyphName="I" x="0" y="0" flags="0x1204"/>
    </TTGlyph>
    <TTGlyph name="Iogonek" xMin="158" yMin="-500" xMax="990" yMax="1476">
      <component glyphName="ogonek" x="302" y="8" flags="0x1004"/>
      <component glyphName="I" x="0" y="0" flags="0x1204"/>
    </TTGlyph>
    <TTGlyph name="Itilde" xMin="158" yMin="0" xMax="990" yMax="1962">
      <component glyphName="tilde" x="194" y="454" flags="0x1004"/>
      <component glyphName="I" x="0" y="0" flags="0x1204"/>
    </TTGlyph>
    <TTGlyph name="J" xMin="70" yMin="-25" xMax="1036" yMax="1476">
      <contour>
        <pt x="1036" y="210" on="0"/>
        <pt x="754" y="-25" on="0"/>
        <pt x="266" y="-25" on="0"/>
        <pt x="70" y="67" on="1"/>
        <pt x="139" y="287" on="1"/>
        <pt x="212" y="253" on="0"/>
        <pt x="407" y="209" on="0"/>
        <pt x="485" y="209" on="1"/>
        <pt x="617" y="209" on="0"/>
        <pt x="739" y="337" on="0"/>
        <pt x="739" y="441" on="1"/>
        <pt x="739" y="1250" on="1"/>
        <pt x="231" y="1250" on="1"/>
        <pt x="231" y="1476" on="1"/>
        <pt x="1036" y="1476" on="1"/>
        <pt x="1036" y="422" on="1"/>
      </contour>
    </TTGlyph>
    <TTGlyph name="Jcircumflex" xMin="70" yMin="-25" xMax="1036" yMax="1985">
      <component glyphName="circumflex" x="404" y="469" flags="0x1004"/>
      <component glyphName="J" x="0" y="0" flags="0x1204"/>
    </TTGlyph>
    <TTGlyph name="K" xMin="190" yMin="0" xMax="1426" yMax="1476">
      <contour>
        <pt x="190" y="0" on="1"/>
        <pt x="190" y="1476" on="1"/>
        <pt x="487" y="1476" on="1"/>
        <pt x="487" y="760" on="1"/>
        <pt x="1061" y="1476" on="1"/>
        <pt x="1389" y="1476" on="1"/>
        <pt x="872" y="804" on="1"/>
        <pt x="1426" y="0" on="1"/>
        <pt x="1091" y="0" on="1"/>
        <pt x="626" y="679" on="1"/>
        <pt x="487" y="541" on="1"/>
        <pt x="487" y="0" on="1"/>
      </contour>
    </TTGlyph>
    <TTGlyph name="Kcommaaccent" xMin="190" yMin="-849" xMax="1426" yMax="1476">
      <component glyphName="uni0326" x="446" y="-78" flags="0x1004"/>
      <component glyphName="K" x="0" y="0" flags="0x1204"/>
    </TTGlyph>
    <TTGlyph name="L" xMin="190" yMin="0" xMax="1104" yMax="1476">
      <contour>
        <pt x="190" y="0" on="1"/>
        <pt x="190" y="1476" on="1"/>
        <pt x="487" y="1476" on="1"/>
        <pt x="487" y="232" on="1"/>
        <pt x="1104" y="232" on="1"/>
        <pt x="1104" y="0" on="1"/>
      </contour>
    </TTGlyph>
    <TTGlyph name="Lacute" xMin="190" yMin="0" xMax="1104" yMax="2050">
      <component glyphName="acute" x="466" y="528" flags="0x1004"/>
      <component glyphName="L" x="0" y="0" flags="0x1204"/>
    </TTGlyph>
    <TTGlyph name="Lcaron" xMin="190" yMin="0" xMax="1175" yMax="1501">
      <component glyphName="comma" x="630" y="1225" flags="0x1004"/>
      <component glyphName="L" x="0" y="0" flags="0x1004"/>
    </TTGlyph>
    <TTGlyph name="Lcommaaccent" xMin="190" yMin="-849" xMax="1104" yMax="1476">
      <component glyphName="uni0326" x="284" y="-78" flags="0x1004"/>
      <component glyphName="L" x="0" y="0" flags="0x1204"/>
    </TTGlyph>
    <TTGlyph name="Ldot" xMin="190" yMin="0" xMax="1104" yMax="1476">
      <component glyphName="periodcentered" x="598" y="-152" flags="0x1004"/>
      <component glyphName="L" x="0" y="0" flags="0x1204"/>
    </TTGlyph>
    <TTGlyph name="Lslash" xMin="24" yMin="0" xMax="1142" yMax="1477">
      <contour>
        <pt x="212" y="889" on="1"/>
        <pt x="212" y="1477" on="1"/>
        <pt x="509" y="1477" on="1"/>
        <pt x="509" y="994" on="1"/>
        <pt x="793" y="1094" on="1"/>
        <pt x="793" y="951" on="1"/>
        <pt x="509" y="851" on="1"/>
        <pt x="509" y="232" on="1"/>
        <pt x="1142" y="232" on="1"/>
        <pt x="1142" y="0" on="1"/>
        <pt x="212" y="0" on="1"/>
        <pt x="212" y="746" on="1"/>
        <pt x="24" y="680" on="1"/>
        <pt x="24" y="823" on="1"/>
      </contour>
    </TTGlyph>
    <TTGlyph name="M" xMin="190" yMin="0" xMax="1684" yMax="1476">
      <contour>
        <pt x="190" y="0" on="1"/>
        <pt x="190" y="1476" on="1"/>
        <pt x="517" y="1476" on="1"/>
        <pt x="937" y="761" on="1"/>
        <pt x="1351" y="1476" on="1"/>
        <pt x="1684" y="1476" on="1"/>
        <pt x="1684" y="0" on="1"/>
        <pt x="1406" y="0" on="1"/>
        <pt x="1406" y="1091" on="1"/>
        <pt x="1037" y="429" on="1"/>
        <pt x="838" y="429" on="1"/>
        <pt x="468" y="1087" on="1"/>
        <pt x="468" y="0" on="1"/>
      </contour>
    </TTGlyph>
    <TTGlyph name="N" xMin="190" yMin="0" xMax="1444" yMax="1476">
      <contour>
        <pt x="190" y="0" on="1"/>
        <pt x="190" y="1476" on="1"/>
        <pt x="413" y="1476" on="1"/>
        <pt x="1180" y="464" on="1"/>
        <pt x="1180" y="1476" on="1"/>
        <pt x="1444" y="1476" on="1"/>
        <pt x="1444" y="0" on="1"/>
        <pt x="1221" y="0" on="1"/>
        <pt x="457" y="996" on="1"/>
        <pt x="457" y="0" on="1"/>
      </contour>
    </TTGlyph>
    <TTGlyph name="Nacute" xMin="190" yMin="0" xMax="1444" yMax="2050">
      <component glyphName="acute" x="636" y="528" flags="0x1004"/>
      <component glyphName="N" x="0" y="0" flags="0x1204"/>
    </TTGlyph>
    <TTGlyph name="Ncaron" xMin="190" yMin="0" xMax="1444" yMax="1985">
      <component glyphName="caron" x="538" y="469" flags="0x1004"/>
      <component glyphName="N" x="0" y="0" flags="0x1204"/>
    </TTGlyph>
    <TTGlyph name="Ncommaaccent" xMin="190" yMin="-849" xMax="1444" yMax="1476">
      <component glyphName="uni0326" x="454" y="-78" flags="0x1004"/>
      <component glyphName="N" x="0" y="0" flags="0x1204"/>
    </TTGlyph>
    <TTGlyph name="Ntilde" xMin="190" yMin="0" xMax="1444" yMax="1962">
      <component glyphName="tilde" x="438" y="454" flags="0x1004"/>
      <component glyphName="N" x="0" y="0" flags="0x1204"/>
    </TTGlyph>
    <TTGlyph name="O" xMin="160" yMin="-26" xMax="1446" yMax="1501">
      <contour>
        <pt x="810" y="-26" on="1"/>
        <pt x="376" y="-26" on="0"/>
        <pt x="238" y="190" on="1"/>
        <pt x="160" y="310" on="0"/>
        <pt x="160" y="501" on="1"/>
        <pt x="160" y="963" on="1"/>
        <pt x="160" y="1274" on="0"/>
        <pt x="353" y="1398" on="1"/>
        <pt x="512" y="1500" on="0"/>
        <pt x="814" y="1501" on="1"/>
        <pt x="1235" y="1501" on="0"/>
        <pt x="1370" y="1271" on="1"/>
        <pt x="1446" y="1142" on="0"/>
        <pt x="1446" y="948" on="1"/>
        <pt x="1446" y="517" on="1"/>
        <pt x="1446" y="215" on="0"/>
        <pt x="1256" y="81" on="1"/>
        <pt x="1104" y="-26" on="0"/>
      </contour>
      <contour>
        <pt x="458" y="323" on="0"/>
        <pt x="636" y="207" on="0"/>
        <pt x="989" y="207" on="0"/>
        <pt x="1148" y="322" on="0"/>
        <pt x="1148" y="468" on="1"/>
        <pt x="1148" y="1003" on="1"/>
        <pt x="1148" y="1147" on="0"/>
        <pt x="986" y="1268" on="0"/>
        <pt x="639" y="1268" on="0"/>
        <pt x="458" y="1148" on="0"/>
        <pt x="458" y="1003" on="1"/>
        <pt x="458" y="468" on="1"/>
      </contour>
    </TTGlyph>
    <TTGlyph name="OE" xMin="160" yMin="0" xMax="1507" yMax="1476">
      <contour>
        <pt x="714" y="191" on="1"/>
        <pt x="886" y="191" on="1"/>
        <pt x="886" y="1279" on="1"/>
        <pt x="713" y="1279" on="1"/>
        <pt x="430" y="1279" on="0"/>
        <pt x="430" y="1022" on="1"/>
        <pt x="430" y="444" on="1"/>
        <pt x="430" y="191" on="0"/>
      </contour>
      <contour>
        <pt x="717" y="0" on="1"/>
        <pt x="340" y="0" on="0"/>
        <pt x="226" y="201" on="1"/>
        <pt x="160" y="318" on="0"/>
        <pt x="160" y="506" on="1"/>
        <pt x="160" y="958" on="1"/>
        <pt x="160" y="1255" on="0"/>
        <pt x="325" y="1377" on="1"/>
        <pt x="459" y="1476" on="0"/>
        <pt x="717" y="1476" on="1"/>
        <pt x="1505" y="1476" on="1"/>
        <pt x="1505" y="1287" on="1"/>
        <pt x="1156" y="1287" on="1"/>
        <pt x="1156" y="858" on="1"/>
        <pt x="1422" y="858" on="1"/>
        <pt x="1422" y="665" on="1"/>
        <pt x="1156" y="665" on="1"/>
        <pt x="1156" y="190" on="1"/>
        <pt x="1507" y="190" on="1"/>
        <pt x="1507" y="0" on="1"/>
      </contour>
    </TTGlyph>
    <TTGlyph name="Oacute" xMin="160" yMin="-26" xMax="1446" yMax="2050">
      <component glyphName="acute" x="622" y="528" flags="0x1004"/>
      <component glyphName="O" x="0" y="0" flags="0x1204"/>
    </TTGlyph>
    <TTGlyph name="Obreve" xMin="160" yMin="-26" xMax="1446" yMax="1910">
      <component glyphName="breve" x="537" y="394" flags="0x1004"/>
      <component glyphName="O" x="0" y="0" flags="0x1204"/>
    </TTGlyph>
    <TTGlyph name="Ocircumflex" xMin="160" yMin="-26" xMax="1446" yMax="1985">
      <component glyphName="circumflex" x="524" y="469" flags="0x1004"/>
      <component glyphName="O" x="0" y="0" flags="0x1204"/>
    </TTGlyph>
    <TTGlyph name="Odieresis" xMin="160" yMin="-26" xMax="1446" yMax="1918">
      <component glyphName="dieresis" x="301" y="441" flags="0x1004"/>
      <component glyphName="O" x="0" y="0" flags="0x1204"/>
    </TTGlyph>
    <TTGlyph name="Ograve" xMin="160" yMin="-26" xMax="1446" yMax="2050">
      <component glyphName="grave" x="412" y="528" flags="0x1004"/>
      <component glyphName="O" x="0" y="0" flags="0x1204"/>
    </TTGlyph>
    <TTGlyph name="Ohungarumlaut" xMin="160" yMin="-26" xMax="1446" yMax="2116">
      <component glyphName="hungarumlaut" x="424" y="620" flags="0x1004"/>
      <component glyphName="O" x="0" y="0" flags="0x1204"/>
    </TTGlyph>
    <TTGlyph name="Omacron" xMin="160" yMin="-26" xMax="1446" yMax="1842">
      <component glyphName="uni02C9" x="600" y="434" flags="0x1004"/>
      <component glyphName="O" x="0" y="0" flags="0x1204"/>
    </TTGlyph>
    <TTGlyph name="Oslash" xMin="166" yMin="-217" xMax="1452" yMax="1698">
      <contour>
        <pt x="970" y="1253" on="1"/>
        <pt x="906" y="1268" on="0"/>
        <pt x="820" y="1268" on="1"/>
        <pt x="645" y="1268" on="0"/>
        <pt x="464" y="1148" on="0"/>
        <pt x="464" y="1003" on="1"/>
        <pt x="464" y="468" on="1"/>
        <pt x="464" y="305" on="0"/>
        <pt x="585" y="246" on="1"/>
      </contour>
      <contour>
        <pt x="1142" y="1454" on="1"/>
        <pt x="1452" y="1345" on="0"/>
        <pt x="1452" y="948" on="1"/>
        <pt x="1452" y="517" on="1"/>
        <pt x="1452" y="215" on="0"/>
        <pt x="1262" y="81" on="1"/>
        <pt x="1110" y="-26" on="0"/>
        <pt x="820" y="-26" on="1"/>
        <pt x="683" y="-26" on="0"/>
        <pt x="584" y="-7" on="1"/>
        <pt x="504" y="-217" on="1"/>
        <pt x="417" y="-194" on="1"/>
        <pt x="497" y="14" on="1"/>
        <pt x="306" y="72" on="0"/>
        <pt x="166" y="327" on="0"/>
        <pt x="166" y="501" on="1"/>
        <pt x="166" y="963" on="1"/>
        <pt x="166" y="1274" on="0"/>
        <pt x="359" y="1398" on="1"/>
        <pt x="518" y="1500" on="0"/>
        <pt x="820" y="1501" on="1"/>
        <pt x="953" y="1501" on="0"/>
        <pt x="1056" y="1478" on="1"/>
        <pt x="1140" y="1698" on="1"/>
        <pt x="1227" y="1675" on="1"/>
      </contour>
      <contour>
        <pt x="820" y="207" on="1"/>
        <pt x="995" y="207" on="0"/>
        <pt x="1154" y="322" on="0"/>
        <pt x="1154" y="468" on="1"/>
        <pt x="1154" y="1003" on="1"/>
        <pt x="1154" y="1161" on="0"/>
        <pt x="1054" y="1221" on="1"/>
        <pt x="671" y="219" on="1"/>
        <pt x="730" y="207" on="0"/>
      </contour>
    </TTGlyph>
    <TTGlyph name="Oslashacute" xMin="166" yMin="-217" xMax="1452" yMax="2247">
      <component glyphName="acute" x="628" y="725" flags="0x1004"/>
      <component glyphName="Oslash" x="0" y="0" flags="0x1204"/>
    </TTGlyph>
    <TTGlyph name="Otilde" xMin="160" yMin="-26" xMax="1446" yMax="1962">
      <component glyphName="tilde" x="424" y="454" flags="0x1004"/>
      <component glyphName="O" x="0" y="0" flags="0x1204"/>
    </TTGlyph>
    <TTGlyph name="P" xMin="190" yMin="0" xMax="1250" yMax="1476">
      <contour>
        <pt x="487" y="726" on="1"/>
        <pt x="787" y="726" on="1"/>
        <pt x="895" y="726" on="0"/>
        <pt x="972" y="849" on="0"/>
        <pt x="972" y="990" on="1"/>
        <pt x="972" y="1192" on="0"/>
        <pt x="883" y="1244" on="1"/>
        <pt x="848" y="1264" on="0"/>
        <pt x="797" y="1265" on="1"/>
        <pt x="487" y="1265" on="1"/>
      </contour>
      <contour>
        <pt x="190" y="0" on="1"/>
        <pt x="190" y="1476" on="1"/>
        <pt x="769" y="1476" on="1"/>
        <pt x="1016" y="1476" on="0"/>
        <pt x="1250" y="1252" on="0"/>
        <pt x="1250" y="746" on="0"/>
        <pt x="1025" y="509" on="0"/>
        <pt x="740" y="509" on="1"/>
        <pt x="487" y="509" on="1"/>
        <pt x="487" y="0" on="1"/>
      </contour>
    </TTGlyph>
    <TTGlyph name="Q" xMin="160" yMin="-534" xMax="1446" yMax="1500">
      <contour>
        <pt x="458" y="322" on="0"/>
        <pt x="636" y="206" on="0"/>
        <pt x="989" y="206" on="0"/>
        <pt x="1148" y="321" on="0"/>
        <pt x="1148" y="467" on="1"/>
        <pt x="1148" y="1002" on="1"/>
        <pt x="1148" y="1146" on="0"/>
        <pt x="986" y="1267" on="0"/>
        <pt x="639" y="1267" on="0"/>
        <pt x="458" y="1147" on="0"/>
        <pt x="458" y="1002" on="1"/>
        <pt x="458" y="467" on="1"/>
      </contour>
      <contour>
        <pt x="1010" y="-534" on="1"/>
        <pt x="688" y="-22" on="1"/>
        <pt x="241" y="14" on="0"/>
        <pt x="174" y="346" on="1"/>
        <pt x="160" y="415" on="0"/>
        <pt x="160" y="500" on="1"/>
        <pt x="160" y="962" on="1"/>
        <pt x="160" y="1274" on="0"/>
        <pt x="353" y="1398" on="1"/>
        <pt x="512" y="1500" on="0"/>
        <pt x="814" y="1500" on="1"/>
        <pt x="1235" y="1500" on="0"/>
        <pt x="1370" y="1270" on="1"/>
        <pt x="1446" y="1141" on="0"/>
        <pt x="1446" y="947" on="1"/>
        <pt x="1446" y="516" on="1"/>
        <pt x="1446" y="246" on="0"/>
        <pt x="1296" y="112" on="1"/>
        <pt x="1177" y="6" on="0"/>
        <pt x="954" y="-19" on="1"/>
        <pt x="1199" y="-426" on="1"/>
      </contour>
    </TTGlyph>
    <TTGlyph name="R" xMin="190" yMin="0" xMax="1388" yMax="1476">
      <contour>
        <pt x="487" y="795" on="1"/>
        <pt x="852" y="795" on="1"/>
        <pt x="957" y="795" on="0"/>
        <pt x="1036" y="914" on="0"/>
        <pt x="1036" y="1035" on="1"/>
        <pt x="1036" y="1265" on="0"/>
        <pt x="864" y="1265" on="1"/>
        <pt x="487" y="1265" on="1"/>
      </contour>
      <contour>
        <pt x="190" y="0" on="1"/>
        <pt x="190" y="1476" on="1"/>
        <pt x="827" y="1476" on="1"/>
        <pt x="1113" y="1476" on="0"/>
        <pt x="1320" y="1244" on="0"/>
        <pt x="1320" y="847" on="0"/>
        <pt x="1205" y="666" on="0"/>
        <pt x="1103" y="626" on="1"/>
        <pt x="1388" y="0" on="1"/>
        <pt x="1080" y="0" on="1"/>
        <pt x="821" y="583" on="1"/>
        <pt x="487" y="583" on="1"/>
        <pt x="487" y="0" on="1"/>
      </contour>
    </TTGlyph>
    <TTGlyph name="Racute" xMin="190" yMin="0" xMax="1388" yMax="2050">
      <component glyphName="acute" x="608" y="528" flags="0x1004"/>
      <component glyphName="R" x="0" y="0" flags="0x1204"/>
    </TTGlyph>
    <TTGlyph name="Rcaron" xMin="190" yMin="0" xMax="1388" yMax="1985">
      <component glyphName="caron" x="510" y="469" flags="0x1004"/>
      <component glyphName="R" x="0" y="0" flags="0x1204"/>
    </TTGlyph>
    <TTGlyph name="Rcommaaccent" xMin="190" yMin="-849" xMax="1388" yMax="1476">
      <component glyphName="uni0326" x="426" y="-78" flags="0x1004"/>
      <component glyphName="R" x="0" y="0" flags="0x1204"/>
    </TTGlyph>
    <TTGlyph name="S" xMin="120" yMin="-26" xMax="1169" yMax="1501">
      <contour>
        <pt x="674" y="-26" on="1"/>
        <pt x="537" y="-26" on="0"/>
        <pt x="231" y="46" on="0"/>
        <pt x="120" y="108" on="1"/>
        <pt x="222" y="325" on="1"/>
        <pt x="444" y="207" on="0"/>
        <pt x="681" y="207" on="1"/>
        <pt x="800" y="207" on="0"/>
        <pt x="898" y="305" on="0"/>
        <pt x="898" y="403" on="1"/>
        <pt x="898" y="422" on="0"/>
        <pt x="894" y="460" on="1"/>
        <pt x="885" y="550" on="0"/>
        <pt x="694" y="607" on="1"/>
        <pt x="442" y="681" on="1"/>
        <pt x="326" y="715" on="0"/>
        <pt x="186" y="842" on="0"/>
        <pt x="136" y="993" on="0"/>
        <pt x="136" y="1094" on="1"/>
        <pt x="136" y="1297" on="0"/>
        <pt x="425" y="1501" on="0"/>
        <pt x="649" y="1501" on="1"/>
        <pt x="945" y="1501" on="0"/>
        <pt x="1143" y="1386" on="1"/>
        <pt x="1059" y="1177" on="1"/>
        <pt x="866" y="1268" on="0"/>
        <pt x="675" y="1268" on="1"/>
        <pt x="435" y="1268" on="0"/>
        <pt x="428" y="1121" on="1"/>
        <pt x="428" y="1113" on="0"/>
        <pt x="428" y="1106" on="1"/>
        <pt x="428" y="1031" on="0"/>
        <pt x="503" y="947" on="0"/>
        <pt x="619" y="912" on="1"/>
        <pt x="870" y="837" on="1"/>
        <pt x="1022" y="791" on="0"/>
        <pt x="1169" y="593" on="0"/>
        <pt x="1169" y="228" on="0"/>
        <pt x="936" y="-26" on="0"/>
      </contour>
    </TTGlyph>
    <TTGlyph name="Sacute" xMin="120" yMin="-26" xMax="1169" yMax="2050">
      <component glyphName="acute" x="464" y="528" flags="0x1004"/>
      <component glyphName="S" x="0" y="0" flags="0x1204"/>
    </TTGlyph>
    <TTGlyph name="Scaron" xMin="120" yMin="-26" xMax="1169" yMax="1985">
      <component glyphName="caron" x="365" y="469" flags="0x1004"/>
      <component glyphName="S" x="0" y="0" flags="0x1204"/>
    </TTGlyph>
    <TTGlyph name="Scedilla" xMin="120" yMin="-504" xMax="1169" yMax="1501">
      <component glyphName="cedilla" x="450" y="-10" flags="0x1004"/>
      <component glyphName="S" x="0" y="0" flags="0x1204"/>
    </TTGlyph>
    <TTGlyph name="Scircumflex" xMin="120" yMin="-26" xMax="1169" yMax="1985">
      <component glyphName="circumflex" x="365" y="469" flags="0x1004"/>
      <component glyphName="S" x="0" y="0" flags="0x1204"/>
    </TTGlyph>
    <TTGlyph name="Scommaaccent" xMin="120" yMin="-875" xMax="1169" yMax="1501">
      <component glyphName="uni0326" x="282" y="-104" flags="0x1004"/>
      <component glyphName="S" x="0" y="0" flags="0x1204"/>
    </TTGlyph>
    <TTGlyph name="T" xMin="38" yMin="0" xMax="1156" yMax="1476">
      <contour>
        <pt x="449" y="0" on="1"/>
        <pt x="449" y="1250" on="1"/>
        <pt x="38" y="1250" on="1"/>
        <pt x="38" y="1476" on="1"/>
        <pt x="1156" y="1476" on="1"/>
        <pt x="1156" y="1250" on="1"/>
        <pt x="745" y="1250" on="1"/>
        <pt x="745" y="0" on="1"/>
      </contour>
    </TTGlyph>
    <TTGlyph name="Tbar" xMin="56" yMin="0" xMax="1154" yMax="1477">
      <contour>
        <pt x="457" y="817" on="1"/>
        <pt x="457" y="1250" on="1"/>
        <pt x="56" y="1250" on="1"/>
        <pt x="56" y="1477" on="1"/>
        <pt x="1154" y="1477" on="1"/>
        <pt x="1154" y="1250" on="1"/>
        <pt x="753" y="1250" on="1"/>
        <pt x="753" y="817" on="1"/>
        <pt x="959" y="817" on="1"/>
        <pt x="959" y="688" on="1"/>
        <pt x="753" y="688" on="1"/>
        <pt x="753" y="0" on="1"/>
        <pt x="457" y="0" on="1"/>
        <pt x="457" y="688" on="1"/>
        <pt x="243" y="688" on="1"/>
        <pt x="243" y="817" on="1"/>
      </contour>
    </TTGlyph>
    <TTGlyph name="Tcaron" xMin="38" yMin="0" xMax="1156" yMax="1985">
      <component glyphName="caron" x="318" y="469" flags="0x1004"/>
      <component glyphName="T" x="0" y="0" flags="0x1204"/>
    </TTGlyph>
    <TTGlyph name="Tcommaaccent" xMin="38" yMin="-478" xMax="1156" yMax="1476">
      <component glyphName="cedilla" x="402" y="16" flags="0x1004"/>
      <component glyphName="T" x="0" y="0" flags="0x1204"/>
    </TTGlyph>
    <TTGlyph name="Thorn" xMin="216" yMin="0" xMax="1272" yMax="1476">
      <contour>
        <pt x="513" y="567" on="1"/>
        <pt x="825" y="567" on="1"/>
        <pt x="935" y="567" on="0"/>
        <pt x="1004" y="660" on="0"/>
        <pt x="1004" y="921" on="0"/>
        <pt x="934" y="1033" on="0"/>
        <pt x="834" y="1033" on="1"/>
        <pt x="513" y="1033" on="1"/>
      </contour>
      <contour>
        <pt x="216" y="0" on="1"/>
        <pt x="216" y="1476" on="1"/>
        <pt x="513" y="1476" on="1"/>
        <pt x="513" y="1240" on="1"/>
        <pt x="806" y="1240" on="1"/>
        <pt x="1053" y="1240" on="0"/>
        <pt x="1272" y="1058" on="0"/>
        <pt x="1272" y="811" on="1"/>
        <pt x="1272" y="635" on="0"/>
        <pt x="1185" y="443" on="0"/>
        <pt x="973" y="356" on="0"/>
        <pt x="778" y="356" on="1"/>
        <pt x="513" y="356" on="1"/>
        <pt x="513" y="0" on="1"/>
      </contour>
    </TTGlyph>
    <TTGlyph name="U" xMin="176" yMin="-26" xMax="1398" yMax="1477">
      <contour>
        <pt x="794" y="-26" on="1"/>
        <pt x="378" y="-26" on="0"/>
        <pt x="249" y="172" on="1"/>
        <pt x="176" y="284" on="0"/>
        <pt x="176" y="468" on="1"/>
        <pt x="176" y="1477" on="1"/>
        <pt x="473" y="1477" on="1"/>
        <pt x="473" y="455" on="1"/>
        <pt x="473" y="316" on="0"/>
        <pt x="632" y="207" on="0"/>
        <pt x="958" y="207" on="0"/>
        <pt x="1101" y="315" on="0"/>
        <pt x="1101" y="455" on="1"/>
        <pt x="1101" y="1477" on="1"/>
        <pt x="1398" y="1477" on="1"/>
        <pt x="1398" y="480" on="1"/>
        <pt x="1398" y="186" on="0"/>
        <pt x="1224" y="70" on="1"/>
        <pt x="1078" y="-26" on="0"/>
      </contour>
    </TTGlyph>
    <TTGlyph name="Uacute" xMin="176" yMin="-26" xMax="1398" yMax="2050">
      <component glyphName="acute" x="606" y="528" flags="0x1004"/>
      <component glyphName="U" x="0" y="0" flags="0x1204"/>
    </TTGlyph>
    <TTGlyph name="Ubreve" xMin="176" yMin="-26" xMax="1398" yMax="1910">
      <component glyphName="breve" x="521" y="394" flags="0x1004"/>
      <component glyphName="U" x="0" y="0" flags="0x1204"/>
    </TTGlyph>
    <TTGlyph name="Ucircumflex" xMin="176" yMin="-26" xMax="1398" yMax="1985">
      <component glyphName="circumflex" x="508" y="469" flags="0x1004"/>
      <component glyphName="U" x="0" y="0" flags="0x1204"/>
    </TTGlyph>
    <TTGlyph name="Udieresis" xMin="176" yMin="-26" xMax="1398" yMax="1918">
      <component glyphName="dieresis" x="285" y="441" flags="0x1004"/>
      <component glyphName="U" x="0" y="0" flags="0x1204"/>
    </TTGlyph>
    <TTGlyph name="Ugrave" xMin="176" yMin="-26" xMax="1398" yMax="2050">
      <component glyphName="grave" x="396" y="528" flags="0x1004"/>
      <component glyphName="U" x="0" y="0" flags="0x1204"/>
    </TTGlyph>
    <TTGlyph name="Uhungarumlaut" xMin="176" yMin="-26" xMax="1398" yMax="2116">
      <component glyphName="hungarumlaut" x="408" y="620" flags="0x1004"/>
      <component glyphName="U" x="0" y="0" flags="0x1204"/>
    </TTGlyph>
    <TTGlyph name="Umacron" xMin="176" yMin="-26" xMax="1398" yMax="1842">
      <component glyphName="uni02C9" x="584" y="434" flags="0x1004"/>
      <component glyphName="U" x="0" y="0" flags="0x1204"/>
    </TTGlyph>
    <TTGlyph name="Uogonek" xMin="176" yMin="-526" xMax="1398" yMax="1477">
      <component glyphName="ogonek" x="516" y="-18" flags="0x1004"/>
      <component glyphName="U" x="0" y="0" flags="0x1204"/>
    </TTGlyph>
    <TTGlyph name="Uring" xMin="176" yMin="-26" xMax="1398" yMax="2110">
      <component glyphName="ring" x="491" y="616" flags="0x1004"/>
      <component glyphName="U" x="0" y="0" flags="0x1204"/>
    </TTGlyph>
    <TTGlyph name="Utilde" xMin="176" yMin="-26" xMax="1398" yMax="1962">
      <component glyphName="tilde" x="408" y="454" flags="0x1004"/>
      <component glyphName="U" x="0" y="0" flags="0x1204"/>
    </TTGlyph>
    <TTGlyph name="V" xMin="40" yMin="0" xMax="1444" yMax="1476">
      <contour>
        <pt x="564" y="0" on="1"/>
        <pt x="40" y="1476" on="1"/>
        <pt x="358" y="1476" on="1"/>
        <pt x="748" y="283" on="1"/>
        <pt x="1126" y="1476" on="1"/>
        <pt x="1444" y="1476" on="1"/>
        <pt x="924" y="0" on="1"/>
      </contour>
    </TTGlyph>
    <TTGlyph name="W" xMin="40" yMin="0" xMax="1914" yMax="1476">
      <contour>
        <pt x="423" y="0" on="1"/>
        <pt x="40" y="1476" on="1"/>
        <pt x="328" y="1476" on="1"/>
        <pt x="583" y="455" on="1"/>
        <pt x="842" y="1476" on="1"/>
        <pt x="1093" y="1476" on="1"/>
        <pt x="1389" y="466" on="1"/>
        <pt x="1629" y="1476" on="1"/>
        <pt x="1914" y="1476" on="1"/>
        <pt x="1532" y="0" on="1"/>
        <pt x="1283" y="0" on="1"/>
        <pt x="973" y="1053" on="1"/>
        <pt x="689" y="0" on="1"/>
      </contour>
    </TTGlyph>
    <TTGlyph name="Wacute" xMin="40" yMin="0" xMax="1914" yMax="2050">
      <component glyphName="acute" x="796" y="528" flags="0x1004"/>
      <component glyphName="W" x="0" y="0" flags="0x1204"/>
    </TTGlyph>
    <TTGlyph name="Wcircumflex" xMin="40" yMin="0" xMax="1914" yMax="1985">
      <component glyphName="circumflex" x="698" y="469" flags="0x1004"/>
      <component glyphName="W" x="0" y="0" flags="0x1204"/>
    </TTGlyph>
    <TTGlyph name="Wdieresis" xMin="40" yMin="0" xMax="1914" yMax="1918">
      <component glyphName="dieresis" x="475" y="441" flags="0x1004"/>
      <component glyphName="W" x="0" y="0" flags="0x1204"/>
    </TTGlyph>
    <TTGlyph name="Wgrave" xMin="40" yMin="0" xMax="1914" yMax="2050">
      <component glyphName="grave" x="586" y="528" flags="0x1004"/>
      <component glyphName="W" x="0" y="0" flags="0x1204"/>
    </TTGlyph>
    <TTGlyph name="X" xMin="38" yMin="0" xMax="1314" yMax="1476">
      <contour>
        <pt x="38" y="0" on="1"/>
        <pt x="513" y="748" on="1"/>
        <pt x="50" y="1476" on="1"/>
        <pt x="359" y="1476" on="1"/>
        <pt x="669" y="997" on="1"/>
        <pt x="969" y="1476" on="1"/>
        <pt x="1297" y="1476" on="1"/>
        <pt x="830" y="749" on="1"/>
        <pt x="1314" y="0" on="1"/>
        <pt x="987" y="0" on="1"/>
        <pt x="669" y="501" on="1"/>
        <pt x="348" y="0" on="1"/>
      </contour>
    </TTGlyph>
    <TTGlyph name="Y" xMin="0" yMin="0" xMax="1304" yMax="1476">
      <contour>
        <pt x="509" y="0" on="1"/>
        <pt x="509" y="567" on="1"/>
        <pt x="0" y="1476" on="1"/>
        <pt x="313" y="1476" on="1"/>
        <pt x="659" y="859" on="1"/>
        <pt x="1004" y="1476" on="1"/>
        <pt x="1304" y="1476" on="1"/>
        <pt x="805" y="567" on="1"/>
        <pt x="805" y="0" on="1"/>
      </contour>
    </TTGlyph>
    <TTGlyph name="Yacute" xMin="0" yMin="0" xMax="1304" yMax="2050">
      <component glyphName="acute" x="472" y="528" flags="0x1004"/>
      <component glyphName="Y" x="0" y="0" flags="0x1204"/>
    </TTGlyph>
    <TTGlyph name="Ycircumflex" xMin="0" yMin="0" xMax="1304" yMax="1985">
      <component glyphName="circumflex" x="372" y="469" flags="0x1004"/>
      <component glyphName="Y" x="0" y="0" flags="0x1204"/>
    </TTGlyph>
    <TTGlyph name="Ydieresis" xMin="0" yMin="0" xMax="1304" yMax="1918">
      <component glyphName="dieresis" x="150" y="441" flags="0x1004"/>
      <component glyphName="Y" x="0" y="0" flags="0x1204"/>
    </TTGlyph>
    <TTGlyph name="Ygrave" xMin="0" yMin="0" xMax="1304" yMax="2050">
      <component glyphName="grave" x="260" y="528" flags="0x1004"/>
      <component glyphName="Y" x="0" y="0" flags="0x1204"/>
    </TTGlyph>
    <TTGlyph name="Z" xMin="126" yMin="0" xMax="1102" yMax="1476">
      <contour>
        <pt x="126" y="0" on="1"/>
        <pt x="126" y="177" on="1"/>
        <pt x="746" y="1258" on="1"/>
        <pt x="154" y="1258" on="1"/>
        <pt x="154" y="1476" on="1"/>
        <pt x="1090" y="1476" on="1"/>
        <pt x="1090" y="1297" on="1"/>
        <pt x="472" y="210" on="1"/>
        <pt x="1102" y="210" on="1"/>
        <pt x="1102" y="0" on="1"/>
      </contour>
    </TTGlyph>
    <TTGlyph name="Zacute" xMin="126" yMin="0" xMax="1102" yMax="2050">
      <component glyphName="acute" x="434" y="528" flags="0x1004"/>
      <component glyphName="Z" x="0" y="0" flags="0x1204"/>
    </TTGlyph>
    <TTGlyph name="Zcaron" xMin="126" yMin="0" xMax="1102" yMax="1985">
      <component glyphName="caron" x="334" y="469" flags="0x1004"/>
      <component glyphName="Z" x="0" y="0" flags="0x1204"/>
    </TTGlyph>
    <TTGlyph name="Zdotaccent" xMin="126" yMin="0" xMax="1102" yMax="1932">
      <component glyphName="uni0307" x="373" y="434" flags="0x1004"/>
      <component glyphName="Z" x="0" y="0" flags="0x1204"/>
    </TTGlyph>
    <TTGlyph name="a" xMin="112" yMin="-23" xMax="1090" yMax="1097">
      <contour>
        <pt x="383" y="294" on="1"/>
        <pt x="383" y="165" on="0"/>
        <pt x="523" y="165" on="1"/>
        <pt x="578" y="165" on="0"/>
        <pt x="700" y="223" on="0"/>
        <pt x="735" y="276" on="1"/>
        <pt x="735" y="544" on="1"/>
        <pt x="687" y="505" on="0"/>
        <pt x="445" y="416" on="0"/>
        <pt x="383" y="341" on="0"/>
      </contour>
      <contour>
        <pt x="710" y="58" on="0"/>
        <pt x="535" y="-23" on="0"/>
        <pt x="285" y="-23" on="0"/>
        <pt x="112" y="139" on="0"/>
        <pt x="112" y="391" on="0"/>
        <pt x="269" y="543" on="0"/>
        <pt x="491" y="613" on="1"/>
        <pt x="626" y="656" on="0"/>
        <pt x="735" y="724" on="0"/>
        <pt x="735" y="784" on="1"/>
        <pt x="735" y="908" on="0"/>
        <pt x="566" y="907" on="1"/>
        <pt x="471" y="907" on="0"/>
        <pt x="399" y="834" on="0"/>
        <pt x="399" y="765" on="1"/>
        <pt x="399" y="723" on="1"/>
        <pt x="144" y="723" on="1"/>
        <pt x="144" y="755" on="1"/>
        <pt x="144" y="916" on="0"/>
        <pt x="358" y="1097" on="0"/>
        <pt x="802" y="1097" on="0"/>
        <pt x="1003" y="909" on="0"/>
        <pt x="1003" y="733" on="1"/>
        <pt x="1003" y="308" on="1"/>
        <pt x="1003" y="236" on="0"/>
        <pt x="1039" y="190" on="0"/>
        <pt x="1090" y="190" on="1"/>
        <pt x="1079" y="-8" on="1"/>
        <pt x="1022" y="-8" on="1"/>
        <pt x="911" y="-8" on="0"/>
        <pt x="787" y="53" on="0"/>
        <pt x="757" y="119" on="1"/>
      </contour>
    </TTGlyph>
    <TTGlyph name="aacute" xMin="112" yMin="-23" xMax="1090" yMax="1646">
      <component glyphName="acute" x="420" y="124" flags="0x1004"/>
      <component glyphName="a" x="0" y="0" flags="0x1204"/>
    </TTGlyph>
    <TTGlyph name="abreve" xMin="112" yMin="-23" xMax="1090" yMax="1506">
      <component glyphName="breve" x="335" y="-10" flags="0x1004"/>
      <component glyphName="a" x="0" y="0" flags="0x1204"/>
    </TTGlyph>
    <TTGlyph name="acircumflex" xMin="112" yMin="-23" xMax="1090" yMax="1581">
      <component glyphName="circumflex" x="322" y="65" flags="0x1004"/>
      <component glyphName="a" x="0" y="0" flags="0x1204"/>
    </TTGlyph>
    <TTGlyph name="acute" xMin="106" yMin="1157" xMax="488" yMax="1522">
      <contour>
        <pt x="106" y="1157" on="1"/>
        <pt x="220" y="1522" on="1"/>
        <pt x="488" y="1522" on="1"/>
        <pt x="255" y="1157" on="1"/>
      </contour>
    </TTGlyph>
    <TTGlyph name="adieresis" xMin="112" yMin="-23" xMax="1090" yMax="1514">
      <component glyphName="dieresis" x="99" y="37" flags="0x1004"/>
      <component glyphName="a" x="0" y="0" flags="0x1204"/>
    </TTGlyph>
    <TTGlyph name="ae" xMin="112" yMin="-23" xMax="1624" yMax="1097">
      <contour>
        <pt x="1012" y="655" on="1"/>
        <pt x="1371" y="655" on="1"/>
        <pt x="1371" y="765" on="1"/>
        <pt x="1371" y="848" on="0"/>
        <pt x="1283" y="907" on="0"/>
        <pt x="1105" y="907" on="0"/>
        <pt x="1012" y="841" on="0"/>
        <pt x="1012" y="760" on="1"/>
      </contour>
      <contour>
        <pt x="373" y="293" on="1"/>
        <pt x="373" y="229" on="0"/>
        <pt x="448" y="157" on="0"/>
        <pt x="575" y="157" on="0"/>
        <pt x="705" y="207" on="0"/>
        <pt x="739" y="259" on="1"/>
        <pt x="739" y="520" on="1"/>
        <pt x="700" y="487" on="0"/>
        <pt x="373" y="413" on="0"/>
      </contour>
      <contour>
        <pt x="1012" y="321" on="1"/>
        <pt x="1012" y="166" on="0"/>
        <pt x="1171" y="166" on="1"/>
        <pt x="1241" y="166" on="0"/>
        <pt x="1270" y="172" on="1"/>
        <pt x="1300" y="177" on="0"/>
        <pt x="1324" y="196" on="1"/>
        <pt x="1369" y="231" on="0"/>
        <pt x="1370" y="353" on="1"/>
        <pt x="1622" y="353" on="1"/>
        <pt x="1618" y="173" on="0"/>
        <pt x="1552" y="90" on="1"/>
        <pt x="1486" y="6" on="0"/>
        <pt x="1342" y="-14" on="1"/>
        <pt x="1278" y="-23" on="0"/>
        <pt x="1186" y="-23" on="1"/>
        <pt x="929" y="-23" on="0"/>
        <pt x="847" y="130" on="1"/>
        <pt x="757" y="51" on="0"/>
        <pt x="564" y="-23" on="0"/>
        <pt x="282" y="-23" on="0"/>
        <pt x="112" y="138" on="0"/>
        <pt x="112" y="424" on="0"/>
        <pt x="198" y="486" on="1"/>
        <pt x="284" y="550" on="0"/>
        <pt x="520" y="604" on="1"/>
        <pt x="648" y="634" on="0"/>
        <pt x="680" y="650" on="1"/>
        <pt x="739" y="680" on="0"/>
        <pt x="739" y="770" on="1"/>
        <pt x="739" y="908" on="0"/>
        <pt x="567" y="908" on="1"/>
        <pt x="472" y="908" on="0"/>
        <pt x="400" y="826" on="0"/>
        <pt x="400" y="755" on="1"/>
        <pt x="400" y="719" on="1"/>
        <pt x="144" y="719" on="1"/>
        <pt x="144" y="745" on="1"/>
        <pt x="144" y="907" on="0"/>
        <pt x="359" y="1097" on="0"/>
        <pt x="573" y="1097" on="1"/>
        <pt x="679" y="1097" on="0"/>
        <pt x="844" y="1031" on="0"/>
        <pt x="878" y="967" on="1"/>
        <pt x="984" y="1097" on="0"/>
        <pt x="1202" y="1097" on="1"/>
        <pt x="1624" y="1097" on="0"/>
        <pt x="1624" y="745" on="1"/>
        <pt x="1624" y="514" on="1"/>
        <pt x="1012" y="514" on="1"/>
      </contour>
    </TTGlyph>
    <TTGlyph name="aeacute" xMin="112" yMin="-23" xMax="1624" yMax="1646">
      <component glyphName="acute" x="688" y="124" flags="0x1004"/>
      <component glyphName="ae" x="0" y="0" flags="0x1204"/>
    </TTGlyph>
    <TTGlyph name="agrave" xMin="112" yMin="-23" xMax="1090" yMax="1646">
      <component glyphName="grave" x="210" y="124" flags="0x1004"/>
      <component glyphName="a" x="0" y="0" flags="0x1204"/>
    </TTGlyph>
    <TTGlyph name="amacron" xMin="112" yMin="-23" xMax="1090" yMax="1438">
      <component glyphName="uni02C9" x="398" y="30" flags="0x1004"/>
      <component glyphName="a" x="0" y="0" flags="0x1204"/>
    </TTGlyph>
    <TTGlyph name="ampersand" xMin="148" yMin="-27" xMax="1474" yMax="1506">
      <contour>
        <pt x="828" y="195" on="0"/>
        <pt x="967" y="221" on="0"/>
        <pt x="993" y="279" on="1"/>
        <pt x="559" y="704" on="1"/>
        <pt x="430" y="668" on="0"/>
        <pt x="423" y="560" on="1"/>
        <pt x="420" y="511" on="0"/>
        <pt x="420" y="448" on="1"/>
        <pt x="420" y="311" on="0"/>
        <pt x="545" y="195" on="0"/>
      </contour>
      <contour>
        <pt x="1128" y="36" on="0"/>
        <pt x="918" y="-27" on="0"/>
        <pt x="511" y="-27" on="0"/>
        <pt x="257" y="72" on="0"/>
        <pt x="148" y="280" on="0"/>
        <pt x="148" y="609" on="0"/>
        <pt x="284" y="781" on="0"/>
        <pt x="432" y="825" on="1"/>
        <pt x="343" y="907" on="0"/>
        <pt x="257" y="1058" on="0"/>
        <pt x="257" y="1165" on="1"/>
        <pt x="257" y="1341" on="0"/>
        <pt x="485" y="1506" on="0"/>
        <pt x="1017" y="1506" on="0"/>
        <pt x="1238" y="1368" on="0"/>
        <pt x="1238" y="1193" on="1"/>
        <pt x="1238" y="1110" on="1"/>
        <pt x="1000" y="1110" on="1"/>
        <pt x="1000" y="1152" on="1"/>
        <pt x="1000" y="1242" on="0"/>
        <pt x="935" y="1293" on="0"/>
        <pt x="837" y="1305" on="0"/>
        <pt x="761" y="1305" on="1"/>
        <pt x="611" y="1305" on="0"/>
        <pt x="521" y="1224" on="0"/>
        <pt x="521" y="1094" on="0"/>
        <pt x="562" y="1030" on="0"/>
        <pt x="638" y="951" on="1"/>
        <pt x="1095" y="500" on="1"/>
        <pt x="1096" y="514" on="0"/>
        <pt x="1096" y="531" on="1"/>
        <pt x="1096" y="822" on="1"/>
        <pt x="1331" y="822" on="1"/>
        <pt x="1331" y="549" on="1"/>
        <pt x="1331" y="393" on="0"/>
        <pt x="1305" y="309" on="1"/>
        <pt x="1474" y="150" on="1"/>
        <pt x="1314" y="-23" on="1"/>
        <pt x="1186" y="103" on="1"/>
      </contour>
    </TTGlyph>
    <TTGlyph name="aogonek" xMin="112" yMin="-503" xMax="1149" yMax="1097">
      <component glyphName="ogonek" x="727" y="5" flags="0x1004"/>
      <component glyphName="a" x="0" y="0" flags="0x1004"/>
    </TTGlyph>
    <TTGlyph name="approxequal" xMin="60" yMin="738" xMax="964" yMax="1436">
      <contour>
        <pt x="624" y="940" on="1"/>
        <pt x="700" y="906" on="0"/>
        <pt x="732" y="905" on="1"/>
        <pt x="855" y="905" on="0"/>
        <pt x="855" y="1027" on="1"/>
        <pt x="964" y="1027" on="1"/>
        <pt x="964" y="891" on="0"/>
        <pt x="827" y="738" on="0"/>
        <pt x="727" y="738" on="1"/>
        <pt x="626" y="738" on="0"/>
        <pt x="398" y="842" on="1"/>
        <pt x="322" y="876" on="0"/>
        <pt x="292" y="877" on="1"/>
        <pt x="168" y="877" on="0"/>
        <pt x="168" y="754" on="1"/>
        <pt x="60" y="754" on="1"/>
        <pt x="60" y="891" on="0"/>
        <pt x="196" y="1043" on="0"/>
        <pt x="394" y="1044" on="0"/>
      </contour>
      <contour>
        <pt x="624" y="1332" on="1"/>
        <pt x="700" y="1298" on="0"/>
        <pt x="732" y="1298" on="1"/>
        <pt x="855" y="1298" on="0"/>
        <pt x="855" y="1420" on="1"/>
        <pt x="964" y="1420" on="1"/>
        <pt x="964" y="1284" on="0"/>
        <pt x="827" y="1131" on="0"/>
        <pt x="620" y="1131" on="0"/>
        <pt x="336" y="1270" on="0"/>
        <pt x="292" y="1270" on="1"/>
        <pt x="168" y="1270" on="0"/>
        <pt x="168" y="1147" on="1"/>
        <pt x="60" y="1147" on="1"/>
        <pt x="60" y="1284" on="0"/>
        <pt x="196" y="1436" on="0"/>
        <pt x="394" y="1436" on="0"/>
      </contour>
    </TTGlyph>
    <TTGlyph name="aring" xMin="112" yMin="-23" xMax="1090" yMax="1706">
      <component glyphName="ring" x="305" y="212" flags="0x1004"/>
      <component glyphName="a" x="0" y="0" flags="0x1204"/>
    </TTGlyph>
    <TTGlyph name="aringacute" xMin="112" yMin="-23" xMax="1090" yMax="2255">
      <component glyphName="acute" x="420" y="733" flags="0x1004"/>
      <component glyphName="aring" x="0" y="0" flags="0x1204"/>
    </TTGlyph>
    <TTGlyph name="asciicircum" xMin="80" yMin="511" xMax="1153" yMax="1283">
      <contour>
        <pt x="80" y="511" on="1"/>
        <pt x="486" y="1283" on="1"/>
        <pt x="745" y="1283" on="1"/>
        <pt x="1153" y="511" on="1"/>
        <pt x="926" y="511" on="1"/>
        <pt x="622" y="1112" on="1"/>
        <pt x="317" y="511" on="1"/>
      </contour>
    </TTGlyph>
    <TTGlyph name="asciitilde" xMin="90" yMin="1131" xMax="934" yMax="1466">
      <contour>
        <pt x="332" y="1466" on="1"/>
        <pt x="384" y="1466" on="0"/>
        <pt x="502" y="1414" on="0"/>
        <pt x="544" y="1382" on="1"/>
        <pt x="656" y="1298" on="0"/>
        <pt x="764" y="1298" on="0"/>
        <pt x="825" y="1389" on="0"/>
        <pt x="825" y="1450" on="1"/>
        <pt x="934" y="1450" on="1"/>
        <pt x="934" y="1311" on="0"/>
        <pt x="794" y="1131" on="0"/>
        <pt x="593" y="1131" on="0"/>
        <pt x="364" y="1300" on="0"/>
        <pt x="259" y="1300" on="0"/>
        <pt x="198" y="1208" on="0"/>
        <pt x="198" y="1147" on="1"/>
        <pt x="90" y="1147" on="1"/>
        <pt x="90" y="1287" on="0"/>
        <pt x="229" y="1466" on="0"/>
      </contour>
    </TTGlyph>
    <TTGlyph name="asterisk" xMin="86" yMin="599" xMax="912" yMax="1446">
      <contour>
        <pt x="410" y="599" on="1"/>
        <pt x="439" y="924" on="1"/>
        <pt x="166" y="750" on="1"/>
        <pt x="86" y="911" on="1"/>
        <pt x="376" y="1028" on="1"/>
        <pt x="96" y="1170" on="1"/>
        <pt x="191" y="1323" on="1"/>
        <pt x="438" y="1133" on="1"/>
        <pt x="410" y="1446" on="1"/>
        <pt x="588" y="1446" on="1"/>
        <pt x="558" y="1121" on="1"/>
        <pt x="831" y="1295" on="1"/>
        <pt x="912" y="1134" on="1"/>
        <pt x="621" y="1017" on="1"/>
        <pt x="901" y="875" on="1"/>
        <pt x="806" y="722" on="1"/>
        <pt x="559" y="912" on="1"/>
        <pt x="588" y="599" on="1"/>
      </contour>
    </TTGlyph>
    <TTGlyph name="at" xMin="240" yMin="-477" xMax="1868" yMax="1523">
      <contour>
        <pt x="1209" y="666" on="1"/>
        <pt x="1076" y="630" on="0"/>
        <pt x="982" y="528" on="0"/>
        <pt x="982" y="350" on="0"/>
        <pt x="1097" y="267" on="0"/>
        <pt x="1280" y="267" on="0"/>
        <pt x="1485" y="339" on="0"/>
        <pt x="1492" y="377" on="1"/>
        <pt x="1492" y="744" on="1"/>
        <pt x="1489" y="742" on="0"/>
        <pt x="1249" y="676" on="0"/>
      </contour>
      <contour>
        <pt x="1084" y="-477" on="1"/>
        <pt x="240" y="-477" on="0"/>
        <pt x="240" y="348" on="1"/>
        <pt x="240" y="770" on="1"/>
        <pt x="240" y="1147" on="0"/>
        <pt x="607" y="1523" on="0"/>
        <pt x="1433" y="1523" on="0"/>
        <pt x="1759" y="1220" on="0"/>
        <pt x="1759" y="863" on="1"/>
        <pt x="1761" y="394" on="1"/>
        <pt x="1761" y="315" on="0"/>
        <pt x="1799" y="259" on="0"/>
        <pt x="1868" y="259" on="1"/>
        <pt x="1848" y="59" on="1"/>
        <pt x="1742" y="59" on="1"/>
        <pt x="1618" y="60" on="0"/>
        <pt x="1566" y="122" on="1"/>
        <pt x="1541" y="153" on="0"/>
        <pt x="1516" y="208" on="1"/>
        <pt x="1468" y="141" on="0"/>
        <pt x="1254" y="53" on="0"/>
        <pt x="1136" y="53" on="1"/>
        <pt x="962" y="53" on="0"/>
        <pt x="729" y="253" on="0"/>
        <pt x="729" y="428" on="1"/>
        <pt x="729" y="531" on="0"/>
        <pt x="794" y="644" on="0"/>
        <pt x="838" y="678" on="1"/>
        <pt x="937" y="755" on="0"/>
        <pt x="1141" y="809" on="1"/>
        <pt x="1491" y="895" on="1"/>
        <pt x="1491" y="1103" on="0"/>
        <pt x="1392" y="1257" on="0"/>
        <pt x="1214" y="1320" on="0"/>
        <pt x="974" y="1320" on="0"/>
        <pt x="910" y="1314" on="1"/>
        <pt x="759" y="1301" on="0"/>
        <pt x="581" y="1188" on="0"/>
        <pt x="495" y="949" on="0"/>
        <pt x="495" y="741" on="1"/>
        <pt x="495" y="363" on="1"/>
        <pt x="494" y="-42" on="0"/>
        <pt x="744" y="-178" on="1"/>
        <pt x="886" y="-256" on="0"/>
        <pt x="1285" y="-256" on="0"/>
        <pt x="1573" y="-200" on="0"/>
        <pt x="1697" y="-174" on="0"/>
        <pt x="1707" y="-172" on="1"/>
        <pt x="1765" y="-375" on="1"/>
        <pt x="1376" y="-477" on="0"/>
      </contour>
    </TTGlyph>
    <TTGlyph name="atilde" xMin="112" yMin="-23" xMax="1090" yMax="1558">
      <component glyphName="tilde" x="222" y="50" flags="0x1004"/>
      <component glyphName="a" x="0" y="0" flags="0x1204"/>
    </TTGlyph>
    <TTGlyph name="b" xMin="160" yMin="-23" xMax="1082" yMax="1516">
      <contour>
        <pt x="810" y="758" on="1"/>
        <pt x="810" y="907" on="0"/>
        <pt x="626" y="907" on="1"/>
        <pt x="536" y="907" on="0"/>
        <pt x="432" y="857" on="1"/>
        <pt x="432" y="216" on="1"/>
        <pt x="494" y="168" on="0"/>
        <pt x="598" y="168" on="1"/>
        <pt x="810" y="168" on="0"/>
        <pt x="810" y="323" on="1"/>
      </contour>
      <contour>
        <pt x="1082" y="171" on="0"/>
        <pt x="849" y="-23" on="0"/>
        <pt x="506" y="-23" on="0"/>
        <pt x="374" y="65" on="1"/>
        <pt x="347" y="0" on="1"/>
        <pt x="160" y="0" on="1"/>
        <pt x="160" y="1516" on="1"/>
        <pt x="432" y="1516" on="1"/>
        <pt x="432" y="1040" on="1"/>
        <pt x="540" y="1097" on="0"/>
        <pt x="650" y="1097" on="1"/>
        <pt x="921" y="1097" on="0"/>
        <pt x="1020" y="957" on="1"/>
        <pt x="1082" y="869" on="0"/>
        <pt x="1082" y="753" on="1"/>
        <pt x="1082" y="329" on="1"/>
      </contour>
    </TTGlyph>
    <TTGlyph name="backslash" xMin="106" yMin="0" xMax="918" yMax="1516">
      <contour>
        <pt x="675" y="0" on="1"/>
        <pt x="106" y="1516" on="1"/>
        <pt x="349" y="1516" on="1"/>
        <pt x="918" y="0" on="1"/>
      </contour>
    </TTGlyph>
    <TTGlyph name="bar" xMin="262" yMin="-126" xMax="506" yMax="1608">
      <contour>
        <pt x="262" y="-126" on="1"/>
        <pt x="262" y="1608" on="1"/>
        <pt x="506" y="1608" on="1"/>
        <pt x="506" y="-126" on="1"/>
      </contour>
    </TTGlyph>
    <TTGlyph name="braceleft" xMin="188" yMin="-128" xMax="846" yMax="1556">
      <contour>
        <pt x="846" y="-128" on="1"/>
        <pt x="704" y="-128" on="0"/>
        <pt x="525" y="-83" on="0"/>
        <pt x="419" y="29" on="0"/>
        <pt x="379" y="192" on="0"/>
        <pt x="379" y="322" on="1"/>
        <pt x="379" y="409" on="1"/>
        <pt x="379" y="529" on="0"/>
        <pt x="298" y="595" on="0"/>
        <pt x="188" y="595" on="1"/>
        <pt x="188" y="833" on="1"/>
        <pt x="300" y="833" on="0"/>
        <pt x="379" y="915" on="0"/>
        <pt x="379" y="1036" on="1"/>
        <pt x="379" y="1139" on="1"/>
        <pt x="379" y="1286" on="0"/>
        <pt x="415" y="1406" on="0"/>
        <pt x="449" y="1466" on="0"/>
        <pt x="493" y="1498" on="1"/>
        <pt x="572" y="1556" on="0"/>
        <pt x="846" y="1556" on="1"/>
        <pt x="846" y="1469" on="0"/>
        <pt x="846" y="1426" on="1"/>
        <pt x="846" y="1382" on="1"/>
        <pt x="779" y="1382" on="0"/>
        <pt x="706" y="1369" on="0"/>
        <pt x="667" y="1325" on="0"/>
        <pt x="658" y="1268" on="0"/>
        <pt x="658" y="1210" on="1"/>
        <pt x="658" y="1080" on="1"/>
        <pt x="658" y="773" on="0"/>
        <pt x="498" y="722" on="1"/>
        <pt x="585" y="691" on="0"/>
        <pt x="659" y="522" on="0"/>
        <pt x="659" y="369" on="1"/>
        <pt x="659" y="252" on="1"/>
        <pt x="659" y="188" on="0"/>
        <pt x="669" y="122" on="0"/>
        <pt x="706" y="66" on="0"/>
        <pt x="781" y="46" on="0"/>
        <pt x="846" y="46" on="1"/>
      </contour>
    </TTGlyph>
    <TTGlyph name="braceright" xMin="174" yMin="-117" xMax="832" yMax="1567">
      <contour>
        <pt x="363" y="360" on="1"/>
        <pt x="363" y="667" on="0"/>
        <pt x="523" y="718" on="1"/>
        <pt x="436" y="749" on="0"/>
        <pt x="362" y="917" on="0"/>
        <pt x="362" y="1071" on="1"/>
        <pt x="362" y="1187" on="1"/>
        <pt x="362" y="1336" on="0"/>
        <pt x="271" y="1393" on="0"/>
        <pt x="175" y="1393" on="1"/>
        <pt x="175" y="1567" on="1"/>
        <pt x="317" y="1567" on="0"/>
        <pt x="496" y="1522" on="0"/>
        <pt x="602" y="1411" on="0"/>
        <pt x="642" y="1248" on="0"/>
        <pt x="642" y="1118" on="1"/>
        <pt x="642" y="1030" on="1"/>
        <pt x="642" y="912" on="0"/>
        <pt x="683" y="876" on="1"/>
        <pt x="707" y="856" on="0"/>
        <pt x="773" y="844" on="0"/>
        <pt x="832" y="844" on="1"/>
        <pt x="832" y="606" on="1"/>
        <pt x="721" y="606" on="0"/>
        <pt x="642" y="524" on="0"/>
        <pt x="642" y="404" on="1"/>
        <pt x="642" y="300" on="1"/>
        <pt x="642" y="153" on="0"/>
        <pt x="606" y="33" on="0"/>
        <pt x="572" y="-27" on="0"/>
        <pt x="528" y="-59" on="1"/>
        <pt x="449" y="-117" on="0"/>
        <pt x="175" y="-117" on="1"/>
        <pt x="175" y="-30" on="0"/>
        <pt x="174" y="57" on="0"/>
        <pt x="175" y="57" on="1"/>
        <pt x="242" y="57" on="0"/>
        <pt x="315" y="70" on="0"/>
        <pt x="354" y="114" on="0"/>
        <pt x="363" y="171" on="0"/>
        <pt x="363" y="229" on="1"/>
      </contour>
    </TTGlyph>
    <TTGlyph name="bracketleft" xMin="212" yMin="-89" xMax="694" yMax="1592">
      <contour>
        <pt x="212" y="-89" on="1"/>
        <pt x="212" y="1592" on="1"/>
        <pt x="694" y="1592" on="1"/>
        <pt x="694" y="1431" on="1"/>
        <pt x="485" y="1431" on="1"/>
        <pt x="485" y="72" on="1"/>
        <pt x="694" y="72" on="1"/>
        <pt x="694" y="-89" on="1"/>
      </contour>
    </TTGlyph>
    <TTGlyph name="bracketright" xMin="146" yMin="-89" xMax="628" yMax="1592">
      <contour>
        <pt x="146" y="-89" on="1"/>
        <pt x="146" y="72" on="1"/>
        <pt x="356" y="72" on="1"/>
        <pt x="356" y="1431" on="1"/>
        <pt x="146" y="1431" on="1"/>
        <pt x="146" y="1592" on="1"/>
        <pt x="628" y="1592" on="1"/>
        <pt x="628" y="-89" on="1"/>
      </contour>
    </TTGlyph>
    <TTGlyph name="breve" xMin="30" yMin="1291" xMax="502" yMax="1516">
      <contour>
        <pt x="372" y="1291" on="0"/>
        <pt x="160" y="1291" on="0"/>
        <pt x="30" y="1422" on="0"/>
        <pt x="30" y="1516" on="1"/>
        <pt x="154" y="1516" on="1"/>
        <pt x="154" y="1464" on="0"/>
        <pt x="219" y="1404" on="0"/>
        <pt x="313" y="1404" on="0"/>
        <pt x="378" y="1464" on="0"/>
        <pt x="378" y="1516" on="1"/>
        <pt x="502" y="1516" on="1"/>
        <pt x="502" y="1422" on="0"/>
      </contour>
    </TTGlyph>
    <TTGlyph name="brokenbar" xMin="280" yMin="-120" xMax="489" yMax="1476">
      <contour>
        <pt x="280" y="800" on="1"/>
        <pt x="280" y="1476" on="1"/>
        <pt x="489" y="1476" on="1"/>
        <pt x="489" y="800" on="1"/>
      </contour>
      <contour>
        <pt x="280" y="-120" on="1"/>
        <pt x="280" y="590" on="1"/>
        <pt x="489" y="590" on="1"/>
        <pt x="489" y="-120" on="1"/>
      </contour>
    </TTGlyph>
    <TTGlyph name="bullet" xMin="192" yMin="390" xMax="832" yMax="1025">
      <contour>
        <pt x="654" y="390" on="0"/>
        <pt x="368" y="390" on="0"/>
        <pt x="192" y="568" on="0"/>
        <pt x="192" y="846" on="0"/>
        <pt x="369" y="1025" on="0"/>
        <pt x="655" y="1025" on="0"/>
        <pt x="832" y="846" on="0"/>
        <pt x="832" y="568" on="0"/>
      </contour>
    </TTGlyph>
    <TTGlyph name="c" xMin="124" yMin="-23" xMax="1009" yMax="1097">
      <contour>
        <pt x="584" y="-23" on="1"/>
        <pt x="272" y="-23" on="0"/>
        <pt x="181" y="117" on="1"/>
        <pt x="124" y="203" on="0"/>
        <pt x="124" y="327" on="1"/>
        <pt x="124" y="757" on="1"/>
        <pt x="124" y="918" on="0"/>
        <pt x="358" y="1097" on="0"/>
        <pt x="790" y="1097" on="0"/>
        <pt x="1009" y="926" on="0"/>
        <pt x="1009" y="699" on="1"/>
        <pt x="753" y="679" on="1"/>
        <pt x="753" y="824" on="0"/>
        <pt x="718" y="866" on="1"/>
        <pt x="697" y="892" on="0"/>
        <pt x="666" y="900" on="1"/>
        <pt x="636" y="907" on="0"/>
        <pt x="562" y="907" on="1"/>
        <pt x="396" y="907" on="0"/>
        <pt x="396" y="756" on="1"/>
        <pt x="396" y="322" on="1"/>
        <pt x="396" y="238" on="0"/>
        <pt x="483" y="168" on="0"/>
        <pt x="654" y="168" on="0"/>
        <pt x="724" y="199" on="0"/>
        <pt x="754" y="286" on="0"/>
        <pt x="754" y="380" on="1"/>
        <pt x="1008" y="380" on="1"/>
        <pt x="1006" y="262" on="0"/>
        <pt x="986" y="188" on="1"/>
        <pt x="966" y="116" on="0"/>
        <pt x="916" y="66" on="1"/>
        <pt x="826" y="-22" on="0"/>
      </contour>
    </TTGlyph>
    <TTGlyph name="cacute" xMin="124" yMin="-23" xMax="1009" yMax="1646">
      <component glyphName="acute" x="386" y="124" flags="0x1004"/>
      <component glyphName="c" x="0" y="0" flags="0x1204"/>
    </TTGlyph>
    <TTGlyph name="caron" xMin="-30" yMin="1216" xMax="589" yMax="1516">
      <contour>
        <pt x="192" y="1216" on="1"/>
        <pt x="-30" y="1516" on="1"/>
        <pt x="145" y="1516" on="1"/>
        <pt x="273" y="1341" on="1"/>
        <pt x="409" y="1516" on="1"/>
        <pt x="589" y="1516" on="1"/>
        <pt x="355" y="1216" on="1"/>
      </contour>
    </TTGlyph>
    <TTGlyph name="ccaron" xMin="124" yMin="-23" xMax="1009" yMax="1581">
      <component glyphName="caron" x="287" y="65" flags="0x1004"/>
      <component glyphName="c" x="0" y="0" flags="0x1204"/>
    </TTGlyph>
    <TTGlyph name="ccedilla" xMin="124" yMin="-501" xMax="1009" yMax="1097">
      <component glyphName="cedilla" x="372" y="-7" flags="0x1004"/>
      <component glyphName="c" x="0" y="0" flags="0x1204"/>
    </TTGlyph>
    <TTGlyph name="ccircumflex" xMin="124" yMin="-23" xMax="1009" yMax="1581">
      <component glyphName="circumflex" x="287" y="65" flags="0x1004"/>
      <component glyphName="c" x="0" y="0" flags="0x1204"/>
    </TTGlyph>
    <TTGlyph name="cdotaccent" xMin="124" yMin="-23" xMax="1009" yMax="1528">
      <component glyphName="uni0307" x="326" y="30" flags="0x1004"/>
      <component glyphName="c" x="0" y="0" flags="0x1204"/>
    </TTGlyph>
    <TTGlyph name="cedilla" xMin="120" yMin="-494" xMax="460" yMax="0">
      <contour>
        <pt x="215" y="-494" on="1"/>
        <pt x="165" y="-494" on="0"/>
        <pt x="120" y="-485" on="1"/>
        <pt x="120" y="-368" on="1"/>
        <pt x="154" y="-375" on="0"/>
        <pt x="242" y="-375" on="0"/>
        <pt x="302" y="-328" on="0"/>
        <pt x="302" y="-244" on="0"/>
        <pt x="226" y="-174" on="0"/>
        <pt x="157" y="-172" on="1"/>
        <pt x="157" y="0" on="1"/>
        <pt x="233" y="0" on="1"/>
        <pt x="239" y="-101" on="1"/>
        <pt x="344" y="-120" on="0"/>
        <pt x="460" y="-239" on="0"/>
        <pt x="460" y="-387" on="0"/>
        <pt x="332" y="-494" on="0"/>
      </contour>
    </TTGlyph>
    <TTGlyph name="cent" xMin="124" yMin="-214" xMax="1009" yMax="1291">
      <contour>
        <pt x="538" y="-22" on="1"/>
        <pt x="186" y="-11" on="0"/>
        <pt x="134" y="222" on="1"/>
        <pt x="124" y="269" on="0"/>
        <pt x="124" y="327" on="1"/>
        <pt x="124" y="757" on="1"/>
        <pt x="124" y="912" on="0"/>
        <pt x="341" y="1089" on="0"/>
        <pt x="538" y="1096" on="1"/>
        <pt x="538" y="1291" on="1"/>
        <pt x="631" y="1291" on="1"/>
        <pt x="631" y="1095" on="1"/>
        <pt x="825" y="1085" on="0"/>
        <pt x="1009" y="906" on="0"/>
        <pt x="1009" y="699" on="1"/>
        <pt x="753" y="679" on="1"/>
        <pt x="752" y="805" on="0"/>
        <pt x="703" y="898" on="0"/>
        <pt x="631" y="905" on="1"/>
        <pt x="631" y="170" on="1"/>
        <pt x="704" y="177" on="0"/>
        <pt x="754" y="261" on="0"/>
        <pt x="754" y="380" on="1"/>
        <pt x="1008" y="380" on="1"/>
        <pt x="1006" y="269" on="0"/>
        <pt x="970" y="127" on="0"/>
        <pt x="884" y="27" on="0"/>
        <pt x="742" y="-18" on="0"/>
        <pt x="631" y="-22" on="1"/>
        <pt x="631" y="-214" on="1"/>
        <pt x="538" y="-214" on="1"/>
      </contour>
      <contour>
        <pt x="538" y="905" on="1"/>
        <pt x="396" y="891" on="0"/>
        <pt x="396" y="756" on="1"/>
        <pt x="396" y="322" on="1"/>
        <pt x="396" y="248" on="0"/>
        <pt x="465" y="177" on="0"/>
        <pt x="538" y="170" on="1"/>
      </contour>
    </TTGlyph>
    <TTGlyph name="circumflex" xMin="-30" yMin="1216" xMax="589" yMax="1516">
      <contour>
        <pt x="-30" y="1216" on="1"/>
        <pt x="204" y="1516" on="1"/>
        <pt x="367" y="1516" on="1"/>
        <pt x="589" y="1216" on="1"/>
        <pt x="414" y="1216" on="1"/>
        <pt x="286" y="1391" on="1"/>
        <pt x="150" y="1216" on="1"/>
      </contour>
    </TTGlyph>
    <TTGlyph name="colon" xMin="241" yMin="197" xMax="539" yMax="1138">
      <contour>
        <pt x="241" y="197" on="1"/>
        <pt x="241" y="481" on="1"/>
        <pt x="539" y="481" on="1"/>
        <pt x="539" y="197" on="1"/>
      </contour>
      <contour>
        <pt x="241" y="854" on="1"/>
        <pt x="241" y="1138" on="1"/>
        <pt x="539" y="1138" on="1"/>
        <pt x="539" y="854" on="1"/>
      </contour>
    </TTGlyph>
    <TTGlyph name="comma" xMin="223" yMin="-389" xMax="545" yMax="276">
      <contour>
        <pt x="349" y="-389" on="1"/>
        <pt x="242" y="-343" on="1"/>
        <pt x="293" y="-285" on="0"/>
        <pt x="388" y="-92" on="0"/>
        <pt x="388" y="0" on="1"/>
        <pt x="223" y="0" on="1"/>
        <pt x="223" y="276" on="1"/>
        <pt x="545" y="276" on="1"/>
        <pt x="545" y="53" on="1"/>
        <pt x="545" y="-80" on="0"/>
        <pt x="413" y="-331" on="0"/>
      </contour>
    </TTGlyph>
    <TTGlyph name="copyright" xMin="152" yMin="-14" xMax="1624" yMax="1456">
      <contour>
        <pt x="1315" y="99" on="0"/>
        <pt x="1042" y="-14" on="0"/>
        <pt x="684" y="-14" on="0"/>
        <pt x="347" y="178" on="0"/>
        <pt x="152" y="516" on="0"/>
        <pt x="152" y="927" on="0"/>
        <pt x="347" y="1264" on="0"/>
        <pt x="684" y="1456" on="0"/>
        <pt x="1093" y="1456" on="0"/>
        <pt x="1431" y="1264" on="0"/>
        <pt x="1624" y="927" on="0"/>
        <pt x="1624" y="567" on="0"/>
        <pt x="1510" y="294" on="0"/>
      </contour>
      <contour>
        <pt x="422" y="249" on="0"/>
        <pt x="711" y="82" on="0"/>
        <pt x="1070" y="82" on="0"/>
        <pt x="1358" y="249" on="0"/>
        <pt x="1518" y="541" on="0"/>
        <pt x="1518" y="902" on="0"/>
        <pt x="1358" y="1194" on="0"/>
        <pt x="1070" y="1361" on="0"/>
        <pt x="711" y="1361" on="0"/>
        <pt x="422" y="1194" on="0"/>
        <pt x="261" y="902" on="0"/>
        <pt x="261" y="542" on="0"/>
      </contour>
      <contour>
        <pt x="690" y="287" on="0"/>
        <pt x="547" y="449" on="0"/>
        <pt x="547" y="590" on="1"/>
        <pt x="547" y="868" on="1"/>
        <pt x="547" y="1104" on="0"/>
        <pt x="722" y="1160" on="1"/>
        <pt x="794" y="1182" on="0"/>
        <pt x="896" y="1182" on="1"/>
        <pt x="1099" y="1182" on="0"/>
        <pt x="1224" y="1007" on="0"/>
        <pt x="1224" y="861" on="1"/>
        <pt x="1224" y="836" on="1"/>
        <pt x="1108" y="826" on="1"/>
        <pt x="1108" y="890" on="1"/>
        <pt x="1108" y="1003" on="0"/>
        <pt x="1013" y="1091" on="0"/>
        <pt x="780" y="1091" on="0"/>
        <pt x="667" y="1000" on="0"/>
        <pt x="667" y="890" on="1"/>
        <pt x="667" y="571" on="1"/>
        <pt x="667" y="462" on="0"/>
        <pt x="779" y="376" on="0"/>
        <pt x="1016" y="376" on="0"/>
        <pt x="1108" y="459" on="0"/>
        <pt x="1108" y="571" on="1"/>
        <pt x="1108" y="632" on="1"/>
        <pt x="1224" y="632" on="1"/>
        <pt x="1224" y="598" on="1"/>
        <pt x="1224" y="481" on="0"/>
        <pt x="1168" y="372" on="0"/>
        <pt x="1133" y="346" on="1"/>
        <pt x="1056" y="288" on="0"/>
      </contour>
    </TTGlyph>
    <TTGlyph name="currency" xMin="124" yMin="381" xMax="1002" yMax="1067">
      <contour>
        <pt x="368" y="641" on="0"/>
        <pt x="467" y="528" on="0"/>
        <pt x="651" y="528" on="0"/>
        <pt x="748" y="641" on="0"/>
        <pt x="748" y="805" on="0"/>
        <pt x="651" y="918" on="0"/>
        <pt x="467" y="918" on="0"/>
        <pt x="368" y="805" on="0"/>
      </contour>
      <contour>
        <pt x="811" y="485" on="1"/>
        <pt x="715" y="381" on="0"/>
        <pt x="403" y="381" on="0"/>
        <pt x="309" y="480" on="1"/>
        <pt x="174" y="383" on="1"/>
        <pt x="126" y="467" on="1"/>
        <pt x="254" y="559" on="1"/>
        <pt x="216" y="633" on="0"/>
        <pt x="216" y="812" on="0"/>
        <pt x="256" y="892" on="1"/>
        <pt x="124" y="987" on="1"/>
        <pt x="177" y="1067" on="1"/>
        <pt x="311" y="968" on="1"/>
        <pt x="405" y="1064" on="0"/>
        <pt x="716" y="1064" on="0"/>
        <pt x="809" y="964" on="1"/>
        <pt x="952" y="1067" on="1"/>
        <pt x="999" y="986" on="1"/>
        <pt x="862" y="886" on="1"/>
        <pt x="899" y="812" on="0"/>
        <pt x="899" y="633" on="0"/>
        <pt x="864" y="563" on="1"/>
        <pt x="1002" y="465" on="1"/>
        <pt x="950" y="384" on="1"/>
      </contour>
    </TTGlyph>
    <TTGlyph name="d" xMin="124" yMin="-23" xMax="1042" yMax="1516">
      <contour>
        <pt x="396" y="240" on="0"/>
        <pt x="490" y="168" on="0"/>
        <pt x="698" y="168" on="0"/>
        <pt x="770" y="211" on="1"/>
        <pt x="770" y="870" on="1"/>
        <pt x="692" y="907" on="0"/>
        <pt x="496" y="907" on="0"/>
        <pt x="396" y="838" on="0"/>
        <pt x="396" y="759" on="1"/>
        <pt x="396" y="320" on="1"/>
      </contour>
      <contour>
        <pt x="551" y="-23" on="1"/>
        <pt x="337" y="-23" on="0"/>
        <pt x="124" y="158" on="0"/>
        <pt x="124" y="324" on="1"/>
        <pt x="124" y="753" on="1"/>
        <pt x="124" y="910" on="0"/>
        <pt x="345" y="1097" on="0"/>
        <pt x="570" y="1097" on="1"/>
        <pt x="666" y="1097" on="0"/>
        <pt x="770" y="1059" on="1"/>
        <pt x="770" y="1516" on="1"/>
        <pt x="1042" y="1516" on="1"/>
        <pt x="1042" y="0" on="1"/>
        <pt x="858" y="0" on="1"/>
        <pt x="829" y="63" on="1"/>
        <pt x="706" y="-23" on="0"/>
      </contour>
    </TTGlyph>
    <TTGlyph name="dagger" xMin="159" yMin="0" xMax="865" yMax="1324">
      <contour>
        <pt x="409" y="0" on="1"/>
        <pt x="409" y="857" on="1"/>
        <pt x="159" y="857" on="1"/>
        <pt x="159" y="1013" on="1"/>
        <pt x="409" y="1013" on="1"/>
        <pt x="409" y="1324" on="1"/>
        <pt x="614" y="1324" on="1"/>
        <pt x="614" y="1013" on="1"/>
        <pt x="865" y="1013" on="1"/>
        <pt x="865" y="857" on="1"/>
        <pt x="614" y="857" on="1"/>
        <pt x="614" y="0" on="1"/>
      </contour>
    </TTGlyph>
    <TTGlyph name="daggerdbl" xMin="219" yMin="0" xMax="806" yMax="1324">
      <contour>
        <pt x="409" y="0" on="1"/>
        <pt x="409" y="383" on="1"/>
        <pt x="219" y="383" on="1"/>
        <pt x="219" y="569" on="1"/>
        <pt x="409" y="569" on="1"/>
        <pt x="409" y="873" on="1"/>
        <pt x="219" y="873" on="1"/>
        <pt x="219" y="1059" on="1"/>
        <pt x="409" y="1059" on="1"/>
        <pt x="409" y="1324" on="1"/>
        <pt x="614" y="1324" on="1"/>
        <pt x="614" y="1059" on="1"/>
        <pt x="806" y="1059" on="1"/>
        <pt x="806" y="873" on="1"/>
        <pt x="614" y="873" on="1"/>
        <pt x="614" y="569" on="1"/>
        <pt x="806" y="569" on="1"/>
        <pt x="806" y="383" on="1"/>
        <pt x="614" y="383" on="1"/>
        <pt x="614" y="0" on="1"/>
      </contour>
    </TTGlyph>
    <TTGlyph name="dcaron" xMin="124" yMin="-23" xMax="1640" yMax="1516">
      <component glyphName="comma" x="1095" y="1240" flags="0x1004"/>
      <component glyphName="d" x="0" y="0" flags="0x1004"/>
    </TTGlyph>
    <TTGlyph name="dcroat" xMin="132" yMin="-23" xMax="1226" yMax="1516">
      <contour>
        <pt x="560" y="-23" on="1"/>
        <pt x="346" y="-23" on="0"/>
        <pt x="132" y="158" on="0"/>
        <pt x="132" y="324" on="1"/>
        <pt x="132" y="753" on="1"/>
        <pt x="132" y="910" on="0"/>
        <pt x="354" y="1097" on="0"/>
        <pt x="579" y="1097" on="1"/>
        <pt x="675" y="1097" on="0"/>
        <pt x="779" y="1059" on="1"/>
        <pt x="779" y="1246" on="1"/>
        <pt x="457" y="1246" on="1"/>
        <pt x="457" y="1360" on="1"/>
        <pt x="779" y="1360" on="1"/>
        <pt x="779" y="1516" on="1"/>
        <pt x="1052" y="1516" on="1"/>
        <pt x="1052" y="1360" on="1"/>
        <pt x="1226" y="1360" on="1"/>
        <pt x="1226" y="1246" on="1"/>
        <pt x="1052" y="1246" on="1"/>
        <pt x="1052" y="0" on="1"/>
        <pt x="867" y="0" on="1"/>
        <pt x="838" y="63" on="1"/>
        <pt x="715" y="-23" on="0"/>
      </contour>
      <contour>
        <pt x="405" y="240" on="0"/>
        <pt x="499" y="168" on="0"/>
        <pt x="707" y="168" on="0"/>
        <pt x="779" y="211" on="1"/>
        <pt x="779" y="870" on="1"/>
        <pt x="701" y="907" on="0"/>
        <pt x="505" y="907" on="0"/>
        <pt x="405" y="838" on="0"/>
        <pt x="405" y="759" on="1"/>
        <pt x="405" y="320" on="1"/>
      </contour>
    </TTGlyph>
    <TTGlyph name="degree" xMin="128" yMin="850" xMax="846" yMax="1511">
      <contour>
        <pt x="128" y="1047" on="0"/>
        <pt x="128" y="1317" on="0"/>
        <pt x="319" y="1511" on="0"/>
        <pt x="657" y="1511" on="0"/>
        <pt x="846" y="1317" on="0"/>
        <pt x="846" y="1044" on="0"/>
        <pt x="657" y="850" on="0"/>
        <pt x="314" y="850" on="0"/>
      </contour>
      <contour>
        <pt x="288" y="1101" on="0"/>
        <pt x="391" y="992" on="0"/>
        <pt x="585" y="992" on="0"/>
        <pt x="688" y="1101" on="0"/>
        <pt x="688" y="1260" on="0"/>
        <pt x="585" y="1370" on="0"/>
        <pt x="391" y="1370" on="0"/>
        <pt x="288" y="1260" on="0"/>
      </contour>
    </TTGlyph>
    <TTGlyph name="dieresis" xMin="115" yMin="1244" xMax="889" yMax="1477">
      <contour>
        <pt x="624" y="1244" on="1"/>
        <pt x="624" y="1477" on="1"/>
        <pt x="889" y="1477" on="1"/>
        <pt x="889" y="1244" on="1"/>
      </contour>
      <contour>
        <pt x="115" y="1244" on="1"/>
        <pt x="115" y="1477" on="1"/>
        <pt x="379" y="1477" on="1"/>
        <pt x="379" y="1244" on="1"/>
      </contour>
    </TTGlyph>
    <TTGlyph name="divide" xMin="112" yMin="94" xMax="892" yMax="1021">
      <contour>
        <pt x="389" y="792" on="1"/>
        <pt x="389" y="1021" on="1"/>
        <pt x="617" y="1021" on="1"/>
        <pt x="617" y="792" on="1"/>
      </contour>
      <contour>
        <pt x="112" y="479" on="1"/>
        <pt x="112" y="642" on="1"/>
        <pt x="892" y="642" on="1"/>
        <pt x="892" y="479" on="1"/>
      </contour>
      <contour>
        <pt x="389" y="94" on="1"/>
        <pt x="389" y="323" on="1"/>
        <pt x="617" y="323" on="1"/>
        <pt x="617" y="94" on="1"/>
      </contour>
    </TTGlyph>
    <TTGlyph name="dollar" xMin="120" yMin="-242" xMax="1169" yMax="1638">
      <contour>
        <pt x="601" y="1264" on="1"/>
        <pt x="434" y="1245" on="0"/>
        <pt x="428" y="1121" on="1"/>
        <pt x="428" y="1113" on="0"/>
        <pt x="428" y="1105" on="1"/>
        <pt x="428" y="1034" on="0"/>
        <pt x="496" y="951" on="0"/>
        <pt x="601" y="918" on="1"/>
      </contour>
      <contour>
        <pt x="711" y="1500" on="1"/>
        <pt x="964" y="1489" on="0"/>
        <pt x="1143" y="1386" on="1"/>
        <pt x="1059" y="1177" on="1"/>
        <pt x="887" y="1259" on="0"/>
        <pt x="711" y="1267" on="1"/>
        <pt x="711" y="885" on="1"/>
        <pt x="870" y="837" on="1"/>
        <pt x="1022" y="791" on="0"/>
        <pt x="1169" y="593" on="0"/>
        <pt x="1169" y="234" on="0"/>
        <pt x="946" y="-20" on="0"/>
        <pt x="711" y="-26" on="1"/>
        <pt x="711" y="-242" on="1"/>
        <pt x="601" y="-242" on="1"/>
        <pt x="601" y="-23" on="1"/>
        <pt x="321" y="-4" on="0"/>
        <pt x="120" y="108" on="1"/>
        <pt x="222" y="325" on="1"/>
        <pt x="402" y="230" on="0"/>
        <pt x="601" y="211" on="1"/>
        <pt x="601" y="634" on="1"/>
        <pt x="442" y="681" on="1"/>
        <pt x="326" y="715" on="0"/>
        <pt x="186" y="842" on="0"/>
        <pt x="136" y="993" on="0"/>
        <pt x="136" y="1091" on="1"/>
        <pt x="136" y="1285" on="0"/>
        <pt x="397" y="1490" on="0"/>
        <pt x="601" y="1500" on="1"/>
        <pt x="601" y="1638" on="1"/>
        <pt x="711" y="1638" on="1"/>
      </contour>
      <contour>
        <pt x="711" y="208" on="1"/>
        <pt x="897" y="219" on="0"/>
        <pt x="897" y="388" on="1"/>
        <pt x="897" y="466" on="0"/>
        <pt x="878" y="499" on="1"/>
        <pt x="839" y="562" on="0"/>
        <pt x="711" y="602" on="1"/>
      </contour>
    </TTGlyph>
    <TTGlyph name="dotaccent" xMin="126" yMin="1251" xMax="384" yMax="1505">
      <contour>
        <pt x="126" y="1251" on="1"/>
        <pt x="126" y="1505" on="1"/>
        <pt x="384" y="1505" on="1"/>
        <pt x="384" y="1251" on="1"/>
      </contour>
    </TTGlyph>
    <TTGlyph name="dotlessi" xMin="166" yMin="0" xMax="438" yMax="1074">
      <contour>
        <pt x="166" y="0" on="1"/>
        <pt x="166" y="1074" on="1"/>
        <pt x="438" y="1074" on="1"/>
        <pt x="438" y="0" on="1"/>
      </contour>
    </TTGlyph>
    <TTGlyph name="e" xMin="124" yMin="-23" xMax="1039" yMax="1097">
      <contour>
        <pt x="396" y="651" on="1"/>
        <pt x="782" y="651" on="1"/>
        <pt x="782" y="777" on="1"/>
        <pt x="782" y="874" on="0"/>
        <pt x="704" y="896" on="1"/>
        <pt x="663" y="908" on="0"/>
        <pt x="496" y="907" on="0"/>
        <pt x="396" y="851" on="0"/>
        <pt x="396" y="772" on="1"/>
      </contour>
      <contour>
        <pt x="402" y="-5" on="1"/>
        <pt x="322" y="12" on="0"/>
        <pt x="258" y="52" on="1"/>
        <pt x="124" y="134" on="0"/>
        <pt x="124" y="336" on="1"/>
        <pt x="124" y="755" on="1"/>
        <pt x="124" y="917" on="0"/>
        <pt x="370" y="1097" on="0"/>
        <pt x="582" y="1097" on="1"/>
        <pt x="1039" y="1097" on="0"/>
        <pt x="1039" y="745" on="1"/>
        <pt x="1039" y="485" on="1"/>
        <pt x="396" y="485" on="1"/>
        <pt x="396" y="310" on="1"/>
        <pt x="396" y="221" on="0"/>
        <pt x="484" y="166" on="0"/>
        <pt x="694" y="166" on="0"/>
        <pt x="713" y="176" on="1"/>
        <pt x="758" y="201" on="0"/>
        <pt x="784" y="272" on="0"/>
        <pt x="786" y="330" on="1"/>
        <pt x="1038" y="330" on="1"/>
        <pt x="1032" y="82" on="0"/>
        <pt x="863" y="16" on="1"/>
        <pt x="764" y="-22" on="0"/>
        <pt x="482" y="-23" on="0"/>
      </contour>
    </TTGlyph>
    <TTGlyph name="eacute" xMin="124" yMin="-23" xMax="1039" yMax="1646">
      <component glyphName="acute" x="401" y="124" flags="0x1004"/>
      <component glyphName="e" x="0" y="0" flags="0x1204"/>
    </TTGlyph>
    <TTGlyph name="ebreve" xMin="124" yMin="-23" xMax="1039" yMax="1506">
      <component glyphName="breve" x="316" y="-10" flags="0x1004"/>
      <component glyphName="e" x="0" y="0" flags="0x1204"/>
    </TTGlyph>
    <TTGlyph name="ecaron" xMin="124" yMin="-23" xMax="1039" yMax="1581">
      <component glyphName="caron" x="302" y="65" flags="0x1004"/>
      <component glyphName="e" x="0" y="0" flags="0x1204"/>
    </TTGlyph>
    <TTGlyph name="ecircumflex" xMin="124" yMin="-23" xMax="1039" yMax="1581">
      <component glyphName="circumflex" x="302" y="65" flags="0x1004"/>
      <component glyphName="e" x="0" y="0" flags="0x1204"/>
    </TTGlyph>
    <TTGlyph name="edieresis" xMin="124" yMin="-23" xMax="1039" yMax="1514">
      <component glyphName="dieresis" x="80" y="37" flags="0x1004"/>
      <component glyphName="e" x="0" y="0" flags="0x1204"/>
    </TTGlyph>
    <TTGlyph name="edotaccent" xMin="124" yMin="-23" xMax="1039" yMax="1528">
      <component glyphName="uni0307" x="340" y="30" flags="0x1004"/>
      <component glyphName="e" x="0" y="0" flags="0x1204"/>
    </TTGlyph>
    <TTGlyph name="egrave" xMin="124" yMin="-23" xMax="1039" yMax="1646">
      <component glyphName="grave" x="190" y="124" flags="0x1004"/>
      <component glyphName="e" x="0" y="0" flags="0x1204"/>
    </TTGlyph>
    <TTGlyph name="eight" xMin="164" yMin="-26" xMax="1256" yMax="1503">
      <contour>
        <pt x="944" y="1126" on="1"/>
        <pt x="944" y="1296" on="0"/>
        <pt x="471" y="1296" on="0"/>
        <pt x="471" y="1126" on="1"/>
        <pt x="471" y="1047" on="0"/>
        <pt x="577" y="939" on="0"/>
        <pt x="708" y="876" on="1"/>
        <pt x="834" y="939" on="0"/>
        <pt x="944" y="1051" on="0"/>
      </contour>
      <contour>
        <pt x="709" y="187" on="1"/>
        <pt x="853" y="187" on="0"/>
        <pt x="979" y="295" on="0"/>
        <pt x="979" y="468" on="0"/>
        <pt x="847" y="607" on="0"/>
        <pt x="708" y="672" on="1"/>
        <pt x="569" y="607" on="0"/>
        <pt x="437" y="468" on="0"/>
        <pt x="437" y="385" on="1"/>
        <pt x="437" y="187" on="0"/>
      </contour>
      <contour>
        <pt x="924" y="783" on="1"/>
        <pt x="1256" y="663" on="0"/>
        <pt x="1256" y="368" on="1"/>
        <pt x="1256" y="177" on="0"/>
        <pt x="972" y="-26" on="0"/>
        <pt x="451" y="-26" on="0"/>
        <pt x="164" y="181" on="0"/>
        <pt x="164" y="366" on="1"/>
        <pt x="164" y="646" on="0"/>
        <pt x="477" y="783" on="1"/>
        <pt x="191" y="886" on="0"/>
        <pt x="191" y="1141" on="1"/>
        <pt x="191" y="1299" on="0"/>
        <pt x="440" y="1503" on="0"/>
        <pt x="709" y="1503" on="1"/>
        <pt x="1094" y="1504" on="0"/>
        <pt x="1191" y="1280" on="1"/>
        <pt x="1219" y="1216" on="0"/>
        <pt x="1219" y="1019" on="0"/>
        <pt x="1072" y="830" on="0"/>
      </contour>
    </TTGlyph>
    <TTGlyph name="ellipsis" xMin="176" yMin="0" xMax="1674" yMax="284">
      <contour>
        <pt x="1376" y="0" on="1"/>
        <pt x="1376" y="284" on="1"/>
        <pt x="1674" y="284" on="1"/>
        <pt x="1674" y="0" on="1"/>
      </contour>
      <contour>
        <pt x="776" y="0" on="1"/>
        <pt x="776" y="284" on="1"/>
        <pt x="1074" y="284" on="1"/>
        <pt x="1074" y="0" on="1"/>
      </contour>
      <contour>
        <pt x="176" y="0" on="1"/>
        <pt x="176" y="284" on="1"/>
        <pt x="474" y="284" on="1"/>
        <pt x="474" y="0" on="1"/>
      </contour>
    </TTGlyph>
    <TTGlyph name="emacron" xMin="124" yMin="-23" xMax="1039" yMax="1438">
      <component glyphName="uni02C9" x="378" y="30" flags="0x1004"/>
      <component glyphName="e" x="0" y="0" flags="0x1204"/>
    </TTGlyph>
    <TTGlyph name="emdash" xMin="3" yMin="383" xMax="957" yMax="556">
      <contour>
        <pt x="3" y="383" on="1"/>
        <pt x="3" y="556" on="1"/>
        <pt x="957" y="556" on="1"/>
        <pt x="957" y="383" on="1"/>
      </contour>
    </TTGlyph>
    <TTGlyph name="endash" xMin="128" yMin="446" xMax="588" yMax="612">
      <contour>
        <pt x="128" y="446" on="1"/>
        <pt x="128" y="612" on="1"/>
        <pt x="588" y="612" on="1"/>
        <pt x="588" y="446" on="1"/>
      </contour>
    </TTGlyph>
    <TTGlyph name="eng" xMin="160" yMin="-365" xMax="1102" yMax="1097">
      <contour>
        <pt x="553" y="-365" on="1"/>
        <pt x="525" y="-175" on="1"/>
        <pt x="734" y="-154" on="0"/>
        <pt x="770" y="-110" on="1"/>
        <pt x="817" y="-51" on="0"/>
        <pt x="829" y="92" on="0"/>
        <pt x="829" y="172" on="1"/>
        <pt x="829" y="768" on="1"/>
        <pt x="829" y="907" on="0"/>
        <pt x="642" y="907" on="1"/>
        <pt x="558" y="907" on="0"/>
        <pt x="433" y="831" on="0"/>
        <pt x="433" y="758" on="1"/>
        <pt x="433" y="0" on="1"/>
        <pt x="160" y="0" on="1"/>
        <pt x="160" y="1074" on="1"/>
        <pt x="433" y="1074" on="1"/>
        <pt x="433" y="948" on="1"/>
        <pt x="469" y="1011" on="0"/>
        <pt x="647" y="1097" on="0"/>
        <pt x="756" y="1097" on="1"/>
        <pt x="911" y="1097" on="0"/>
        <pt x="1102" y="930" on="0"/>
        <pt x="1102" y="794" on="1"/>
        <pt x="1102" y="179" on="1"/>
        <pt x="1102" y="29" on="0"/>
        <pt x="1055" y="-165" on="0"/>
        <pt x="932" y="-304" on="0"/>
        <pt x="718" y="-365" on="0"/>
      </contour>
    </TTGlyph>
    <TTGlyph name="eogonek" xMin="124" yMin="-523" xMax="1039" yMax="1097">
      <component glyphName="ogonek" x="310" y="-14" flags="0x1004"/>
      <component glyphName="e" x="0" y="0" flags="0x1204"/>
    </TTGlyph>
    <TTGlyph name="equal" xMin="112" yMin="371" xMax="768" yMax="913">
      <contour>
        <pt x="112" y="740" on="1"/>
        <pt x="112" y="913" on="1"/>
        <pt x="768" y="913" on="1"/>
        <pt x="768" y="740" on="1"/>
      </contour>
      <contour>
        <pt x="112" y="371" on="1"/>
        <pt x="112" y="544" on="1"/>
        <pt x="768" y="544" on="1"/>
        <pt x="768" y="371" on="1"/>
      </contour>
    </TTGlyph>
    <TTGlyph name="eth" xMin="166" yMin="-23" xMax="1180" yMax="1655">
      <contour>
        <pt x="444" y="249" on="0"/>
        <pt x="551" y="178" on="0"/>
        <pt x="740" y="178" on="0"/>
        <pt x="783" y="188" on="1"/>
        <pt x="866" y="208" on="0"/>
        <pt x="910" y="322" on="0"/>
        <pt x="910" y="610" on="0"/>
        <pt x="887" y="736" on="1"/>
        <pt x="856" y="758" on="0"/>
        <pt x="723" y="793" on="0"/>
        <pt x="677" y="793" on="1"/>
        <pt x="444" y="793" on="0"/>
        <pt x="444" y="612" on="1"/>
        <pt x="444" y="333" on="1"/>
      </contour>
      <contour>
        <pt x="420" y="-23" on="0"/>
        <pt x="166" y="169" on="0"/>
        <pt x="166" y="342" on="1"/>
        <pt x="166" y="618" on="1"/>
        <pt x="166" y="785" on="0"/>
        <pt x="419" y="975" on="0"/>
        <pt x="621" y="975" on="1"/>
        <pt x="672" y="975" on="0"/>
        <pt x="844" y="938" on="0"/>
        <pt x="864" y="921" on="1"/>
        <pt x="848" y="1073" on="0"/>
        <pt x="700" y="1256" on="0"/>
        <pt x="602" y="1284" on="1"/>
        <pt x="513" y="1110" on="1"/>
        <pt x="394" y="1167" on="1"/>
        <pt x="471" y="1318" on="1"/>
        <pt x="387" y="1333" on="0"/>
        <pt x="233" y="1335" on="1"/>
        <pt x="257" y="1502" on="1"/>
        <pt x="303" y="1505" on="0"/>
        <pt x="457" y="1505" on="0"/>
        <pt x="553" y="1485" on="1"/>
        <pt x="638" y="1655" on="1"/>
        <pt x="758" y="1598" on="1"/>
        <pt x="684" y="1448" on="1"/>
        <pt x="1058" y="1339" on="0"/>
        <pt x="1152" y="854" on="1"/>
        <pt x="1180" y="710" on="0"/>
        <pt x="1180" y="536" on="1"/>
        <pt x="1180" y="460" on="1"/>
        <pt x="1180" y="250" on="0"/>
        <pt x="955" y="-23" on="0"/>
      </contour>
    </TTGlyph>
    <TTGlyph name="exclam" xMin="192" yMin="0" xMax="456" yMax="1477">
      <contour>
        <pt x="280" y="410" on="1"/>
        <pt x="197" y="1359" on="0"/>
        <pt x="197" y="1477" on="1"/>
        <pt x="456" y="1477" on="1"/>
        <pt x="456" y="1370" on="0"/>
        <pt x="356" y="410" on="1"/>
      </contour>
      <contour>
        <pt x="192" y="0" on="1"/>
        <pt x="192" y="245" on="1"/>
        <pt x="442" y="245" on="1"/>
        <pt x="442" y="0" on="1"/>
      </contour>
    </TTGlyph>
    <TTGlyph name="exclamdown" xMin="192" yMin="-405" xMax="456" yMax="1072">
      <component glyphName="exclam" x="648" y="1072" scale="-1.0" flags="0x1004"/>
    </TTGlyph>
    <TTGlyph name="f" xMin="86" yMin="0" xMax="724" yMax="1516">
      <contour>
        <pt x="229" y="0" on="1"/>
        <pt x="229" y="901" on="1"/>
        <pt x="86" y="901" on="1"/>
        <pt x="86" y="1074" on="1"/>
        <pt x="229" y="1074" on="1"/>
        <pt x="229" y="1125" on="1"/>
        <pt x="229" y="1320" on="0"/>
        <pt x="403" y="1516" on="0"/>
        <pt x="591" y="1516" on="1"/>
        <pt x="717" y="1516" on="1"/>
        <pt x="724" y="1327" on="1"/>
        <pt x="640" y="1327" on="1"/>
        <pt x="559" y="1327" on="0"/>
        <pt x="501" y="1250" on="0"/>
        <pt x="501" y="1186" on="1"/>
        <pt x="501" y="1074" on="1"/>
        <pt x="715" y="1074" on="1"/>
        <pt x="715" y="901" on="1"/>
        <pt x="501" y="901" on="1"/>
        <pt x="501" y="0" on="1"/>
      </contour>
    </TTGlyph>
    <TTGlyph name="five" xMin="195" yMin="-27" xMax="1283" yMax="1476">
      <contour>
        <pt x="511" y="860" on="1"/>
        <pt x="597" y="950" on="0"/>
        <pt x="1022" y="950" on="0"/>
        <pt x="1283" y="674" on="0"/>
        <pt x="1283" y="244" on="0"/>
        <pt x="981" y="-27" on="0"/>
        <pt x="726" y="-27" on="1"/>
        <pt x="569" y="-27" on="0"/>
        <pt x="269" y="65" on="0"/>
        <pt x="195" y="119" on="1"/>
        <pt x="274" y="318" on="1"/>
        <pt x="478" y="196" on="0"/>
        <pt x="710" y="196" on="1"/>
        <pt x="992" y="196" on="0"/>
        <pt x="993" y="465" on="1"/>
        <pt x="993" y="466" on="1"/>
        <pt x="993" y="573" on="0"/>
        <pt x="856" y="700" on="0"/>
        <pt x="751" y="700" on="1"/>
        <pt x="570" y="700" on="0"/>
        <pt x="461" y="597" on="1"/>
        <pt x="247" y="704" on="1"/>
        <pt x="328" y="1476" on="1"/>
        <pt x="1170" y="1476" on="1"/>
        <pt x="1170" y="1230" on="1"/>
        <pt x="552" y="1230" on="1"/>
      </contour>
    </TTGlyph>
    <TTGlyph name="florin" xMin="241" yMin="-205" xMax="783" yMax="1440">
      <contour>
        <pt x="783" y="1285" on="1"/>
        <pt x="725" y="1291" on="1"/>
        <pt x="632" y="1291" on="0"/>
        <pt x="618" y="1205" on="1"/>
        <pt x="614" y="1183" on="0"/>
        <pt x="615" y="1151" on="1"/>
        <pt x="615" y="1012" on="1"/>
        <pt x="757" y="1012" on="1"/>
        <pt x="757" y="843" on="1"/>
        <pt x="615" y="843" on="1"/>
        <pt x="615" y="101" on="1"/>
        <pt x="615" y="-85" on="0"/>
        <pt x="492" y="-205" on="0"/>
        <pt x="366" y="-205" on="1"/>
        <pt x="310" y="-205" on="0"/>
        <pt x="241" y="-196" on="1"/>
        <pt x="241" y="-49" on="1"/>
        <pt x="283" y="-56" on="0"/>
        <pt x="306" y="-56" on="1"/>
        <pt x="368" y="-56" on="0"/>
        <pt x="410" y="11" on="0"/>
        <pt x="410" y="74" on="1"/>
        <pt x="410" y="843" on="1"/>
        <pt x="293" y="843" on="1"/>
        <pt x="293" y="1012" on="1"/>
        <pt x="410" y="1012" on="1"/>
        <pt x="410" y="1125" on="1"/>
        <pt x="410" y="1291" on="0"/>
        <pt x="490" y="1412" on="0"/>
        <pt x="605" y="1440" on="0"/>
        <pt x="712" y="1440" on="0"/>
        <pt x="783" y="1432" on="1"/>
      </contour>
    </TTGlyph>
    <TTGlyph name="four" xMin="170" yMin="0" xMax="1296" yMax="1476">
      <contour>
        <pt x="839" y="0" on="1"/>
        <pt x="839" y="282" on="1"/>
        <pt x="170" y="282" on="1"/>
        <pt x="170" y="531" on="1"/>
        <pt x="619" y="1476" on="1"/>
        <pt x="924" y="1476" on="1"/>
        <pt x="494" y="528" on="1"/>
        <pt x="839" y="528" on="1"/>
        <pt x="839" y="862" on="1"/>
        <pt x="1076" y="862" on="1"/>
        <pt x="1076" y="528" on="1"/>
        <pt x="1296" y="528" on="1"/>
        <pt x="1296" y="282" on="1"/>
        <pt x="1076" y="282" on="1"/>
        <pt x="1076" y="0" on="1"/>
      </contour>
    </TTGlyph>
    <TTGlyph name="fraction" xMin="55" yMin="0" xMax="865" yMax="1516">
      <contour>
        <pt x="55" y="0" on="1"/>
        <pt x="622" y="1516" on="1"/>
        <pt x="865" y="1516" on="1"/>
        <pt x="298" y="0" on="1"/>
      </contour>
    </TTGlyph>
    <TTGlyph name="g" xMin="124" yMin="-441" xMax="1059" yMax="1097">
      <contour>
        <pt x="588" y="213" on="1"/>
        <pt x="721" y="213" on="0"/>
        <pt x="787" y="261" on="1"/>
        <pt x="787" y="832" on="1"/>
        <pt x="787" y="856" on="0"/>
        <pt x="730" y="882" on="1"/>
        <pt x="672" y="907" on="0"/>
        <pt x="582" y="907" on="1"/>
        <pt x="396" y="907" on="0"/>
        <pt x="396" y="757" on="1"/>
        <pt x="396" y="356" on="1"/>
        <pt x="396" y="213" on="0"/>
      </contour>
      <contour>
        <pt x="574" y="-441" on="1"/>
        <pt x="337" y="-441" on="0"/>
        <pt x="219" y="-385" on="1"/>
        <pt x="275" y="-200" on="1"/>
        <pt x="426" y="-242" on="0"/>
        <pt x="681" y="-242" on="0"/>
        <pt x="787" y="-141" on="0"/>
        <pt x="787" y="-30" on="1"/>
        <pt x="787" y="88" on="1"/>
        <pt x="693" y="32" on="0"/>
        <pt x="348" y="32" on="0"/>
        <pt x="124" y="209" on="0"/>
        <pt x="124" y="366" on="1"/>
        <pt x="124" y="751" on="1"/>
        <pt x="124" y="896" on="0"/>
        <pt x="313" y="1097" on="0"/>
        <pt x="533" y="1097" on="1"/>
        <pt x="618" y="1097" on="0"/>
        <pt x="781" y="1040" on="0"/>
        <pt x="834" y="997" on="1"/>
        <pt x="857" y="1075" on="1"/>
        <pt x="1059" y="1075" on="1"/>
        <pt x="1059" y="-12" on="1"/>
        <pt x="1059" y="-441" on="0"/>
      </contour>
    </TTGlyph>
    <TTGlyph name="gbreve" xMin="124" yMin="-441" xMax="1059" yMax="1506">
      <component glyphName="breve" x="326" y="-10" flags="0x1004"/>
      <component glyphName="g" x="0" y="0" flags="0x1204"/>
    </TTGlyph>
    <TTGlyph name="gcircumflex" xMin="124" yMin="-441" xMax="1059" yMax="1581">
      <component glyphName="circumflex" x="312" y="65" flags="0x1004"/>
      <component glyphName="g" x="0" y="0" flags="0x1204"/>
    </TTGlyph>
    <TTGlyph name="gcommaaccent" xMin="124" yMin="-441" xMax="1059" yMax="1895">
      <contour>
        <pt x="495" y="1230" on="1"/>
        <pt x="495" y="1453" on="1"/>
        <pt x="495" y="1586" on="0"/>
        <pt x="627" y="1838" on="0"/>
        <pt x="691" y="1895" on="1"/>
        <pt x="798" y="1849" on="1"/>
        <pt x="748" y="1790" on="0"/>
        <pt x="652" y="1598" on="0"/>
        <pt x="652" y="1506" on="1"/>
        <pt x="817" y="1506" on="1"/>
        <pt x="817" y="1230" on="1"/>
      </contour>
      <contour>
        <pt x="588" y="213" on="1"/>
        <pt x="721" y="213" on="0"/>
        <pt x="787" y="261" on="1"/>
        <pt x="787" y="832" on="1"/>
        <pt x="787" y="856" on="0"/>
        <pt x="730" y="882" on="1"/>
        <pt x="672" y="907" on="0"/>
        <pt x="582" y="907" on="1"/>
        <pt x="396" y="907" on="0"/>
        <pt x="396" y="757" on="1"/>
        <pt x="396" y="356" on="1"/>
        <pt x="396" y="213" on="0"/>
      </contour>
      <contour>
        <pt x="574" y="-441" on="1"/>
        <pt x="337" y="-441" on="0"/>
        <pt x="219" y="-385" on="1"/>
        <pt x="275" y="-200" on="1"/>
        <pt x="426" y="-242" on="0"/>
        <pt x="681" y="-242" on="0"/>
        <pt x="787" y="-141" on="0"/>
        <pt x="787" y="-30" on="1"/>
        <pt x="787" y="88" on="1"/>
        <pt x="693" y="32" on="0"/>
        <pt x="348" y="32" on="0"/>
        <pt x="124" y="209" on="0"/>
        <pt x="124" y="366" on="1"/>
        <pt x="124" y="751" on="1"/>
        <pt x="124" y="896" on="0"/>
        <pt x="313" y="1097" on="0"/>
        <pt x="533" y="1097" on="1"/>
        <pt x="618" y="1097" on="0"/>
        <pt x="781" y="1040" on="0"/>
        <pt x="834" y="997" on="1"/>
        <pt x="857" y="1075" on="1"/>
        <pt x="1059" y="1075" on="1"/>
        <pt x="1059" y="-12" on="1"/>
        <pt x="1059" y="-441" on="0"/>
      </contour>
    </TTGlyph>
    <TTGlyph name="gdotaccent" xMin="124" yMin="-441" xMax="1059" yMax="1528">
      <component glyphName="uni0307" x="350" y="30" flags="0x1004"/>
      <component glyphName="g" x="0" y="0" flags="0x1204"/>
    </TTGlyph>
    <TTGlyph name="germandbls" xMin="158" yMin="-20" xMax="1194" yMax="1507">
      <contour>
        <pt x="873" y="819" on="1"/>
        <pt x="1194" y="724" on="0"/>
        <pt x="1194" y="388" on="1"/>
        <pt x="1194" y="202" on="0"/>
        <pt x="920" y="-20" on="0"/>
        <pt x="622" y="-20" on="1"/>
        <pt x="622" y="169" on="1"/>
        <pt x="794" y="169" on="0"/>
        <pt x="941" y="301" on="0"/>
        <pt x="941" y="422" on="1"/>
        <pt x="941" y="439" on="1"/>
        <pt x="936" y="573" on="0"/>
        <pt x="789" y="687" on="0"/>
        <pt x="636" y="703" on="1"/>
        <pt x="636" y="893" on="1"/>
        <pt x="806" y="892" on="0"/>
        <pt x="844" y="1032" on="1"/>
        <pt x="854" y="1068" on="0"/>
        <pt x="854" y="1099" on="1"/>
        <pt x="854" y="1222" on="0"/>
        <pt x="741" y="1318" on="0"/>
        <pt x="520" y="1318" on="0"/>
        <pt x="432" y="1221" on="0"/>
        <pt x="432" y="1129" on="1"/>
        <pt x="432" y="0" on="1"/>
        <pt x="158" y="0" on="1"/>
        <pt x="158" y="1118" on="1"/>
        <pt x="158" y="1300" on="0"/>
        <pt x="389" y="1507" on="0"/>
        <pt x="613" y="1507" on="1"/>
        <pt x="1097" y="1507" on="0"/>
        <pt x="1097" y="1113" on="1"/>
        <pt x="1097" y="1019" on="0"/>
        <pt x="979" y="857" on="0"/>
      </contour>
    </TTGlyph>
    <TTGlyph name="grave" xMin="79" yMin="1157" xMax="467" yMax="1522">
      <contour>
        <pt x="316" y="1157" on="1"/>
        <pt x="79" y="1522" on="1"/>
        <pt x="346" y="1522" on="1"/>
        <pt x="467" y="1157" on="1"/>
      </contour>
    </TTGlyph>
    <TTGlyph name="greater" xMin="152" yMin="31" xMax="896" yMax="1081">
      <contour>
        <pt x="152" y="31" on="1"/>
        <pt x="152" y="260" on="1"/>
        <pt x="715" y="556" on="1"/>
        <pt x="152" y="848" on="1"/>
        <pt x="152" y="1081" on="1"/>
        <pt x="896" y="665" on="1"/>
        <pt x="896" y="446" on="1"/>
      </contour>
    </TTGlyph>
    <TTGlyph name="greaterequal" xMin="184" yMin="0" xMax="1066" yMax="1286">
      <contour>
        <pt x="184" y="0" on="1"/>
        <pt x="184" y="175" on="1"/>
        <pt x="1066" y="175" on="1"/>
        <pt x="1066" y="0" on="1"/>
      </contour>
      <contour>
        <pt x="245" y="236" on="1"/>
        <pt x="245" y="465" on="1"/>
        <pt x="808" y="761" on="1"/>
        <pt x="245" y="1053" on="1"/>
        <pt x="245" y="1286" on="1"/>
        <pt x="988" y="870" on="1"/>
        <pt x="988" y="651" on="1"/>
      </contour>
    </TTGlyph>
    <TTGlyph name="guillemotleft" xMin="67" yMin="80" xMax="899" yMax="980">
      <contour>
        <pt x="761" y="80" on="1"/>
        <pt x="481" y="530" on="1"/>
        <pt x="754" y="980" on="1"/>
        <pt x="899" y="910" on="1"/>
        <pt x="694" y="530" on="1"/>
        <pt x="899" y="150" on="1"/>
      </contour>
      <contour>
        <pt x="347" y="80" on="1"/>
        <pt x="67" y="530" on="1"/>
        <pt x="340" y="980" on="1"/>
        <pt x="487" y="910" on="1"/>
        <pt x="280" y="530" on="1"/>
        <pt x="487" y="150" on="1"/>
      </contour>
    </TTGlyph>
    <TTGlyph name="guillemotright" xMin="154" yMin="80" xMax="986" yMax="980">
      <contour>
        <pt x="713" y="80" on="1"/>
        <pt x="566" y="150" on="1"/>
        <pt x="773" y="530" on="1"/>
        <pt x="566" y="910" on="1"/>
        <pt x="706" y="980" on="1"/>
        <pt x="986" y="530" on="1"/>
      </contour>
      <contour>
        <pt x="299" y="80" on="1"/>
        <pt x="154" y="150" on="1"/>
        <pt x="359" y="530" on="1"/>
        <pt x="154" y="910" on="1"/>
        <pt x="292" y="980" on="1"/>
        <pt x="572" y="530" on="1"/>
      </contour>
    </TTGlyph>
    <TTGlyph name="guilsinglleft" xMin="174" yMin="80" xMax="594" yMax="980">
      <contour>
        <pt x="454" y="80" on="1"/>
        <pt x="174" y="530" on="1"/>
        <pt x="447" y="980" on="1"/>
        <pt x="594" y="910" on="1"/>
        <pt x="387" y="530" on="1"/>
        <pt x="594" y="150" on="1"/>
      </contour>
    </TTGlyph>
    <TTGlyph name="guilsinglright" xMin="180" yMin="80" xMax="600" yMax="980">
      <contour>
        <pt x="327" y="80" on="1"/>
        <pt x="180" y="150" on="1"/>
        <pt x="387" y="530" on="1"/>
        <pt x="180" y="910" on="1"/>
        <pt x="320" y="980" on="1"/>
        <pt x="600" y="530" on="1"/>
      </contour>
    </TTGlyph>
    <TTGlyph name="h" xMin="162" yMin="0" xMax="1102" yMax="1515">
      <contour>
        <pt x="162" y="0" on="1"/>
        <pt x="162" y="1515" on="1"/>
        <pt x="434" y="1515" on="1"/>
        <pt x="434" y="970" on="1"/>
        <pt x="468" y="1026" on="0"/>
        <pt x="658" y="1097" on="0"/>
        <pt x="923" y="1097" on="0"/>
        <pt x="1102" y="932" on="0"/>
        <pt x="1102" y="795" on="1"/>
        <pt x="1102" y="0" on="1"/>
        <pt x="830" y="0" on="1"/>
        <pt x="830" y="756" on="1"/>
        <pt x="830" y="894" on="0"/>
        <pt x="647" y="894" on="1"/>
        <pt x="565" y="894" on="0"/>
        <pt x="434" y="811" on="0"/>
        <pt x="434" y="738" on="1"/>
        <pt x="434" y="0" on="1"/>
      </contour>
    </TTGlyph>
    <TTGlyph name="hbar" xMin="45" yMin="0" xMax="1120" yMax="1515">
      <contour>
        <pt x="178" y="0" on="1"/>
        <pt x="178" y="1221" on="1"/>
        <pt x="45" y="1221" on="1"/>
        <pt x="45" y="1364" on="1"/>
        <pt x="178" y="1364" on="1"/>
        <pt x="178" y="1515" on="1"/>
        <pt x="451" y="1515" on="1"/>
        <pt x="451" y="1364" on="1"/>
        <pt x="775" y="1364" on="1"/>
        <pt x="775" y="1221" on="1"/>
        <pt x="451" y="1221" on="1"/>
        <pt x="451" y="960" on="1"/>
        <pt x="486" y="1018" on="0"/>
        <pt x="672" y="1097" on="0"/>
        <pt x="781" y="1097" on="1"/>
        <pt x="935" y="1097" on="0"/>
        <pt x="1120" y="931" on="0"/>
        <pt x="1120" y="795" on="1"/>
        <pt x="1120" y="0" on="1"/>
        <pt x="847" y="0" on="1"/>
        <pt x="847" y="769" on="1"/>
        <pt x="847" y="907" on="0"/>
        <pt x="664" y="907" on="1"/>
        <pt x="581" y="907" on="0"/>
        <pt x="451" y="831" on="0"/>
        <pt x="451" y="759" on="1"/>
        <pt x="451" y="0" on="1"/>
      </contour>
    </TTGlyph>
    <TTGlyph name="hcircumflex" xMin="162" yMin="0" xMax="1102" yMax="1999">
      <component glyphName="circumflex" x="352" y="483" flags="0x1004"/>
      <component glyphName="h" x="0" y="0" flags="0x1204"/>
    </TTGlyph>
    <TTGlyph name="hungarumlaut" xMin="96" yMin="1065" xMax="928" yMax="1496">
      <contour>
        <pt x="500" y="1065" on="1"/>
        <pt x="639" y="1496" on="1"/>
        <pt x="928" y="1496" on="1"/>
        <pt x="662" y="1065" on="1"/>
      </contour>
      <contour>
        <pt x="96" y="1065" on="1"/>
        <pt x="207" y="1496" on="1"/>
        <pt x="493" y="1496" on="1"/>
        <pt x="251" y="1065" on="1"/>
      </contour>
    </TTGlyph>
    <TTGlyph name="hyphen" xMin="132" yMin="494" xMax="836" yMax="642">
      <contour>
        <pt x="132" y="494" on="1"/>
        <pt x="132" y="642" on="1"/>
        <pt x="836" y="642" on="1"/>
        <pt x="836" y="494" on="1"/>
      </contour>
    </TTGlyph>
    <TTGlyph name="i" xMin="166" yMin="0" xMax="438" yMax="1468">
      <contour>
        <pt x="166" y="1227" on="1"/>
        <pt x="166" y="1468" on="1"/>
        <pt x="438" y="1468" on="1"/>
        <pt x="438" y="1227" on="1"/>
      </contour>
      <contour>
        <pt x="166" y="0" on="1"/>
        <pt x="166" y="1074" on="1"/>
        <pt x="438" y="1074" on="1"/>
        <pt x="438" y="0" on="1"/>
      </contour>
    </TTGlyph>
    <TTGlyph name="iacute" xMin="166" yMin="0" xMax="610" yMax="1646">
      <component glyphName="acute" x="122" y="124" flags="0x1004"/>
      <component glyphName="dotlessi" x="0" y="0" flags="0x1204"/>
    </TTGlyph>
    <TTGlyph name="ibreve" xMin="66" yMin="0" xMax="538" yMax="1506">
      <component glyphName="breve" x="36" y="-10" flags="0x1004"/>
      <component glyphName="dotlessi" x="0" y="0" flags="0x1204"/>
    </TTGlyph>
    <TTGlyph name="icircumflex" xMin="-8" yMin="0" xMax="612" yMax="1581">
      <component glyphName="circumflex" x="22" y="65" flags="0x1004"/>
      <component glyphName="dotlessi" x="0" y="0" flags="0x1204"/>
    </TTGlyph>
    <TTGlyph name="idieresis" xMin="-85" yMin="0" xMax="689" yMax="1514">
      <component glyphName="dieresis" x="-200" y="37" flags="0x1004"/>
      <component glyphName="dotlessi" x="0" y="0" flags="0x1204"/>
    </TTGlyph>
    <TTGlyph name="igrave" xMin="-11" yMin="0" xMax="438" yMax="1646">
      <component glyphName="grave" x="-90" y="124" flags="0x1004"/>
      <component glyphName="dotlessi" x="0" y="0" flags="0x1204"/>
    </TTGlyph>
    <TTGlyph name="ij" xMin="166" yMin="-362" xMax="1076" yMax="1468">
      <component glyphName="j" x="598" y="0" flags="0x1004"/>
      <component glyphName="i" x="0" y="0" flags="0x1004"/>
    </TTGlyph>
    <TTGlyph name="imacron" xMin="95" yMin="0" xMax="509" yMax="1438">
      <component glyphName="uni02C9" x="99" y="30" flags="0x1004"/>
      <component glyphName="dotlessi" x="0" y="0" flags="0x1204"/>
    </TTGlyph>
    <TTGlyph name="infinity" xMin="218" yMin="360" xMax="1830" yMax="1170">
      <contour>
        <pt x="378" y="937" on="0"/>
        <pt x="378" y="593" on="0"/>
        <pt x="526" y="593" on="1"/>
        <pt x="580" y="593" on="0"/>
        <pt x="859" y="750" on="0"/>
        <pt x="889" y="765" on="1"/>
        <pt x="859" y="780" on="0"/>
        <pt x="772" y="829" on="1"/>
        <pt x="563" y="933" on="0"/>
        <pt x="526" y="937" on="1"/>
      </contour>
      <contour>
        <pt x="1670" y="593" on="0"/>
        <pt x="1670" y="937" on="0"/>
        <pt x="1522" y="937" on="1"/>
        <pt x="1468" y="937" on="0"/>
        <pt x="1189" y="780" on="0"/>
        <pt x="1159" y="765" on="1"/>
        <pt x="1189" y="750" on="0"/>
        <pt x="1468" y="593" on="0"/>
        <pt x="1522" y="593" on="1"/>
      </contour>
      <contour>
        <pt x="1540" y="1170" on="1"/>
        <pt x="1667" y="1170" on="0"/>
        <pt x="1830" y="957" on="0"/>
        <pt x="1830" y="573" on="0"/>
        <pt x="1667" y="360" on="0"/>
        <pt x="1412" y="360" on="0"/>
        <pt x="1154" y="528" on="1"/>
        <pt x="1096" y="566" on="0"/>
        <pt x="1060" y="593" on="1"/>
        <pt x="1024" y="620" on="1"/>
        <pt x="818" y="458" on="0"/>
        <pt x="633" y="388" on="1"/>
        <pt x="559" y="360" on="0"/>
        <pt x="508" y="360" on="1"/>
        <pt x="381" y="360" on="0"/>
        <pt x="218" y="573" on="0"/>
        <pt x="218" y="957" on="0"/>
        <pt x="381" y="1170" on="0"/>
        <pt x="636" y="1170" on="0"/>
        <pt x="894" y="1002" on="1"/>
        <pt x="952" y="964" on="0"/>
        <pt x="988" y="937" on="1"/>
        <pt x="1024" y="910" on="1"/>
        <pt x="1230" y="1072" on="0"/>
        <pt x="1415" y="1142" on="1"/>
        <pt x="1489" y="1170" on="0"/>
      </contour>
    </TTGlyph>
    <TTGlyph name="integral" xMin="51" yMin="-263" xMax="593" yMax="1442">
      <contour>
        <pt x="593" y="1286" on="1"/>
        <pt x="563" y="1292" on="0"/>
        <pt x="535" y="1292" on="1"/>
        <pt x="468" y="1292" on="0"/>
        <pt x="425" y="1219" on="0"/>
        <pt x="425" y="1152" on="1"/>
        <pt x="425" y="43" on="1"/>
        <pt x="425" y="-143" on="0"/>
        <pt x="302" y="-263" on="0"/>
        <pt x="176" y="-263" on="1"/>
        <pt x="120" y="-263" on="0"/>
        <pt x="51" y="-254" on="1"/>
        <pt x="51" y="-107" on="1"/>
        <pt x="93" y="-114" on="0"/>
        <pt x="116" y="-114" on="1"/>
        <pt x="178" y="-114" on="0"/>
        <pt x="220" y="-47" on="0"/>
        <pt x="220" y="16" on="1"/>
        <pt x="220" y="1126" on="1"/>
        <pt x="220" y="1322" on="0"/>
        <pt x="344" y="1442" on="0"/>
        <pt x="471" y="1442" on="1"/>
        <pt x="514" y="1442" on="0"/>
        <pt x="593" y="1433" on="1"/>
      </contour>
    </TTGlyph>
    <TTGlyph name="iogonek" xMin="91" yMin="-500" xMax="453" yMax="1468">
      <component glyphName="ogonek" x="30" y="8" flags="0x1004"/>
      <component glyphName="i" x="0" y="0" flags="0x1204"/>
    </TTGlyph>
    <TTGlyph name="itilde" xMin="-9" yMin="0" xMax="613" yMax="1558">
      <component glyphName="tilde" x="-78" y="50" flags="0x1004"/>
      <component glyphName="dotlessi" x="0" y="0" flags="0x1204"/>
    </TTGlyph>
    <TTGlyph name="j" xMin="-10" yMin="-362" xMax="478" yMax="1468">
      <contour>
        <pt x="204" y="1227" on="1"/>
        <pt x="204" y="1468" on="1"/>
        <pt x="476" y="1468" on="1"/>
        <pt x="476" y="1227" on="1"/>
      </contour>
      <contour>
        <pt x="3" y="-362" on="1"/>
        <pt x="-10" y="-168" on="1"/>
        <pt x="34" y="-168" on="1"/>
        <pt x="206" y="-168" on="0"/>
        <pt x="206" y="10" on="1"/>
        <pt x="206" y="1074" on="1"/>
        <pt x="478" y="1074" on="1"/>
        <pt x="478" y="-3" on="1"/>
        <pt x="478" y="-171" on="0"/>
        <pt x="296" y="-362" on="0"/>
        <pt x="104" y="-362" on="1"/>
      </contour>
    </TTGlyph>
    <TTGlyph name="jcircumflex" xMin="-18" yMin="-329" xMax="641" yMax="1581">
      <component glyphName="circumflex" x="52" y="65" flags="0x1004"/>
      <component glyphName="uni0237" x="0" y="0" flags="0x1204"/>
    </TTGlyph>
    <TTGlyph name="k" xMin="162" yMin="0" xMax="1187" yMax="1516">
      <contour>
        <pt x="162" y="0" on="1"/>
        <pt x="162" y="1516" on="1"/>
        <pt x="434" y="1516" on="1"/>
        <pt x="434" y="602" on="1"/>
        <pt x="859" y="1074" on="1"/>
        <pt x="1169" y="1074" on="1"/>
        <pt x="765" y="611" on="1"/>
        <pt x="1187" y="0" on="1"/>
        <pt x="890" y="0" on="1"/>
        <pt x="554" y="497" on="1"/>
        <pt x="434" y="374" on="1"/>
        <pt x="434" y="0" on="1"/>
      </contour>
    </TTGlyph>
    <TTGlyph name="kcommaaccent" xMin="162" yMin="-849" xMax="1187" yMax="1516">
      <component glyphName="uni0326" x="312" y="-78" flags="0x1004"/>
      <component glyphName="k" x="0" y="0" flags="0x1204"/>
    </TTGlyph>
    <TTGlyph name="kgreenlandic" xMin="171" yMin="0" xMax="1190" yMax="1074">
      <contour>
        <pt x="171" y="0" on="1"/>
        <pt x="171" y="1074" on="1"/>
        <pt x="444" y="1074" on="1"/>
        <pt x="444" y="602" on="1"/>
        <pt x="471" y="630" on="0"/>
        <pt x="820" y="1047" on="0"/>
        <pt x="845" y="1074" on="1"/>
        <pt x="1169" y="1074" on="1"/>
        <pt x="771" y="605" on="1"/>
        <pt x="1190" y="0" on="1"/>
        <pt x="864" y="0" on="1"/>
        <pt x="540" y="483" on="1"/>
        <pt x="444" y="385" on="1"/>
        <pt x="444" y="0" on="1"/>
      </contour>
    </TTGlyph>
    <TTGlyph name="l" xMin="164" yMin="-12" xMax="662" yMax="1515">
      <contour>
        <pt x="527" y="-12" on="1"/>
        <pt x="342" y="-12" on="0"/>
        <pt x="164" y="156" on="0"/>
        <pt x="164" y="353" on="1"/>
        <pt x="164" y="1515" on="1"/>
        <pt x="436" y="1515" on="1"/>
        <pt x="436" y="357" on="1"/>
        <pt x="436" y="267" on="0"/>
        <pt x="520" y="190" on="0"/>
        <pt x="628" y="190" on="1"/>
        <pt x="662" y="190" on="1"/>
        <pt x="641" y="-12" on="1"/>
      </contour>
    </TTGlyph>
    <TTGlyph name="lacute" xMin="164" yMin="-12" xMax="721" yMax="2064">
      <component glyphName="acute" x="232" y="542" flags="0x1004"/>
      <component glyphName="l" x="0" y="0" flags="0x1204"/>
    </TTGlyph>
    <TTGlyph name="lcaron" xMin="164" yMin="-12" xMax="1069" yMax="1515">
      <component glyphName="comma" x="524" y="1239" flags="0x1004"/>
      <component glyphName="l" x="0" y="0" flags="0x1004"/>
    </TTGlyph>
    <TTGlyph name="lcommaaccent" xMin="164" yMin="-861" xMax="662" yMax="1515">
      <component glyphName="uni0326" x="50" y="-90" flags="0x1004"/>
      <component glyphName="l" x="0" y="0" flags="0x1204"/>
    </TTGlyph>
    <TTGlyph name="ldot" xMin="164" yMin="-12" xMax="1088" yMax="1515">
      <component glyphName="periodcentered" x="708" y="0" flags="0x1004"/>
      <component glyphName="l" x="0" y="0" flags="0x1004"/>
    </TTGlyph>
    <TTGlyph name="less" xMin="112" yMin="31" xMax="856" yMax="1081">
      <contour>
        <pt x="856" y="31" on="1"/>
        <pt x="112" y="445" on="1"/>
        <pt x="112" y="664" on="1"/>
        <pt x="856" y="1081" on="1"/>
        <pt x="856" y="850" on="1"/>
        <pt x="293" y="556" on="1"/>
        <pt x="856" y="262" on="1"/>
      </contour>
    </TTGlyph>
    <TTGlyph name="lessequal" xMin="229" yMin="0" xMax="1023" yMax="1289">
      <contour>
        <pt x="229" y="0" on="1"/>
        <pt x="229" y="175" on="1"/>
        <pt x="1021" y="175" on="1"/>
        <pt x="1021" y="0" on="1"/>
      </contour>
      <contour>
        <pt x="1023" y="239" on="1"/>
        <pt x="239" y="653" on="1"/>
        <pt x="239" y="872" on="1"/>
        <pt x="1023" y="1289" on="1"/>
        <pt x="1023" y="1058" on="1"/>
        <pt x="420" y="764" on="1"/>
        <pt x="1023" y="470" on="1"/>
      </contour>
    </TTGlyph>
    <TTGlyph name="logicalnot" xMin="129" yMin="226" xMax="853" yMax="757">
      <contour>
        <pt x="705" y="226" on="1"/>
        <pt x="705" y="587" on="1"/>
        <pt x="129" y="587" on="1"/>
        <pt x="129" y="757" on="1"/>
        <pt x="853" y="757" on="1"/>
        <pt x="853" y="226" on="1"/>
      </contour>
    </TTGlyph>
    <TTGlyph name="lozenge" xMin="102" yMin="0" xMax="1002" yMax="1505">
      <contour>
        <pt x="567" y="188" on="1"/>
        <pt x="793" y="754" on="1"/>
        <pt x="567" y="1307" on="1"/>
        <pt x="316" y="754" on="1"/>
      </contour>
      <contour>
        <pt x="466" y="0" on="1"/>
        <pt x="102" y="754" on="1"/>
        <pt x="466" y="1505" on="1"/>
        <pt x="664" y="1505" on="1"/>
        <pt x="1002" y="754" on="1"/>
        <pt x="664" y="0" on="1"/>
      </contour>
    </TTGlyph>
    <TTGlyph name="lslash" xMin="5" yMin="-12" xMax="628" yMax="1515">
      <contour>
        <pt x="493" y="-12" on="1"/>
        <pt x="310" y="-12" on="0"/>
        <pt x="142" y="155" on="0"/>
        <pt x="142" y="353" on="1"/>
        <pt x="142" y="736" on="1"/>
        <pt x="5" y="680" on="1"/>
        <pt x="5" y="823" on="1"/>
        <pt x="142" y="879" on="1"/>
        <pt x="142" y="1515" on="1"/>
        <pt x="414" y="1515" on="1"/>
        <pt x="414" y="991" on="1"/>
        <pt x="579" y="1059" on="1"/>
        <pt x="579" y="915" on="1"/>
        <pt x="414" y="847" on="1"/>
        <pt x="414" y="357" on="1"/>
        <pt x="414" y="265" on="0"/>
        <pt x="488" y="190" on="0"/>
        <pt x="594" y="190" on="1"/>
        <pt x="628" y="190" on="1"/>
        <pt x="607" y="-12" on="1"/>
      </contour>
    </TTGlyph>
    <TTGlyph name="m" xMin="160" yMin="0" xMax="1742" yMax="1097">
      <contour>
        <pt x="160" y="0" on="1"/>
        <pt x="160" y="1074" on="1"/>
        <pt x="432" y="1074" on="1"/>
        <pt x="432" y="978" on="1"/>
        <pt x="488" y="1036" on="0"/>
        <pt x="667" y="1097" on="0"/>
        <pt x="749" y="1097" on="1"/>
        <pt x="964" y="1097" on="0"/>
        <pt x="1044" y="964" on="1"/>
        <pt x="1177" y="1097" on="0"/>
        <pt x="1401" y="1097" on="1"/>
        <pt x="1555" y="1097" on="0"/>
        <pt x="1742" y="930" on="0"/>
        <pt x="1742" y="794" on="1"/>
        <pt x="1742" y="0" on="1"/>
        <pt x="1470" y="0" on="1"/>
        <pt x="1470" y="762" on="1"/>
        <pt x="1470" y="840" on="0"/>
        <pt x="1389" y="897" on="0"/>
        <pt x="1236" y="897" on="0"/>
        <pt x="1095" y="817" on="0"/>
        <pt x="1089" y="750" on="1"/>
        <pt x="1089" y="0" on="1"/>
        <pt x="817" y="0" on="1"/>
        <pt x="817" y="762" on="1"/>
        <pt x="817" y="840" on="0"/>
        <pt x="731" y="897" on="0"/>
        <pt x="574" y="897" on="0"/>
        <pt x="432" y="812" on="0"/>
        <pt x="432" y="739" on="1"/>
        <pt x="432" y="0" on="1"/>
      </contour>
    </TTGlyph>
    <TTGlyph name="macron" xMin="-7" yMin="1251" xMax="518" yMax="1408">
      <contour>
        <pt x="-7" y="1251" on="1"/>
        <pt x="-7" y="1408" on="1"/>
        <pt x="518" y="1408" on="1"/>
        <pt x="518" y="1251" on="1"/>
      </contour>
    </TTGlyph>
    <TTGlyph name="minus" xMin="122" yMin="439" xMax="664" yMax="619">
      <contour>
        <pt x="122" y="439" on="1"/>
        <pt x="122" y="619" on="1"/>
        <pt x="664" y="619" on="1"/>
        <pt x="664" y="439" on="1"/>
      </contour>
    </TTGlyph>
    <TTGlyph name="mu" xMin="148" yMin="-236" xMax="1088" yMax="1074">
      <contour>
        <pt x="786" y="63" on="0"/>
        <pt x="652" y="-19" on="0"/>
        <pt x="484" y="-19" on="0"/>
        <pt x="400" y="2" on="1"/>
        <pt x="400" y="-236" on="1"/>
        <pt x="148" y="-236" on="1"/>
        <pt x="148" y="1074" on="1"/>
        <pt x="420" y="1074" on="1"/>
        <pt x="420" y="308" on="1"/>
        <pt x="420" y="232" on="0"/>
        <pt x="527" y="166" on="0"/>
        <pt x="684" y="166" on="0"/>
        <pt x="815" y="247" on="0"/>
        <pt x="815" y="317" on="1"/>
        <pt x="815" y="1074" on="1"/>
        <pt x="1088" y="1074" on="1"/>
        <pt x="1088" y="0" on="1"/>
        <pt x="821" y="0" on="1"/>
        <pt x="815" y="135" on="1"/>
      </contour>
    </TTGlyph>
    <TTGlyph name="multiply" xMin="154" yMin="216" xMax="871" yMax="937">
      <contour>
        <pt x="265" y="216" on="1"/>
        <pt x="154" y="344" on="1"/>
        <pt x="392" y="576" on="1"/>
        <pt x="154" y="806" on="1"/>
        <pt x="265" y="937" on="1"/>
        <pt x="513" y="694" on="1"/>
        <pt x="761" y="937" on="1"/>
        <pt x="871" y="806" on="1"/>
        <pt x="634" y="576" on="1"/>
        <pt x="871" y="344" on="1"/>
        <pt x="761" y="216" on="1"/>
        <pt x="513" y="458" on="1"/>
      </contour>
    </TTGlyph>
    <TTGlyph name="n" xMin="160" yMin="0" xMax="1102" yMax="1099">
      <contour>
        <pt x="830" y="755" on="1"/>
        <pt x="830" y="894" on="0"/>
        <pt x="641" y="894" on="1"/>
        <pt x="560" y="894" on="0"/>
        <pt x="432" y="809" on="0"/>
        <pt x="432" y="735" on="1"/>
        <pt x="432" y="0" on="1"/>
        <pt x="160" y="0" on="1"/>
        <pt x="160" y="1074" on="1"/>
        <pt x="432" y="1074" on="1"/>
        <pt x="432" y="979" on="1"/>
        <pt x="569" y="1099" on="0"/>
        <pt x="935" y="1099" on="0"/>
        <pt x="1102" y="911" on="0"/>
        <pt x="1102" y="770" on="1"/>
        <pt x="1102" y="0" on="1"/>
        <pt x="830" y="0" on="1"/>
      </contour>
    </TTGlyph>
    <TTGlyph name="nacute" xMin="160" yMin="0" xMax="1102" yMax="1648">
      <component glyphName="acute" x="450" y="126" flags="0x1004"/>
      <component glyphName="n" x="0" y="0" flags="0x1204"/>
    </TTGlyph>
    <TTGlyph name="napostrophe" xMin="160" yMin="0" xMax="1102" yMax="1896">
      <contour>
        <pt x="345" y="1231" on="1"/>
        <pt x="238" y="1278" on="1"/>
        <pt x="288" y="1336" on="0"/>
        <pt x="384" y="1528" on="0"/>
        <pt x="384" y="1620" on="1"/>
        <pt x="219" y="1620" on="1"/>
        <pt x="219" y="1896" on="1"/>
        <pt x="540" y="1896" on="1"/>
        <pt x="540" y="1673" on="1"/>
        <pt x="540" y="1540" on="0"/>
        <pt x="408" y="1290" on="0"/>
      </contour>
      <contour>
        <pt x="830" y="755" on="1"/>
        <pt x="830" y="894" on="0"/>
        <pt x="641" y="894" on="1"/>
        <pt x="560" y="894" on="0"/>
        <pt x="432" y="809" on="0"/>
        <pt x="432" y="735" on="1"/>
        <pt x="432" y="0" on="1"/>
        <pt x="160" y="0" on="1"/>
        <pt x="160" y="1074" on="1"/>
        <pt x="432" y="1074" on="1"/>
        <pt x="432" y="979" on="1"/>
        <pt x="569" y="1099" on="0"/>
        <pt x="935" y="1099" on="0"/>
        <pt x="1102" y="911" on="0"/>
        <pt x="1102" y="770" on="1"/>
        <pt x="1102" y="0" on="1"/>
        <pt x="830" y="0" on="1"/>
      </contour>
    </TTGlyph>
    <TTGlyph name="ncaron" xMin="160" yMin="0" xMax="1102" yMax="1583">
      <component glyphName="caron" x="352" y="67" flags="0x1004"/>
      <component glyphName="n" x="0" y="0" flags="0x1204"/>
    </TTGlyph>
    <TTGlyph name="ncommaaccent" xMin="160" yMin="-849" xMax="1102" yMax="1099">
      <component glyphName="uni0326" x="268" y="-78" flags="0x1004"/>
      <component glyphName="n" x="0" y="0" flags="0x1204"/>
    </TTGlyph>
    <TTGlyph name="nine" xMin="180" yMin="0" xMax="1244" yMax="1503">
      <contour>
        <pt x="465" y="899" on="0"/>
        <pt x="576" y="789" on="0"/>
        <pt x="851" y="789" on="0"/>
        <pt x="952" y="902" on="0"/>
        <pt x="952" y="1189" on="0"/>
        <pt x="853" y="1289" on="0"/>
        <pt x="576" y="1289" on="0"/>
        <pt x="465" y="1184" on="0"/>
      </contour>
      <contour>
        <pt x="821" y="589" on="1"/>
        <pt x="759" y="569" on="0"/>
        <pt x="653" y="569" on="1"/>
        <pt x="429" y="569" on="0"/>
        <pt x="180" y="781" on="0"/>
        <pt x="180" y="1294" on="0"/>
        <pt x="442" y="1503" on="0"/>
        <pt x="997" y="1503" on="0"/>
        <pt x="1244" y="1282" on="0"/>
        <pt x="1244" y="786" on="0"/>
        <pt x="1109" y="528" on="1"/>
        <pt x="819" y="0" on="1"/>
        <pt x="499" y="0" on="1"/>
      </contour>
    </TTGlyph>
    <TTGlyph name="notequal" xMin="112" yMin="0" xMax="768" yMax="1176">
      <contour>
        <pt x="112" y="740" on="1"/>
        <pt x="112" y="913" on="1"/>
        <pt x="474" y="913" on="1"/>
        <pt x="565" y="1176" on="1"/>
        <pt x="708" y="1176" on="1"/>
        <pt x="617" y="913" on="1"/>
        <pt x="768" y="913" on="1"/>
        <pt x="768" y="740" on="1"/>
        <pt x="556" y="740" on="1"/>
        <pt x="488" y="544" on="1"/>
        <pt x="768" y="544" on="1"/>
        <pt x="768" y="371" on="1"/>
        <pt x="428" y="371" on="1"/>
        <pt x="299" y="0" on="1"/>
        <pt x="156" y="0" on="1"/>
        <pt x="285" y="371" on="1"/>
        <pt x="112" y="371" on="1"/>
        <pt x="112" y="544" on="1"/>
        <pt x="345" y="544" on="1"/>
        <pt x="413" y="740" on="1"/>
      </contour>
    </TTGlyph>
    <TTGlyph name="ntilde" xMin="160" yMin="0" xMax="1102" yMax="1560">
      <component glyphName="tilde" x="252" y="52" flags="0x1004"/>
      <component glyphName="n" x="0" y="0" flags="0x1204"/>
    </TTGlyph>
    <TTGlyph name="numbersign" xMin="104" yMin="0" xMax="1268" yMax="1477">
      <contour>
        <pt x="536" y="618" on="1"/>
        <pt x="793" y="618" on="1"/>
        <pt x="843" y="896" on="1"/>
        <pt x="584" y="896" on="1"/>
      </contour>
      <contour>
        <pt x="223" y="0" on="1"/>
        <pt x="309" y="478" on="1"/>
        <pt x="104" y="478" on="1"/>
        <pt x="104" y="618" on="1"/>
        <pt x="334" y="618" on="1"/>
        <pt x="384" y="896" on="1"/>
        <pt x="128" y="896" on="1"/>
        <pt x="128" y="1036" on="1"/>
        <pt x="408" y="1036" on="1"/>
        <pt x="487" y="1477" on="1"/>
        <pt x="685" y="1477" on="1"/>
        <pt x="609" y="1036" on="1"/>
        <pt x="868" y="1036" on="1"/>
        <pt x="947" y="1477" on="1"/>
        <pt x="1145" y="1477" on="1"/>
        <pt x="1069" y="1036" on="1"/>
        <pt x="1268" y="1036" on="1"/>
        <pt x="1268" y="896" on="1"/>
        <pt x="1044" y="896" on="1"/>
        <pt x="996" y="618" on="1"/>
        <pt x="1244" y="618" on="1"/>
        <pt x="1244" y="478" on="1"/>
        <pt x="971" y="478" on="1"/>
        <pt x="889" y="0" on="1"/>
        <pt x="683" y="0" on="1"/>
        <pt x="769" y="478" on="1"/>
        <pt x="512" y="478" on="1"/>
        <pt x="429" y="0" on="1"/>
      </contour>
    </TTGlyph>
    <TTGlyph name="o" xMin="124" yMin="-23" xMax="1056" yMax="1097">
      <contour>
        <pt x="590" y="-23" on="1"/>
        <pt x="124" y="-23" on="0"/>
        <pt x="124" y="325" on="1"/>
        <pt x="124" y="748" on="1"/>
        <pt x="124" y="913" on="0"/>
        <pt x="369" y="1097" on="0"/>
        <pt x="810" y="1097" on="0"/>
        <pt x="1056" y="912" on="0"/>
        <pt x="1056" y="748" on="1"/>
        <pt x="1056" y="325" on="1"/>
        <pt x="1056" y="66" on="0"/>
        <pt x="810" y="1" on="1"/>
        <pt x="718" y="-23" on="0"/>
      </contour>
      <contour>
        <pt x="590" y="166" on="1"/>
        <pt x="784" y="166" on="0"/>
        <pt x="784" y="313" on="1"/>
        <pt x="784" y="760" on="1"/>
        <pt x="784" y="839" on="0"/>
        <pt x="686" y="907" on="0"/>
        <pt x="590" y="907" on="1"/>
        <pt x="396" y="907" on="0"/>
        <pt x="396" y="760" on="1"/>
        <pt x="396" y="313" on="1"/>
        <pt x="396" y="234" on="0"/>
        <pt x="493" y="166" on="0"/>
      </contour>
    </TTGlyph>
    <TTGlyph name="oacute" xMin="124" yMin="-23" xMax="1056" yMax="1646">
      <component glyphName="acute" x="410" y="124" flags="0x1004"/>
      <component glyphName="o" x="0" y="0" flags="0x1204"/>
    </TTGlyph>
    <TTGlyph name="obreve" xMin="124" yMin="-23" xMax="1056" yMax="1506">
      <component glyphName="breve" x="324" y="-10" flags="0x1004"/>
      <component glyphName="o" x="0" y="0" flags="0x1204"/>
    </TTGlyph>
    <TTGlyph name="ocircumflex" xMin="124" yMin="-23" xMax="1056" yMax="1581">
      <component glyphName="circumflex" x="310" y="65" flags="0x1004"/>
      <component glyphName="o" x="0" y="0" flags="0x1204"/>
    </TTGlyph>
    <TTGlyph name="odieresis" xMin="124" yMin="-23" xMax="1056" yMax="1514">
      <component glyphName="dieresis" x="88" y="37" flags="0x1004"/>
      <component glyphName="o" x="0" y="0" flags="0x1204"/>
    </TTGlyph>
    <TTGlyph name="oe" xMin="124" yMin="-23" xMax="1670" yMax="1097">
      <contour>
        <pt x="1042" y="655" on="1"/>
        <pt x="1413" y="655" on="1"/>
        <pt x="1413" y="765" on="1"/>
        <pt x="1413" y="848" on="0"/>
        <pt x="1319" y="907" on="0"/>
        <pt x="1138" y="907" on="0"/>
        <pt x="1042" y="841" on="0"/>
        <pt x="1042" y="760" on="1"/>
      </contour>
      <contour>
        <pt x="584" y="166" on="1"/>
        <pt x="769" y="166" on="0"/>
        <pt x="769" y="314" on="1"/>
        <pt x="769" y="762" on="1"/>
        <pt x="769" y="840" on="0"/>
        <pt x="679" y="907" on="0"/>
        <pt x="493" y="907" on="0"/>
        <pt x="397" y="839" on="0"/>
        <pt x="397" y="762" on="1"/>
        <pt x="397" y="314" on="1"/>
        <pt x="397" y="234" on="0"/>
        <pt x="489" y="166" on="0"/>
      </contour>
      <contour>
        <pt x="905" y="90" on="1"/>
        <pt x="789" y="-23" on="0"/>
        <pt x="341" y="-23" on="0"/>
        <pt x="124" y="157" on="0"/>
        <pt x="124" y="326" on="1"/>
        <pt x="124" y="749" on="1"/>
        <pt x="124" y="913" on="0"/>
        <pt x="373" y="1097" on="0"/>
        <pt x="790" y="1097" on="0"/>
        <pt x="903" y="977" on="1"/>
        <pt x="1014" y="1097" on="0"/>
        <pt x="1220" y="1097" on="1"/>
        <pt x="1670" y="1097" on="0"/>
        <pt x="1670" y="745" on="1"/>
        <pt x="1670" y="512" on="1"/>
        <pt x="1042" y="512" on="1"/>
        <pt x="1042" y="321" on="1"/>
        <pt x="1042" y="237" on="0"/>
        <pt x="1136" y="166" on="0"/>
        <pt x="1278" y="166" on="0"/>
        <pt x="1339" y="179" on="0"/>
        <pt x="1365" y="198" on="1"/>
        <pt x="1414" y="234" on="0"/>
        <pt x="1416" y="357" on="1"/>
        <pt x="1670" y="357" on="1"/>
        <pt x="1664" y="93" on="0"/>
        <pt x="1502" y="21" on="1"/>
        <pt x="1403" y="-23" on="0"/>
        <pt x="1031" y="-23" on="0"/>
      </contour>
    </TTGlyph>
    <TTGlyph name="ogonek" xMin="61" yMin="-508" xMax="422" yMax="9">
      <contour>
        <pt x="329" y="9" on="1"/>
        <pt x="246" y="-149" on="0"/>
        <pt x="246" y="-245" on="1"/>
        <pt x="246" y="-367" on="0"/>
        <pt x="422" y="-367" on="1"/>
        <pt x="409" y="-508" on="1"/>
        <pt x="403" y="-508" on="0"/>
        <pt x="397" y="-508" on="1"/>
        <pt x="61" y="-508" on="0"/>
        <pt x="61" y="-294" on="1"/>
        <pt x="61" y="-220" on="0"/>
        <pt x="145" y="-56" on="0"/>
        <pt x="214" y="9" on="1"/>
      </contour>
    </TTGlyph>
    <TTGlyph name="ograve" xMin="124" yMin="-23" xMax="1056" yMax="1646">
      <component glyphName="grave" x="198" y="124" flags="0x1004"/>
      <component glyphName="o" x="0" y="0" flags="0x1204"/>
    </TTGlyph>
    <TTGlyph name="ohungarumlaut" xMin="124" yMin="-23" xMax="1139" yMax="1712">
      <component glyphName="hungarumlaut" x="211" y="216" flags="0x1004"/>
      <component glyphName="o" x="0" y="0" flags="0x1204"/>
    </TTGlyph>
    <TTGlyph name="omacron" xMin="124" yMin="-23" xMax="1056" yMax="1438">
      <component glyphName="uni02C9" x="387" y="30" flags="0x1004"/>
      <component glyphName="o" x="0" y="0" flags="0x1204"/>
    </TTGlyph>
    <TTGlyph name="one" xMin="199" yMin="0" xMax="1311" yMax="1476">
      <contour>
        <pt x="203" y="0" on="1"/>
        <pt x="203" y="209" on="1"/>
        <pt x="635" y="209" on="1"/>
        <pt x="635" y="1241" on="1"/>
        <pt x="225" y="1187" on="1"/>
        <pt x="199" y="1404" on="1"/>
        <pt x="727" y="1476" on="1"/>
        <pt x="932" y="1476" on="1"/>
        <pt x="932" y="209" on="1"/>
        <pt x="1311" y="209" on="1"/>
        <pt x="1311" y="0" on="1"/>
      </contour>
    </TTGlyph>
    <TTGlyph name="onehalf" xMin="128" yMin="-2" xMax="2381" yMax="1505">
      <contour>
        <pt x="1723" y="-2" on="1"/>
        <pt x="1678" y="159" on="1"/>
        <pt x="2033" y="518" on="1"/>
        <pt x="2103" y="588" on="0"/>
        <pt x="2167" y="702" on="0"/>
        <pt x="2168" y="771" on="1"/>
        <pt x="2168" y="840" on="0"/>
        <pt x="2135" y="876" on="1"/>
        <pt x="2103" y="911" on="0"/>
        <pt x="1929" y="911" on="0"/>
        <pt x="1870" y="826" on="0"/>
        <pt x="1870" y="706" on="1"/>
        <pt x="1652" y="706" on="1"/>
        <pt x="1652" y="900" on="0"/>
        <pt x="1816" y="1071" on="0"/>
        <pt x="2025" y="1071" on="1"/>
        <pt x="2381" y="1071" on="0"/>
        <pt x="2381" y="767" on="1"/>
        <pt x="2381" y="661" on="0"/>
        <pt x="2272" y="489" on="0"/>
        <pt x="2166" y="386" on="1"/>
        <pt x="1933" y="160" on="1"/>
        <pt x="2370" y="160" on="1"/>
        <pt x="2370" y="-2" on="1"/>
      </contour>
      <contour>
        <pt x="879" y="0" on="1"/>
        <pt x="1520" y="1505" on="1"/>
        <pt x="1694" y="1505" on="1"/>
        <pt x="1053" y="0" on="1"/>
      </contour>
      <contour>
        <pt x="131" y="422" on="1"/>
        <pt x="130" y="569" on="1"/>
        <pt x="398" y="569" on="1"/>
        <pt x="398" y="1318" on="1"/>
        <pt x="146" y="1279" on="1"/>
        <pt x="128" y="1424" on="1"/>
        <pt x="464" y="1477" on="1"/>
        <pt x="610" y="1477" on="1"/>
        <pt x="610" y="569" on="1"/>
        <pt x="856" y="569" on="1"/>
        <pt x="856" y="422" on="1"/>
      </contour>
    </TTGlyph>
    <TTGlyph name="onequarter" xMin="128" yMin="0" xMax="2305" yMax="1505">
      <contour>
        <pt x="849" y="0" on="1"/>
        <pt x="1490" y="1505" on="1"/>
        <pt x="1664" y="1505" on="1"/>
        <pt x="1023" y="0" on="1"/>
      </contour>
      <contour>
        <pt x="1978" y="0" on="1"/>
        <pt x="1978" y="210" on="1"/>
        <pt x="1477" y="210" on="1"/>
        <pt x="1477" y="369" on="1"/>
        <pt x="1757" y="1074" on="1"/>
        <pt x="1948" y="1074" on="1"/>
        <pt x="1679" y="373" on="1"/>
        <pt x="1978" y="373" on="1"/>
        <pt x="1978" y="615" on="1"/>
        <pt x="2137" y="615" on="1"/>
        <pt x="2137" y="373" on="1"/>
        <pt x="2305" y="373" on="1"/>
        <pt x="2305" y="210" on="1"/>
        <pt x="2137" y="210" on="1"/>
        <pt x="2137" y="0" on="1"/>
      </contour>
      <contour>
        <pt x="131" y="422" on="1"/>
        <pt x="130" y="569" on="1"/>
        <pt x="398" y="569" on="1"/>
        <pt x="398" y="1318" on="1"/>
        <pt x="146" y="1279" on="1"/>
        <pt x="128" y="1424" on="1"/>
        <pt x="464" y="1477" on="1"/>
        <pt x="610" y="1477" on="1"/>
        <pt x="610" y="569" on="1"/>
        <pt x="856" y="569" on="1"/>
        <pt x="856" y="422" on="1"/>
      </contour>
    </TTGlyph>
    <TTGlyph name="ordfeminine" xMin="134" yMin="517" xMax="940" yMax="1478">
      <contour>
        <pt x="344" y="802" on="1"/>
        <pt x="344" y="684" on="0"/>
        <pt x="458" y="684" on="1"/>
        <pt x="459" y="684" on="1"/>
        <pt x="506" y="684" on="0"/>
        <pt x="606" y="726" on="0"/>
        <pt x="633" y="770" on="1"/>
        <pt x="633" y="1002" on="1"/>
        <pt x="593" y="963" on="0"/>
        <pt x="344" y="889" on="0"/>
      </contour>
      <contour>
        <pt x="386" y="517" on="1"/>
        <pt x="384" y="518" on="1"/>
        <pt x="273" y="518" on="0"/>
        <pt x="134" y="656" on="0"/>
        <pt x="134" y="787" on="1"/>
        <pt x="134" y="827" on="0"/>
        <pt x="149" y="888" on="0"/>
        <pt x="178" y="921" on="1"/>
        <pt x="236" y="986" on="0"/>
        <pt x="470" y="1056" on="1"/>
        <pt x="576" y="1088" on="0"/>
        <pt x="604" y="1114" on="0"/>
        <pt x="634" y="1152" on="0"/>
        <pt x="634" y="1261" on="0"/>
        <pt x="573" y="1316" on="0"/>
        <pt x="424" y="1316" on="0"/>
        <pt x="366" y="1253" on="0"/>
        <pt x="366" y="1194" on="1"/>
        <pt x="366" y="1158" on="1"/>
        <pt x="161" y="1158" on="1"/>
        <pt x="161" y="1185" on="1"/>
        <pt x="161" y="1323" on="0"/>
        <pt x="247" y="1400" on="1"/>
        <pt x="332" y="1478" on="0"/>
        <pt x="512" y="1478" on="1"/>
        <pt x="854" y="1478" on="0"/>
        <pt x="854" y="1166" on="1"/>
        <pt x="854" y="812" on="1"/>
        <pt x="854" y="748" on="0"/>
        <pt x="888" y="701" on="0"/>
        <pt x="940" y="701" on="1"/>
        <pt x="922" y="531" on="1"/>
        <pt x="837" y="531" on="1"/>
        <pt x="754" y="531" on="0"/>
        <pt x="680" y="591" on="0"/>
        <pt x="653" y="656" on="1"/>
        <pt x="612" y="599" on="0"/>
        <pt x="473" y="517" on="0"/>
      </contour>
    </TTGlyph>
    <TTGlyph name="ordmasculine" xMin="136" yMin="512" xMax="888" yMax="1475">
      <contour>
        <pt x="513" y="512" on="1"/>
        <pt x="136" y="512" on="0"/>
        <pt x="136" y="811" on="1"/>
        <pt x="136" y="1175" on="1"/>
        <pt x="136" y="1316" on="0"/>
        <pt x="333" y="1475" on="0"/>
        <pt x="690" y="1475" on="0"/>
        <pt x="888" y="1316" on="0"/>
        <pt x="888" y="1175" on="1"/>
        <pt x="888" y="811" on="1"/>
        <pt x="888" y="666" on="0"/>
        <pt x="715" y="513" on="0"/>
      </contour>
      <contour>
        <pt x="509" y="675" on="1"/>
        <pt x="511" y="675" on="1"/>
        <pt x="667" y="675" on="0"/>
        <pt x="667" y="802" on="1"/>
        <pt x="667" y="1187" on="1"/>
        <pt x="667" y="1255" on="0"/>
        <pt x="588" y="1314" on="0"/>
        <pt x="510" y="1314" on="1"/>
        <pt x="352" y="1314" on="0"/>
        <pt x="352" y="1187" on="1"/>
        <pt x="352" y="802" on="1"/>
        <pt x="352" y="734" on="0"/>
        <pt x="430" y="675" on="0"/>
      </contour>
    </TTGlyph>
    <TTGlyph name="oslash" xMin="132" yMin="-214" xMax="1064" yMax="1281">
      <contour>
        <pt x="705" y="892" on="1"/>
        <pt x="662" y="907" on="0"/>
        <pt x="598" y="907" on="1"/>
        <pt x="404" y="907" on="0"/>
        <pt x="404" y="760" on="1"/>
        <pt x="404" y="313" on="1"/>
        <pt x="404" y="232" on="0"/>
        <pt x="455" y="198" on="1"/>
      </contour>
      <contour>
        <pt x="1064" y="325" on="1"/>
        <pt x="1064" y="-23" on="0"/>
        <pt x="624" y="-23" on="1"/>
        <pt x="522" y="-23" on="0"/>
        <pt x="459" y="-14" on="1"/>
        <pt x="387" y="-214" on="1"/>
        <pt x="315" y="-194" on="1"/>
        <pt x="385" y="1" on="1"/>
        <pt x="132" y="67" on="0"/>
        <pt x="132" y="325" on="1"/>
        <pt x="132" y="748" on="1"/>
        <pt x="132" y="913" on="0"/>
        <pt x="377" y="1097" on="0"/>
        <pt x="598" y="1097" on="1"/>
        <pt x="694" y="1097" on="0"/>
        <pt x="772" y="1079" on="1"/>
        <pt x="844" y="1281" on="1"/>
        <pt x="916" y="1260" on="1"/>
        <pt x="843" y="1057" on="1"/>
        <pt x="950" y="1016" on="0"/>
        <pt x="1064" y="858" on="0"/>
        <pt x="1064" y="748" on="1"/>
      </contour>
      <contour>
        <pt x="598" y="166" on="1"/>
        <pt x="791" y="166" on="0"/>
        <pt x="791" y="313" on="1"/>
        <pt x="791" y="760" on="1"/>
        <pt x="791" y="813" on="0"/>
        <pt x="768" y="847" on="1"/>
        <pt x="525" y="172" on="1"/>
        <pt x="558" y="166" on="0"/>
      </contour>
    </TTGlyph>
    <TTGlyph name="oslashacute" xMin="132" yMin="-214" xMax="1064" yMax="1830">
      <component glyphName="acute" x="418" y="308" flags="0x1004"/>
      <component glyphName="oslash" x="0" y="0" flags="0x1204"/>
    </TTGlyph>
    <TTGlyph name="otilde" xMin="124" yMin="-23" xMax="1056" yMax="1558">
      <component glyphName="tilde" x="210" y="50" flags="0x1004"/>
      <component glyphName="o" x="0" y="0" flags="0x1204"/>
    </TTGlyph>
    <TTGlyph name="p" xMin="160" yMin="-410" xMax="1078" yMax="1097">
      <contour>
        <pt x="614" y="166" on="1"/>
        <pt x="806" y="166" on="0"/>
        <pt x="806" y="320" on="1"/>
        <pt x="806" y="755" on="1"/>
        <pt x="806" y="907" on="0"/>
        <pt x="623" y="907" on="1"/>
        <pt x="562" y="907" on="0"/>
        <pt x="458" y="867" on="0"/>
        <pt x="432" y="841" on="1"/>
        <pt x="432" y="213" on="1"/>
        <pt x="520" y="166" on="0"/>
      </contour>
      <contour>
        <pt x="160" y="-410" on="1"/>
        <pt x="160" y="1074" on="1"/>
        <pt x="350" y="1074" on="1"/>
        <pt x="377" y="1004" on="1"/>
        <pt x="504" y="1097" on="0"/>
        <pt x="861" y="1097" on="0"/>
        <pt x="1078" y="908" on="0"/>
        <pt x="1078" y="751" on="1"/>
        <pt x="1078" y="326" on="1"/>
        <pt x="1078" y="182" on="0"/>
        <pt x="858" y="-23" on="0"/>
        <pt x="637" y="-23" on="1"/>
        <pt x="522" y="-23" on="0"/>
        <pt x="432" y="17" on="1"/>
        <pt x="432" y="-410" on="1"/>
      </contour>
    </TTGlyph>
    <TTGlyph name="paragraph" xMin="95" yMin="0" xMax="1022" yMax="1476">
      <contour>
        <pt x="447" y="0" on="1"/>
        <pt x="447" y="858" on="1"/>
        <pt x="294" y="859" on="0"/>
        <pt x="95" y="1022" on="0"/>
        <pt x="95" y="1173" on="1"/>
        <pt x="94" y="1396" on="0"/>
        <pt x="322" y="1458" on="1"/>
        <pt x="386" y="1476" on="0"/>
        <pt x="462" y="1476" on="1"/>
        <pt x="1022" y="1476" on="1"/>
        <pt x="1022" y="0" on="1"/>
        <pt x="850" y="0" on="1"/>
        <pt x="850" y="1334" on="1"/>
        <pt x="619" y="1334" on="1"/>
        <pt x="619" y="0" on="1"/>
      </contour>
    </TTGlyph>
    <TTGlyph name="parenleft" xMin="208" yMin="-159" xMax="782" yMax="1575">
      <contour>
        <pt x="782" y="-159" on="1"/>
        <pt x="304" y="-159" on="0"/>
        <pt x="226" y="224" on="1"/>
        <pt x="208" y="311" on="0"/>
        <pt x="208" y="420" on="1"/>
        <pt x="208" y="986" on="1"/>
        <pt x="208" y="1425" on="0"/>
        <pt x="508" y="1534" on="1"/>
        <pt x="621" y="1575" on="0"/>
        <pt x="782" y="1575" on="1"/>
        <pt x="782" y="1359" on="1"/>
        <pt x="674" y="1359" on="0"/>
        <pt x="612" y="1331" on="1"/>
        <pt x="486" y="1274" on="0"/>
        <pt x="487" y="1020" on="1"/>
        <pt x="487" y="390" on="1"/>
        <pt x="488" y="138" on="0"/>
        <pt x="612" y="83" on="1"/>
        <pt x="674" y="56" on="0"/>
        <pt x="782" y="56" on="1"/>
      </contour>
    </TTGlyph>
    <TTGlyph name="parenright" xMin="181" yMin="-159" xMax="754" yMax="1575">
      <contour>
        <pt x="181" y="-159" on="1"/>
        <pt x="181" y="57" on="1"/>
        <pt x="288" y="57" on="0"/>
        <pt x="350" y="85" on="1"/>
        <pt x="476" y="142" on="0"/>
        <pt x="476" y="395" on="1"/>
        <pt x="476" y="1025" on="1"/>
        <pt x="476" y="1277" on="0"/>
        <pt x="352" y="1332" on="1"/>
        <pt x="290" y="1359" on="0"/>
        <pt x="181" y="1359" on="1"/>
        <pt x="181" y="1575" on="1"/>
        <pt x="502" y="1575" on="0"/>
        <pt x="754" y="1270" on="0"/>
        <pt x="754" y="996" on="1"/>
        <pt x="754" y="430" on="1"/>
        <pt x="754" y="-10" on="0"/>
        <pt x="455" y="-118" on="1"/>
        <pt x="342" y="-159" on="0"/>
      </contour>
    </TTGlyph>
    <TTGlyph name="percent" xMin="196" yMin="-19" xMax="1918" yMax="1467">
      <contour>
        <pt x="694" y="0" on="1"/>
        <pt x="1237" y="1446" on="1"/>
        <pt x="1410" y="1446" on="1"/>
        <pt x="872" y="0" on="1"/>
      </contour>
      <contour>
        <pt x="1778" y="-19" on="0"/>
        <pt x="1450" y="-19" on="0"/>
        <pt x="1313" y="177" on="0"/>
        <pt x="1313" y="360" on="1"/>
        <pt x="1313" y="413" on="1"/>
        <pt x="1313" y="598" on="0"/>
        <pt x="1448" y="784" on="0"/>
        <pt x="1779" y="784" on="0"/>
        <pt x="1916" y="599" on="0"/>
        <pt x="1918" y="414" on="1"/>
        <pt x="1918" y="360" on="1"/>
        <pt x="1918" y="177" on="0"/>
      </contour>
      <contour>
        <pt x="1614" y="111" on="1"/>
        <pt x="1718" y="112" on="0"/>
        <pt x="1742" y="206" on="1"/>
        <pt x="1756" y="258" on="0"/>
        <pt x="1755" y="346" on="1"/>
        <pt x="1755" y="433" on="1"/>
        <pt x="1755" y="576" on="0"/>
        <pt x="1687" y="654" on="0"/>
        <pt x="1631" y="654" on="1"/>
        <pt x="1506" y="654" on="0"/>
        <pt x="1485" y="571" on="1"/>
        <pt x="1473" y="520" on="0"/>
        <pt x="1473" y="435" on="1"/>
        <pt x="1473" y="346" on="1"/>
        <pt x="1473" y="200" on="0"/>
        <pt x="1543" y="111" on="0"/>
      </contour>
      <contour>
        <pt x="196" y="1043" on="1"/>
        <pt x="196" y="1096" on="1"/>
        <pt x="196" y="1281" on="0"/>
        <pt x="331" y="1467" on="0"/>
        <pt x="661" y="1467" on="0"/>
        <pt x="799" y="1282" on="0"/>
        <pt x="801" y="1097" on="1"/>
        <pt x="801" y="1043" on="1"/>
        <pt x="801" y="860" on="0"/>
        <pt x="660" y="664" on="0"/>
        <pt x="327" y="664" on="0"/>
        <pt x="196" y="866" on="0"/>
      </contour>
      <contour>
        <pt x="560" y="806" on="1"/>
        <pt x="609" y="828" on="0"/>
        <pt x="638" y="940" on="0"/>
        <pt x="638" y="1029" on="1"/>
        <pt x="638" y="1116" on="1"/>
        <pt x="638" y="1258" on="0"/>
        <pt x="570" y="1337" on="0"/>
        <pt x="514" y="1337" on="1"/>
        <pt x="389" y="1337" on="0"/>
        <pt x="368" y="1254" on="1"/>
        <pt x="356" y="1203" on="0"/>
        <pt x="356" y="1118" on="1"/>
        <pt x="356" y="1029" on="1"/>
        <pt x="356" y="883" on="0"/>
        <pt x="426" y="794" on="0"/>
        <pt x="534" y="794" on="0"/>
      </contour>
    </TTGlyph>
    <TTGlyph name="period" xMin="235" yMin="0" xMax="533" yMax="284">
      <contour>
        <pt x="235" y="0" on="1"/>
        <pt x="235" y="284" on="1"/>
        <pt x="533" y="284" on="1"/>
        <pt x="533" y="0" on="1"/>
      </contour>
    </TTGlyph>
    <TTGlyph name="periodcentered" xMin="132" yMin="780" xMax="380" yMax="1025">
      <contour>
        <pt x="132" y="780" on="1"/>
        <pt x="132" y="1025" on="1"/>
        <pt x="380" y="1025" on="1"/>
        <pt x="380" y="780" on="1"/>
      </contour>
    </TTGlyph>
    <TTGlyph name="perthousand" xMin="128" yMin="-19" xMax="2605" yMax="1461">
      <contour>
        <pt x="626" y="0" on="1"/>
        <pt x="1169" y="1446" on="1"/>
        <pt x="1342" y="1446" on="1"/>
        <pt x="804" y="0" on="1"/>
      </contour>
      <contour>
        <pt x="2464" y="-19" on="0"/>
        <pt x="2136" y="-19" on="0"/>
        <pt x="1999" y="177" on="0"/>
        <pt x="1999" y="360" on="1"/>
        <pt x="1999" y="413" on="1"/>
        <pt x="1999" y="598" on="0"/>
        <pt x="2134" y="784" on="0"/>
        <pt x="2465" y="784" on="0"/>
        <pt x="2603" y="599" on="0"/>
        <pt x="2605" y="414" on="1"/>
        <pt x="2605" y="360" on="1"/>
        <pt x="2605" y="177" on="0"/>
      </contour>
      <contour>
        <pt x="2300" y="111" on="1"/>
        <pt x="2404" y="112" on="0"/>
        <pt x="2428" y="206" on="1"/>
        <pt x="2442" y="258" on="0"/>
        <pt x="2442" y="346" on="1"/>
        <pt x="2442" y="433" on="1"/>
        <pt x="2442" y="575" on="0"/>
        <pt x="2373" y="654" on="0"/>
        <pt x="2317" y="654" on="1"/>
        <pt x="2192" y="654" on="0"/>
        <pt x="2171" y="571" on="1"/>
        <pt x="2159" y="520" on="0"/>
        <pt x="2159" y="435" on="1"/>
        <pt x="2159" y="346" on="1"/>
        <pt x="2159" y="200" on="0"/>
        <pt x="2229" y="111" on="0"/>
      </contour>
      <contour>
        <pt x="1710" y="-19" on="0"/>
        <pt x="1382" y="-19" on="0"/>
        <pt x="1245" y="177" on="0"/>
        <pt x="1245" y="360" on="1"/>
        <pt x="1245" y="413" on="1"/>
        <pt x="1245" y="598" on="0"/>
        <pt x="1380" y="784" on="0"/>
        <pt x="1711" y="784" on="0"/>
        <pt x="1849" y="599" on="0"/>
        <pt x="1851" y="414" on="1"/>
        <pt x="1851" y="360" on="1"/>
        <pt x="1851" y="177" on="0"/>
      </contour>
      <contour>
        <pt x="1546" y="111" on="1"/>
        <pt x="1650" y="112" on="0"/>
        <pt x="1674" y="206" on="1"/>
        <pt x="1688" y="258" on="0"/>
        <pt x="1688" y="346" on="1"/>
        <pt x="1688" y="433" on="1"/>
        <pt x="1688" y="575" on="0"/>
        <pt x="1619" y="654" on="0"/>
        <pt x="1563" y="654" on="1"/>
        <pt x="1438" y="654" on="0"/>
        <pt x="1417" y="571" on="1"/>
        <pt x="1405" y="520" on="0"/>
        <pt x="1405" y="435" on="1"/>
        <pt x="1405" y="346" on="1"/>
        <pt x="1405" y="200" on="0"/>
        <pt x="1475" y="111" on="0"/>
      </contour>
      <contour>
        <pt x="593" y="658" on="0"/>
        <pt x="265" y="658" on="0"/>
        <pt x="128" y="854" on="0"/>
        <pt x="128" y="1037" on="1"/>
        <pt x="128" y="1090" on="1"/>
        <pt x="128" y="1275" on="0"/>
        <pt x="263" y="1461" on="0"/>
        <pt x="594" y="1461" on="0"/>
        <pt x="731" y="1276" on="0"/>
        <pt x="733" y="1091" on="1"/>
        <pt x="733" y="1037" on="1"/>
        <pt x="733" y="854" on="0"/>
      </contour>
      <contour>
        <pt x="429" y="788" on="1"/>
        <pt x="534" y="788" on="0"/>
        <pt x="557" y="882" on="1"/>
        <pt x="570" y="935" on="0"/>
        <pt x="570" y="1023" on="1"/>
        <pt x="570" y="1110" on="1"/>
        <pt x="570" y="1253" on="0"/>
        <pt x="502" y="1331" on="0"/>
        <pt x="446" y="1331" on="1"/>
        <pt x="321" y="1331" on="0"/>
        <pt x="300" y="1248" on="1"/>
        <pt x="288" y="1197" on="0"/>
        <pt x="288" y="1112" on="1"/>
        <pt x="288" y="1023" on="1"/>
        <pt x="288" y="877" on="0"/>
        <pt x="358" y="788" on="0"/>
      </contour>
    </TTGlyph>
    <TTGlyph name="plus" xMin="132" yMin="156" xMax="834" yMax="968">
      <contour>
        <pt x="401" y="156" on="1"/>
        <pt x="401" y="487" on="1"/>
        <pt x="132" y="487" on="1"/>
        <pt x="132" y="649" on="1"/>
        <pt x="401" y="649" on="1"/>
        <pt x="401" y="968" on="1"/>
        <pt x="565" y="968" on="1"/>
        <pt x="565" y="649" on="1"/>
        <pt x="834" y="649" on="1"/>
        <pt x="834" y="487" on="1"/>
        <pt x="565" y="487" on="1"/>
        <pt x="565" y="156" on="1"/>
      </contour>
    </TTGlyph>
    <TTGlyph name="plusminus" xMin="171" yMin="0" xMax="853" yMax="1018">
      <contour>
        <pt x="171" y="0" on="1"/>
        <pt x="171" y="165" on="1"/>
        <pt x="853" y="165" on="1"/>
        <pt x="853" y="0" on="1"/>
      </contour>
      <contour>
        <pt x="429" y="326" on="1"/>
        <pt x="429" y="591" on="1"/>
        <pt x="171" y="591" on="1"/>
        <pt x="171" y="755" on="1"/>
        <pt x="429" y="755" on="1"/>
        <pt x="429" y="1018" on="1"/>
        <pt x="595" y="1018" on="1"/>
        <pt x="595" y="755" on="1"/>
        <pt x="853" y="755" on="1"/>
        <pt x="853" y="591" on="1"/>
        <pt x="595" y="591" on="1"/>
        <pt x="595" y="326" on="1"/>
      </contour>
    </TTGlyph>
    <TTGlyph name="product" xMin="152" yMin="-14" xMax="1624" yMax="1456">
      <contour>
        <pt x="1315" y="99" on="0"/>
        <pt x="1042" y="-14" on="0"/>
        <pt x="684" y="-14" on="0"/>
        <pt x="347" y="178" on="0"/>
        <pt x="152" y="516" on="0"/>
        <pt x="152" y="927" on="0"/>
        <pt x="347" y="1264" on="0"/>
        <pt x="684" y="1456" on="0"/>
        <pt x="1093" y="1456" on="0"/>
        <pt x="1431" y="1264" on="0"/>
        <pt x="1624" y="927" on="0"/>
        <pt x="1624" y="567" on="0"/>
        <pt x="1510" y="294" on="0"/>
      </contour>
      <contour>
        <pt x="422" y="249" on="0"/>
        <pt x="711" y="82" on="0"/>
        <pt x="1070" y="82" on="0"/>
        <pt x="1358" y="249" on="0"/>
        <pt x="1518" y="541" on="0"/>
        <pt x="1518" y="902" on="0"/>
        <pt x="1358" y="1194" on="0"/>
        <pt x="1070" y="1361" on="0"/>
        <pt x="711" y="1361" on="0"/>
        <pt x="422" y="1194" on="0"/>
        <pt x="261" y="902" on="0"/>
        <pt x="261" y="542" on="0"/>
      </contour>
      <contour>
        <pt x="783" y="742" on="1"/>
        <pt x="969" y="742" on="1"/>
        <pt x="1103" y="742" on="0"/>
        <pt x="1105" y="877" on="1"/>
        <pt x="1105" y="901" on="1"/>
        <pt x="1105" y="1062" on="0"/>
        <pt x="978" y="1062" on="1"/>
        <pt x="783" y="1062" on="1"/>
      </contour>
      <contour>
        <pt x="652" y="319" on="1"/>
        <pt x="652" y="1153" on="1"/>
        <pt x="974" y="1153" on="1"/>
        <pt x="1231" y="1153" on="0"/>
        <pt x="1237" y="908" on="1"/>
        <pt x="1237" y="894" on="1"/>
        <pt x="1237" y="781" on="0"/>
        <pt x="1114" y="652" on="0"/>
        <pt x="961" y="652" on="1"/>
        <pt x="783" y="652" on="1"/>
        <pt x="783" y="319" on="1"/>
      </contour>
    </TTGlyph>
    <TTGlyph name="q" xMin="124" yMin="-410" xMax="1042" yMax="1097">
      <contour>
        <pt x="396" y="308" on="1"/>
        <pt x="396" y="166" on="0"/>
        <pt x="566" y="166" on="1"/>
        <pt x="688" y="166" on="0"/>
        <pt x="748" y="203" on="1"/>
        <pt x="768" y="215" on="0"/>
        <pt x="770" y="220" on="1"/>
        <pt x="770" y="839" on="1"/>
        <pt x="726" y="907" on="0"/>
        <pt x="588" y="907" on="1"/>
        <pt x="396" y="907" on="0"/>
        <pt x="396" y="756" on="1"/>
      </contour>
      <contour>
        <pt x="770" y="-410" on="1"/>
        <pt x="770" y="33" on="1"/>
        <pt x="672" y="-23" on="0"/>
        <pt x="550" y="-23" on="1"/>
        <pt x="317" y="-23" on="0"/>
        <pt x="124" y="174" on="0"/>
        <pt x="124" y="317" on="1"/>
        <pt x="124" y="750" on="1"/>
        <pt x="124" y="909" on="0"/>
        <pt x="349" y="1097" on="0"/>
        <pt x="543" y="1097" on="1"/>
        <pt x="624" y="1097" on="0"/>
        <pt x="772" y="1045" on="0"/>
        <pt x="820" y="1005" on="1"/>
        <pt x="839" y="1074" on="1"/>
        <pt x="1042" y="1074" on="1"/>
        <pt x="1042" y="-410" on="1"/>
      </contour>
    </TTGlyph>
    <TTGlyph name="question" xMin="130" yMin="0" xMax="1118" yMax="1501">
      <contour>
        <pt x="429" y="0" on="1"/>
        <pt x="429" y="245" on="1"/>
        <pt x="678" y="245" on="1"/>
        <pt x="678" y="0" on="1"/>
      </contour>
      <contour>
        <pt x="445" y="431" on="1"/>
        <pt x="693" y="740" on="1"/>
        <pt x="826" y="907" on="0"/>
        <pt x="826" y="1132" on="0"/>
        <pt x="794" y="1213" on="0"/>
        <pt x="772" y="1233" on="1"/>
        <pt x="723" y="1279" on="0"/>
        <pt x="518" y="1279" on="0"/>
        <pt x="450" y="1234" on="0"/>
        <pt x="436" y="1216" on="1"/>
        <pt x="404" y="1176" on="0"/>
        <pt x="404" y="1047" on="1"/>
        <pt x="404" y="962" on="1"/>
        <pt x="130" y="962" on="1"/>
        <pt x="130" y="1036" on="1"/>
        <pt x="130" y="1242" on="0"/>
        <pt x="239" y="1420" on="0"/>
        <pt x="445" y="1501" on="0"/>
        <pt x="577" y="1501" on="1"/>
        <pt x="710" y="1500" on="0"/>
        <pt x="782" y="1488" on="1"/>
        <pt x="921" y="1464" on="0"/>
        <pt x="1068" y="1337" on="0"/>
        <pt x="1118" y="1171" on="0"/>
        <pt x="1118" y="917" on="0"/>
        <pt x="996" y="698" on="0"/>
        <pt x="856" y="582" on="1"/>
        <pt x="674" y="431" on="1"/>
      </contour>
    </TTGlyph>
    <TTGlyph name="questiondown" xMin="145" yMin="-180" xMax="1133" yMax="1321">
      <component glyphName="question" x="1263" y="1321" scale="-1.0" flags="0x1004"/>
    </TTGlyph>
    <TTGlyph name="quotedbl" xMin="198" yMin="872" xMax="826" yMax="1516">
      <contour>
        <pt x="630" y="872" on="1"/>
        <pt x="572" y="1516" on="1"/>
        <pt x="826" y="1516" on="1"/>
        <pt x="749" y="872" on="1"/>
      </contour>
      <contour>
        <pt x="277" y="872" on="1"/>
        <pt x="198" y="1516" on="1"/>
        <pt x="451" y="1516" on="1"/>
        <pt x="396" y="872" on="1"/>
      </contour>
    </TTGlyph>
    <TTGlyph name="quotedblbase" xMin="296" yMin="-389" xMax="1117" yMax="276">
      <contour>
        <pt x="921" y="-389" on="1"/>
        <pt x="814" y="-343" on="1"/>
        <pt x="865" y="-285" on="0"/>
        <pt x="960" y="-92" on="0"/>
        <pt x="960" y="0" on="1"/>
        <pt x="795" y="0" on="1"/>
        <pt x="795" y="276" on="1"/>
        <pt x="1117" y="276" on="1"/>
        <pt x="1117" y="53" on="1"/>
        <pt x="1117" y="-80" on="0"/>
        <pt x="985" y="-331" on="0"/>
      </contour>
      <contour>
        <pt x="422" y="-389" on="1"/>
        <pt x="315" y="-343" on="1"/>
        <pt x="366" y="-285" on="0"/>
        <pt x="461" y="-92" on="0"/>
        <pt x="461" y="0" on="1"/>
        <pt x="296" y="0" on="1"/>
        <pt x="296" y="276" on="1"/>
        <pt x="618" y="276" on="1"/>
        <pt x="618" y="53" on="1"/>
        <pt x="618" y="-80" on="0"/>
        <pt x="486" y="-331" on="0"/>
      </contour>
    </TTGlyph>
    <TTGlyph name="quotedblleft" xMin="256" yMin="850" xMax="1054" yMax="1515">
      <contour>
        <pt x="732" y="850" on="1"/>
        <pt x="732" y="1073" on="1"/>
        <pt x="732" y="1206" on="0"/>
        <pt x="864" y="1457" on="0"/>
        <pt x="928" y="1515" on="1"/>
        <pt x="1035" y="1469" on="1"/>
        <pt x="984" y="1411" on="0"/>
        <pt x="889" y="1218" on="0"/>
        <pt x="889" y="1126" on="1"/>
        <pt x="1054" y="1126" on="1"/>
        <pt x="1054" y="850" on="1"/>
      </contour>
      <contour>
        <pt x="256" y="850" on="1"/>
        <pt x="256" y="1073" on="1"/>
        <pt x="256" y="1206" on="0"/>
        <pt x="388" y="1457" on="0"/>
        <pt x="452" y="1515" on="1"/>
        <pt x="559" y="1469" on="1"/>
        <pt x="508" y="1411" on="0"/>
        <pt x="413" y="1218" on="0"/>
        <pt x="413" y="1126" on="1"/>
        <pt x="578" y="1126" on="1"/>
        <pt x="578" y="850" on="1"/>
      </contour>
    </TTGlyph>
    <TTGlyph name="quotedblright" xMin="296" yMin="851" xMax="1094" yMax="1516">
      <contour>
        <pt x="898" y="851" on="1"/>
        <pt x="791" y="897" on="1"/>
        <pt x="842" y="955" on="0"/>
        <pt x="937" y="1148" on="0"/>
        <pt x="937" y="1240" on="1"/>
        <pt x="772" y="1240" on="1"/>
        <pt x="772" y="1516" on="1"/>
        <pt x="1094" y="1516" on="1"/>
        <pt x="1094" y="1293" on="1"/>
        <pt x="1094" y="1160" on="0"/>
        <pt x="962" y="909" on="0"/>
      </contour>
      <contour>
        <pt x="422" y="851" on="1"/>
        <pt x="315" y="897" on="1"/>
        <pt x="366" y="955" on="0"/>
        <pt x="461" y="1148" on="0"/>
        <pt x="461" y="1240" on="1"/>
        <pt x="296" y="1240" on="1"/>
        <pt x="296" y="1516" on="1"/>
        <pt x="618" y="1516" on="1"/>
        <pt x="618" y="1293" on="1"/>
        <pt x="618" y="1160" on="0"/>
        <pt x="486" y="909" on="0"/>
      </contour>
    </TTGlyph>
    <TTGlyph name="quoteleft" xMin="296" yMin="838" xMax="618" yMax="1503">
      <contour>
        <pt x="296" y="838" on="1"/>
        <pt x="296" y="1061" on="1"/>
        <pt x="296" y="1194" on="0"/>
        <pt x="428" y="1445" on="0"/>
        <pt x="492" y="1503" on="1"/>
        <pt x="599" y="1457" on="1"/>
        <pt x="548" y="1399" on="0"/>
        <pt x="453" y="1206" on="0"/>
        <pt x="453" y="1114" on="1"/>
        <pt x="618" y="1114" on="1"/>
        <pt x="618" y="838" on="1"/>
      </contour>
    </TTGlyph>
    <TTGlyph name="quoteright" xMin="256" yMin="839" xMax="578" yMax="1504">
      <contour>
        <pt x="382" y="839" on="1"/>
        <pt x="275" y="885" on="1"/>
        <pt x="326" y="943" on="0"/>
        <pt x="421" y="1136" on="0"/>
        <pt x="421" y="1228" on="1"/>
        <pt x="256" y="1228" on="1"/>
        <pt x="256" y="1504" on="1"/>
        <pt x="578" y="1504" on="1"/>
        <pt x="578" y="1281" on="1"/>
        <pt x="578" y="1148" on="0"/>
        <pt x="446" y="897" on="0"/>
      </contour>
    </TTGlyph>
    <TTGlyph name="quotesinglbase" xMin="296" yMin="-389" xMax="618" yMax="276">
      <contour>
        <pt x="422" y="-389" on="1"/>
        <pt x="315" y="-343" on="1"/>
        <pt x="366" y="-285" on="0"/>
        <pt x="461" y="-92" on="0"/>
        <pt x="461" y="0" on="1"/>
        <pt x="296" y="0" on="1"/>
        <pt x="296" y="276" on="1"/>
        <pt x="618" y="276" on="1"/>
        <pt x="618" y="53" on="1"/>
        <pt x="618" y="-80" on="0"/>
        <pt x="486" y="-331" on="0"/>
      </contour>
    </TTGlyph>
    <TTGlyph name="quotesingle" xMin="258" yMin="872" xMax="511" yMax="1516">
      <contour>
        <pt x="337" y="872" on="1"/>
        <pt x="258" y="1516" on="1"/>
        <pt x="511" y="1516" on="1"/>
        <pt x="456" y="872" on="1"/>
      </contour>
    </TTGlyph>
    <TTGlyph name="r" xMin="160" yMin="0" xMax="811" yMax="1091">
      <contour>
        <pt x="160" y="0" on="1"/>
        <pt x="160" y="1074" on="1"/>
        <pt x="432" y="1074" on="1"/>
        <pt x="432" y="946" on="1"/>
        <pt x="456" y="992" on="0"/>
        <pt x="532" y="1028" on="1"/>
        <pt x="663" y="1091" on="0"/>
        <pt x="785" y="1091" on="1"/>
        <pt x="799" y="1091" on="0"/>
        <pt x="811" y="1090" on="1"/>
        <pt x="805" y="859" on="1"/>
        <pt x="626" y="850" on="0"/>
        <pt x="508" y="792" on="1"/>
        <pt x="442" y="760" on="0"/>
        <pt x="432" y="720" on="1"/>
        <pt x="432" y="0" on="1"/>
      </contour>
    </TTGlyph>
    <TTGlyph name="racute" xMin="160" yMin="0" xMax="811" yMax="1646">
      <component glyphName="acute" x="305" y="124" flags="0x1004"/>
      <component glyphName="r" x="0" y="0" flags="0x1204"/>
    </TTGlyph>
    <TTGlyph name="rcaron" xMin="160" yMin="0" xMax="811" yMax="1581">
      <component glyphName="caron" x="206" y="65" flags="0x1004"/>
      <component glyphName="r" x="0" y="0" flags="0x1204"/>
    </TTGlyph>
    <TTGlyph name="rcommaaccent" xMin="160" yMin="-849" xMax="811" yMax="1091">
      <component glyphName="uni0326" x="123" y="-78" flags="0x1004"/>
      <component glyphName="r" x="0" y="0" flags="0x1204"/>
    </TTGlyph>
    <TTGlyph name="registered" xMin="152" yMin="-14" xMax="1624" yMax="1456">
      <contour>
        <pt x="1315" y="99" on="0"/>
        <pt x="1042" y="-14" on="0"/>
        <pt x="684" y="-14" on="0"/>
        <pt x="347" y="178" on="0"/>
        <pt x="152" y="516" on="0"/>
        <pt x="152" y="927" on="0"/>
        <pt x="347" y="1264" on="0"/>
        <pt x="684" y="1456" on="0"/>
        <pt x="1093" y="1456" on="0"/>
        <pt x="1431" y="1264" on="0"/>
        <pt x="1624" y="927" on="0"/>
        <pt x="1624" y="567" on="0"/>
        <pt x="1510" y="294" on="0"/>
      </contour>
      <contour>
        <pt x="422" y="249" on="0"/>
        <pt x="711" y="82" on="0"/>
        <pt x="1070" y="82" on="0"/>
        <pt x="1358" y="249" on="0"/>
        <pt x="1518" y="541" on="0"/>
        <pt x="1518" y="902" on="0"/>
        <pt x="1358" y="1194" on="0"/>
        <pt x="1070" y="1361" on="0"/>
        <pt x="711" y="1361" on="0"/>
        <pt x="422" y="1194" on="0"/>
        <pt x="261" y="902" on="0"/>
        <pt x="261" y="542" on="0"/>
      </contour>
      <contour>
        <pt x="723" y="742" on="1"/>
        <pt x="990" y="742" on="1"/>
        <pt x="1124" y="742" on="0"/>
        <pt x="1126" y="877" on="1"/>
        <pt x="1126" y="901" on="1"/>
        <pt x="1126" y="1062" on="0"/>
        <pt x="999" y="1062" on="1"/>
        <pt x="723" y="1062" on="1"/>
      </contour>
      <contour>
        <pt x="592" y="319" on="1"/>
        <pt x="592" y="1153" on="1"/>
        <pt x="995" y="1153" on="1"/>
        <pt x="1252" y="1153" on="0"/>
        <pt x="1258" y="908" on="1"/>
        <pt x="1258" y="894" on="1"/>
        <pt x="1258" y="707" on="0"/>
        <pt x="1106" y="666" on="1"/>
        <pt x="1290" y="319" on="1"/>
        <pt x="1162" y="319" on="1"/>
        <pt x="982" y="652" on="1"/>
        <pt x="723" y="652" on="1"/>
        <pt x="723" y="319" on="1"/>
      </contour>
    </TTGlyph>
    <TTGlyph name="ring" xMin="66" yMin="1069" xMax="526" yMax="1494">
      <contour>
        <pt x="404" y="1069" on="0"/>
        <pt x="188" y="1069" on="0"/>
        <pt x="66" y="1181" on="0"/>
        <pt x="66" y="1383" on="0"/>
        <pt x="188" y="1494" on="0"/>
        <pt x="404" y="1494" on="0"/>
        <pt x="526" y="1383" on="0"/>
        <pt x="526" y="1181" on="0"/>
      </contour>
      <contour>
        <pt x="178" y="1159" on="0"/>
        <pt x="414" y="1159" on="0"/>
        <pt x="414" y="1406" on="0"/>
        <pt x="178" y="1406" on="0"/>
      </contour>
    </TTGlyph>
    <TTGlyph name="s" xMin="108" yMin="-23" xMax="912" yMax="1097">
      <contour>
        <pt x="527" y="-23" on="1"/>
        <pt x="273" y="-23" on="0"/>
        <pt x="108" y="61" on="1"/>
        <pt x="163" y="246" on="1"/>
        <pt x="351" y="166" on="0"/>
        <pt x="517" y="166" on="1"/>
        <pt x="644" y="166" on="0"/>
        <pt x="661" y="279" on="1"/>
        <pt x="663" y="293" on="0"/>
        <pt x="663" y="305" on="1"/>
        <pt x="663" y="386" on="0"/>
        <pt x="572" y="415" on="1"/>
        <pt x="336" y="489" on="1"/>
        <pt x="215" y="527" on="0"/>
        <pt x="114" y="679" on="0"/>
        <pt x="114" y="788" on="1"/>
        <pt x="114" y="792" on="0"/>
        <pt x="114" y="796" on="1"/>
        <pt x="116" y="1097" on="0"/>
        <pt x="526" y="1097" on="1"/>
        <pt x="728" y="1097" on="0"/>
        <pt x="888" y="1006" on="1"/>
        <pt x="824" y="837" on="1"/>
        <pt x="773" y="864" on="0"/>
        <pt x="598" y="907" on="0"/>
        <pt x="444" y="907" on="0"/>
        <pt x="374" y="852" on="0"/>
        <pt x="374" y="719" on="0"/>
        <pt x="448" y="696" on="1"/>
        <pt x="670" y="626" on="1"/>
        <pt x="803" y="584" on="0"/>
        <pt x="912" y="432" on="0"/>
        <pt x="912" y="160" on="0"/>
        <pt x="712" y="-23" on="0"/>
      </contour>
    </TTGlyph>
    <TTGlyph name="sacute" xMin="108" yMin="-23" xMax="912" yMax="1646">
      <component glyphName="acute" x="330" y="124" flags="0x1004"/>
      <component glyphName="s" x="0" y="0" flags="0x1204"/>
    </TTGlyph>
    <TTGlyph name="scaron" xMin="108" yMin="-23" xMax="912" yMax="1581">
      <component glyphName="caron" x="230" y="65" flags="0x1004"/>
      <component glyphName="s" x="0" y="0" flags="0x1204"/>
    </TTGlyph>
    <TTGlyph name="scedilla" xMin="108" yMin="-501" xMax="912" yMax="1097">
      <component glyphName="cedilla" x="315" y="-7" flags="0x1004"/>
      <component glyphName="s" x="0" y="0" flags="0x1204"/>
    </TTGlyph>
    <TTGlyph name="scircumflex" xMin="108" yMin="-23" xMax="912" yMax="1581">
      <component glyphName="circumflex" x="230" y="65" flags="0x1004"/>
      <component glyphName="s" x="0" y="0" flags="0x1204"/>
    </TTGlyph>
    <TTGlyph name="scommaaccent" xMin="108" yMin="-872" xMax="912" yMax="1097">
      <component glyphName="uni0326" x="148" y="-101" flags="0x1004"/>
      <component glyphName="s" x="0" y="0" flags="0x1204"/>
    </TTGlyph>
    <TTGlyph name="section" xMin="124" yMin="-22" xMax="964" yMax="1497">
      <contour>
        <pt x="738" y="579" on="1"/>
        <pt x="760" y="611" on="0"/>
        <pt x="760" y="696" on="0"/>
        <pt x="726" y="769" on="0"/>
        <pt x="661" y="797" on="1"/>
        <pt x="360" y="941" on="1"/>
        <pt x="347" y="932" on="0"/>
        <pt x="317" y="875" on="0"/>
        <pt x="317" y="841" on="1"/>
        <pt x="317" y="770" on="0"/>
        <pt x="403" y="733" on="1"/>
      </contour>
      <contour>
        <pt x="964" y="714" on="1"/>
        <pt x="964" y="604" on="0"/>
        <pt x="857" y="505" on="1"/>
        <pt x="941" y="431" on="0"/>
        <pt x="941" y="161" on="0"/>
        <pt x="741" y="-22" on="0"/>
        <pt x="556" y="-22" on="1"/>
        <pt x="288" y="-22" on="0"/>
        <pt x="124" y="112" on="1"/>
        <pt x="218" y="281" on="1"/>
        <pt x="381" y="175" on="0"/>
        <pt x="516" y="175" on="1"/>
        <pt x="557" y="174" on="0"/>
        <pt x="595" y="184" on="1"/>
        <pt x="689" y="208" on="0"/>
        <pt x="689" y="286" on="1"/>
        <pt x="689" y="327" on="0"/>
        <pt x="644" y="383" on="0"/>
        <pt x="587" y="411" on="1"/>
        <pt x="326" y="537" on="1"/>
        <pt x="233" y="582" on="0"/>
        <pt x="132" y="715" on="0"/>
        <pt x="132" y="785" on="1"/>
        <pt x="132" y="916" on="0"/>
        <pt x="242" y="999" on="1"/>
        <pt x="150" y="1074" on="0"/>
        <pt x="150" y="1348" on="0"/>
        <pt x="353" y="1497" on="0"/>
        <pt x="504" y="1497" on="1"/>
        <pt x="766" y="1497" on="0"/>
        <pt x="924" y="1377" on="1"/>
        <pt x="840" y="1218" on="1"/>
        <pt x="683" y="1308" on="0"/>
        <pt x="558" y="1308" on="1"/>
        <pt x="404" y="1308" on="0"/>
        <pt x="404" y="1206" on="1"/>
        <pt x="404" y="1168" on="0"/>
        <pt x="443" y="1125" on="0"/>
        <pt x="487" y="1104" on="1"/>
        <pt x="748" y="981" on="1"/>
        <pt x="873" y="922" on="0"/>
        <pt x="926" y="837" on="1"/>
        <pt x="964" y="776" on="0"/>
      </contour>
    </TTGlyph>
    <TTGlyph name="semicolon" xMin="237" yMin="-191" xMax="559" yMax="1138">
      <contour>
        <pt x="363" y="-191" on="1"/>
        <pt x="256" y="-145" on="1"/>
        <pt x="307" y="-87" on="0"/>
        <pt x="402" y="106" on="0"/>
        <pt x="402" y="198" on="1"/>
        <pt x="237" y="198" on="1"/>
        <pt x="237" y="474" on="1"/>
        <pt x="559" y="474" on="1"/>
        <pt x="559" y="251" on="1"/>
        <pt x="559" y="118" on="0"/>
        <pt x="427" y="-133" on="0"/>
      </contour>
      <contour>
        <pt x="241" y="854" on="1"/>
        <pt x="241" y="1138" on="1"/>
        <pt x="539" y="1138" on="1"/>
        <pt x="539" y="854" on="1"/>
      </contour>
    </TTGlyph>
    <TTGlyph name="seven" xMin="230" yMin="0" xMax="1228" yMax="1476">
      <contour>
        <pt x="360" y="0" on="1"/>
        <pt x="904" y="1244" on="1"/>
        <pt x="230" y="1244" on="1"/>
        <pt x="230" y="1476" on="1"/>
        <pt x="1228" y="1476" on="1"/>
        <pt x="1228" y="1270" on="1"/>
        <pt x="674" y="0" on="1"/>
      </contour>
    </TTGlyph>
    <TTGlyph name="six" xMin="214" yMin="-26" xMax="1278" yMax="1477">
      <contour>
        <pt x="747" y="720" on="1"/>
        <pt x="498" y="720" on="0"/>
        <pt x="498" y="193" on="0"/>
        <pt x="1005" y="193" on="0"/>
        <pt x="1005" y="454" on="1"/>
        <pt x="1005" y="583" on="0"/>
        <pt x="885" y="720" on="0"/>
      </contour>
      <contour>
        <pt x="637" y="904" on="1"/>
        <pt x="725" y="930" on="0"/>
        <pt x="793" y="930" on="1"/>
        <pt x="1037" y="930" on="0"/>
        <pt x="1278" y="704" on="0"/>
        <pt x="1278" y="192" on="0"/>
        <pt x="1014" y="-26" on="0"/>
        <pt x="463" y="-26" on="0"/>
        <pt x="214" y="204" on="0"/>
        <pt x="214" y="707" on="0"/>
        <pt x="349" y="965" on="1"/>
        <pt x="639" y="1477" on="1"/>
        <pt x="959" y="1477" on="1"/>
      </contour>
    </TTGlyph>
    <TTGlyph name="slash" xMin="106" yMin="0" xMax="918" yMax="1516">
      <contour>
        <pt x="106" y="0" on="1"/>
        <pt x="675" y="1516" on="1"/>
        <pt x="918" y="1516" on="1"/>
        <pt x="349" y="0" on="1"/>
      </contour>
    </TTGlyph>
    <TTGlyph name="sterling" xMin="134" yMin="0" xMax="1130" yMax="1515">
      <contour>
        <pt x="206" y="0" on="1"/>
        <pt x="256" y="621" on="1"/>
        <pt x="134" y="621" on="1"/>
        <pt x="134" y="812" on="1"/>
        <pt x="271" y="812" on="1"/>
        <pt x="291" y="1061" on="1"/>
        <pt x="304" y="1283" on="0"/>
        <pt x="531" y="1515" on="0"/>
        <pt x="771" y="1515" on="1"/>
        <pt x="872" y="1515" on="0"/>
        <pt x="1067" y="1457" on="0"/>
        <pt x="1130" y="1415" on="1"/>
        <pt x="1059" y="1214" on="1"/>
        <pt x="908" y="1281" on="0"/>
        <pt x="686" y="1281" on="0"/>
        <pt x="594" y="1158" on="0"/>
        <pt x="586" y="1044" on="1"/>
        <pt x="567" y="812" on="1"/>
        <pt x="1043" y="812" on="1"/>
        <pt x="1043" y="621" on="1"/>
        <pt x="550" y="621" on="1"/>
        <pt x="516" y="226" on="1"/>
        <pt x="1124" y="226" on="1"/>
        <pt x="1124" y="0" on="1"/>
      </contour>
    </TTGlyph>
    <TTGlyph name="t" xMin="64" yMin="-12" xMax="741" yMax="1419">
      <contour>
        <pt x="664" y="-12" on="1"/>
        <pt x="419" y="-12" on="0"/>
        <pt x="207" y="136" on="0"/>
        <pt x="207" y="341" on="1"/>
        <pt x="207" y="901" on="1"/>
        <pt x="64" y="901" on="1"/>
        <pt x="64" y="1074" on="1"/>
        <pt x="215" y="1074" on="1"/>
        <pt x="240" y="1419" on="1"/>
        <pt x="479" y="1419" on="1"/>
        <pt x="479" y="1074" on="1"/>
        <pt x="734" y="1074" on="1"/>
        <pt x="734" y="901" on="1"/>
        <pt x="479" y="901" on="1"/>
        <pt x="479" y="360" on="1"/>
        <pt x="479" y="260" on="0"/>
        <pt x="574" y="190" on="0"/>
        <pt x="709" y="190" on="1"/>
        <pt x="741" y="190" on="1"/>
        <pt x="731" y="-12" on="1"/>
      </contour>
    </TTGlyph>
    <TTGlyph name="tbar" xMin="58" yMin="-12" xMax="774" yMax="1419">
      <contour>
        <pt x="676" y="-12" on="1"/>
        <pt x="550" y="-12" on="0"/>
        <pt x="387" y="20" on="0"/>
        <pt x="275" y="102" on="0"/>
        <pt x="228" y="237" on="0"/>
        <pt x="228" y="341" on="1"/>
        <pt x="228" y="560" on="1"/>
        <pt x="58" y="560" on="1"/>
        <pt x="58" y="689" on="1"/>
        <pt x="228" y="689" on="1"/>
        <pt x="228" y="901" on="1"/>
        <pt x="86" y="901" on="1"/>
        <pt x="86" y="1074" on="1"/>
        <pt x="236" y="1074" on="1"/>
        <pt x="262" y="1419" on="1"/>
        <pt x="501" y="1419" on="1"/>
        <pt x="501" y="1074" on="1"/>
        <pt x="756" y="1074" on="1"/>
        <pt x="756" y="901" on="1"/>
        <pt x="501" y="901" on="1"/>
        <pt x="501" y="689" on="1"/>
        <pt x="774" y="689" on="1"/>
        <pt x="774" y="560" on="1"/>
        <pt x="501" y="560" on="1"/>
        <pt x="501" y="360" on="1"/>
        <pt x="501" y="261" on="0"/>
        <pt x="599" y="190" on="0"/>
        <pt x="734" y="190" on="1"/>
        <pt x="766" y="190" on="1"/>
        <pt x="746" y="-12" on="1"/>
      </contour>
    </TTGlyph>
    <TTGlyph name="tcaron" xMin="64" yMin="-12" xMax="1339" yMax="1419">
      <component glyphName="comma" x="794" y="1143" flags="0x1004"/>
      <component glyphName="t" x="0" y="0" flags="0x1004"/>
    </TTGlyph>
    <TTGlyph name="tcommaaccent" xMin="64" yMin="-490" xMax="741" yMax="1419">
      <component glyphName="cedilla" x="208" y="4" flags="0x1004"/>
      <component glyphName="t" x="0" y="0" flags="0x1204"/>
    </TTGlyph>
    <TTGlyph name="thorn" xMin="158" yMin="-410" xMax="1080" yMax="1516">
      <contour>
        <pt x="614" y="165" on="1"/>
        <pt x="807" y="165" on="0"/>
        <pt x="807" y="320" on="1"/>
        <pt x="807" y="755" on="1"/>
        <pt x="807" y="906" on="0"/>
        <pt x="623" y="906" on="1"/>
        <pt x="562" y="906" on="0"/>
        <pt x="458" y="867" on="0"/>
        <pt x="431" y="841" on="1"/>
        <pt x="431" y="213" on="1"/>
        <pt x="521" y="165" on="0"/>
      </contour>
      <contour>
        <pt x="158" y="-410" on="1"/>
        <pt x="158" y="1516" on="1"/>
        <pt x="431" y="1516" on="1"/>
        <pt x="431" y="1036" on="1"/>
        <pt x="537" y="1095" on="0"/>
        <pt x="668" y="1095" on="1"/>
        <pt x="861" y="1095" on="0"/>
        <pt x="1080" y="908" on="0"/>
        <pt x="1080" y="751" on="1"/>
        <pt x="1080" y="326" on="1"/>
        <pt x="1080" y="178" on="0"/>
        <pt x="851" y="-24" on="0"/>
        <pt x="636" y="-24" on="1"/>
        <pt x="525" y="-24" on="0"/>
        <pt x="431" y="17" on="1"/>
        <pt x="431" y="-410" on="1"/>
      </contour>
    </TTGlyph>
    <TTGlyph name="three" xMin="182" yMin="-27" xMax="1260" yMax="1503">
      <contour>
        <pt x="715" y="198" on="1"/>
        <pt x="978" y="198" on="0"/>
        <pt x="978" y="426" on="1"/>
        <pt x="978" y="534" on="0"/>
        <pt x="923" y="633" on="0"/>
        <pt x="785" y="678" on="0"/>
        <pt x="654" y="678" on="1"/>
        <pt x="654" y="877" on="1"/>
        <pt x="896" y="877" on="0"/>
        <pt x="942" y="951" on="1"/>
        <pt x="970" y="997" on="0"/>
        <pt x="970" y="1184" on="0"/>
        <pt x="856" y="1279" on="0"/>
        <pt x="568" y="1279" on="0"/>
        <pt x="455" y="1172" on="0"/>
        <pt x="456" y="1033" on="1"/>
        <pt x="188" y="1033" on="1"/>
        <pt x="190" y="1293" on="0"/>
        <pt x="466" y="1503" on="0"/>
        <pt x="955" y="1503" on="0"/>
        <pt x="1247" y="1290" on="0"/>
        <pt x="1247" y="1101" on="1"/>
        <pt x="1247" y="949" on="0"/>
        <pt x="1131" y="804" on="0"/>
        <pt x="1023" y="780" on="1"/>
        <pt x="1260" y="716" on="0"/>
        <pt x="1260" y="426" on="1"/>
        <pt x="1260" y="225" on="0"/>
        <pt x="1004" y="-27" on="0"/>
        <pt x="446" y="-27" on="0"/>
        <pt x="188" y="210" on="0"/>
        <pt x="182" y="436" on="1"/>
        <pt x="450" y="436" on="1"/>
        <pt x="452" y="300" on="0"/>
        <pt x="575" y="198" on="0"/>
      </contour>
    </TTGlyph>
    <TTGlyph name="threequarters" xMin="245" yMin="0" xMax="2345" yMax="1505">
      <contour>
        <pt x="803" y="990" on="1"/>
        <pt x="967" y="946" on="0"/>
        <pt x="967" y="760" on="1"/>
        <pt x="967" y="614" on="0"/>
        <pt x="814" y="437" on="0"/>
        <pt x="414" y="437" on="0"/>
        <pt x="249" y="593" on="0"/>
        <pt x="245" y="773" on="1"/>
        <pt x="430" y="773" on="1"/>
        <pt x="432" y="654" on="0"/>
        <pt x="521" y="591" on="0"/>
        <pt x="716" y="591" on="0"/>
        <pt x="779" y="669" on="0"/>
        <pt x="779" y="817" on="0"/>
        <pt x="763" y="850" on="1"/>
        <pt x="731" y="917" on="0"/>
        <pt x="562" y="917" on="1"/>
        <pt x="562" y="1059" on="1"/>
        <pt x="732" y="1058" on="0"/>
        <pt x="758" y="1112" on="1"/>
        <pt x="774" y="1144" on="0"/>
        <pt x="773" y="1278" on="0"/>
        <pt x="701" y="1344" on="0"/>
        <pt x="503" y="1344" on="0"/>
        <pt x="434" y="1272" on="0"/>
        <pt x="434" y="1162" on="1"/>
        <pt x="434" y="1159" on="0"/>
        <pt x="434" y="1156" on="1"/>
        <pt x="249" y="1156" on="1"/>
        <pt x="249" y="1352" on="0"/>
        <pt x="442" y="1496" on="0"/>
        <pt x="785" y="1496" on="0"/>
        <pt x="958" y="1351" on="0"/>
        <pt x="958" y="1074" on="0"/>
        <pt x="884" y="1022" on="1"/>
        <pt x="852" y="1000" on="0"/>
      </contour>
      <contour>
        <pt x="2018" y="0" on="1"/>
        <pt x="2018" y="210" on="1"/>
        <pt x="1517" y="210" on="1"/>
        <pt x="1517" y="369" on="1"/>
        <pt x="1797" y="1074" on="1"/>
        <pt x="1988" y="1074" on="1"/>
        <pt x="1719" y="373" on="1"/>
        <pt x="2018" y="373" on="1"/>
        <pt x="2018" y="615" on="1"/>
        <pt x="2177" y="615" on="1"/>
        <pt x="2177" y="373" on="1"/>
        <pt x="2345" y="373" on="1"/>
        <pt x="2345" y="210" on="1"/>
        <pt x="2177" y="210" on="1"/>
        <pt x="2177" y="0" on="1"/>
      </contour>
      <contour>
        <pt x="889" y="0" on="1"/>
        <pt x="1530" y="1505" on="1"/>
        <pt x="1704" y="1505" on="1"/>
        <pt x="1063" y="0" on="1"/>
      </contour>
    </TTGlyph>
    <TTGlyph name="tilde" xMin="69" yMin="1231" xMax="690" yMax="1507">
      <contour>
        <pt x="269" y="1231" on="1"/>
        <pt x="69" y="1231" on="0"/>
        <pt x="69" y="1491" on="1"/>
        <pt x="187" y="1491" on="1"/>
        <pt x="187" y="1405" on="0"/>
        <pt x="250" y="1405" on="1"/>
        <pt x="273" y="1405" on="0"/>
        <pt x="312" y="1440" on="1"/>
        <pt x="388" y="1507" on="0"/>
        <pt x="490" y="1507" on="1"/>
        <pt x="690" y="1507" on="0"/>
        <pt x="690" y="1247" on="1"/>
        <pt x="572" y="1247" on="1"/>
        <pt x="572" y="1334" on="0"/>
        <pt x="516" y="1334" on="1"/>
        <pt x="491" y="1334" on="0"/>
        <pt x="449" y="1298" on="1"/>
        <pt x="369" y="1230" on="0"/>
      </contour>
    </TTGlyph>
    <TTGlyph name="trademark" xMin="133" yMin="766" xMax="1609" yMax="1446">
      <contour>
        <pt x="345" y="766" on="1"/>
        <pt x="345" y="1332" on="1"/>
        <pt x="133" y="1332" on="1"/>
        <pt x="133" y="1446" on="1"/>
        <pt x="692" y="1446" on="1"/>
        <pt x="692" y="1332" on="1"/>
        <pt x="480" y="1332" on="1"/>
        <pt x="480" y="766" on="1"/>
      </contour>
      <contour>
        <pt x="845" y="766" on="1"/>
        <pt x="845" y="1446" on="1"/>
        <pt x="1043" y="1446" on="1"/>
        <pt x="1227" y="1033" on="1"/>
        <pt x="1413" y="1446" on="1"/>
        <pt x="1609" y="1446" on="1"/>
        <pt x="1609" y="766" on="1"/>
        <pt x="1482" y="766" on="1"/>
        <pt x="1482" y="1329" on="1"/>
        <pt x="1310" y="931" on="1"/>
        <pt x="1149" y="931" on="1"/>
        <pt x="970" y="1329" on="1"/>
        <pt x="970" y="766" on="1"/>
      </contour>
    </TTGlyph>
    <TTGlyph name="two" xMin="162" yMin="0" xMax="1243" yMax="1503">
      <contour>
        <pt x="955" y="1069" on="1"/>
        <pt x="955" y="1279" on="0"/>
        <pt x="727" y="1279" on="1"/>
        <pt x="584" y="1279" on="0"/>
        <pt x="467" y="1152" on="0"/>
        <pt x="467" y="992" on="1"/>
        <pt x="162" y="992" on="1"/>
        <pt x="162" y="1259" on="0"/>
        <pt x="418" y="1503" on="0"/>
        <pt x="714" y="1503" on="1"/>
        <pt x="1110" y="1503" on="0"/>
        <pt x="1213" y="1238" on="1"/>
        <pt x="1243" y="1161" on="0"/>
        <pt x="1243" y="1067" on="1"/>
        <pt x="1243" y="913" on="0"/>
        <pt x="1099" y="683" on="0"/>
        <pt x="936" y="544" on="1"/>
        <pt x="566" y="227" on="1"/>
        <pt x="1218" y="227" on="1"/>
        <pt x="1218" y="0" on="1"/>
        <pt x="245" y="0" on="1"/>
        <pt x="209" y="226" on="1"/>
        <pt x="756" y="719" on="1"/>
        <pt x="872" y="823" on="0"/>
        <pt x="955" y="969" on="0"/>
      </contour>
    </TTGlyph>
    <TTGlyph name="u" xMin="152" yMin="-23" xMax="1091" yMax="1074">
      <contour>
        <pt x="827" y="118" on="1"/>
        <pt x="795" y="52" on="0"/>
        <pt x="611" y="-23" on="0"/>
        <pt x="499" y="-23" on="1"/>
        <pt x="338" y="-23" on="0"/>
        <pt x="152" y="155" on="0"/>
        <pt x="152" y="291" on="1"/>
        <pt x="152" y="1074" on="1"/>
        <pt x="424" y="1074" on="1"/>
        <pt x="424" y="335" on="1"/>
        <pt x="424" y="258" on="0"/>
        <pt x="533" y="182" on="0"/>
        <pt x="691" y="182" on="0"/>
        <pt x="819" y="267" on="0"/>
        <pt x="819" y="350" on="1"/>
        <pt x="819" y="1074" on="1"/>
        <pt x="1091" y="1074" on="1"/>
        <pt x="1091" y="0" on="1"/>
        <pt x="835" y="0" on="1"/>
      </contour>
    </TTGlyph>
</ttFont>
